<svg width="16" height="15" viewBox="0 0 16 15" fill="none" xmlns="http://www.w3.org/2000/svg">
<path d="M8.25 0C4.10625 0 0.750001 3.44123 0.750001 7.68989C0.74915 9.30421 1.24411 10.8778 2.16466 12.1875C3.08521 13.4971 4.38461 14.4763 5.8785 14.9861C6.2535 15.053 6.39375 14.8223 6.39375 14.62C6.39375 14.4378 6.384 13.8326 6.384 13.1882C4.5 13.5442 4.0125 12.7175 3.8625 12.2846C3.77775 12.0631 3.4125 11.381 3.09375 11.198C2.83125 11.0542 2.45625 10.6982 3.084 10.6889C3.675 10.679 4.0965 11.2465 4.2375 11.4772C4.9125 12.6399 5.991 12.3131 6.4215 12.1116C6.4875 11.6117 6.684 11.2757 6.9 11.0834C5.23125 10.8912 3.4875 10.2276 3.4875 7.28617C3.4875 6.44951 3.77775 5.75819 4.25625 5.21913C4.18125 5.02688 3.91875 4.23867 4.33125 3.18131C4.33125 3.18131 4.959 2.97983 6.39375 3.97029C7.0043 3.79655 7.63513 3.7091 8.26875 3.71037C8.90625 3.71037 9.54375 3.7965 10.1438 3.96952C11.5778 2.96984 12.2063 3.18208 12.2063 3.18208C12.6188 4.23944 12.3563 5.02765 12.2813 5.2199C12.759 5.75819 13.05 6.44028 13.05 7.28617C13.05 10.2376 11.2973 10.8912 9.6285 11.0834C9.9 11.3234 10.1348 11.7848 10.1348 12.5061C10.1348 13.5342 10.125 14.3609 10.125 14.6208C10.125 14.8223 10.266 15.0622 10.641 14.9853C12.1298 14.4699 13.4234 13.4888 14.3399 12.1801C15.2564 10.8714 15.7496 9.30101 15.75 7.68989C15.75 3.44123 12.3938 0 8.25 0Z" fill="#F5F5F6"/>
</svg>
