<svg width="17" height="15" viewBox="0 0 17 15" fill="none" xmlns="http://www.w3.org/2000/svg">
<path d="M3.54145 1.66741C3.54121 2.10941 3.35443 2.53322 3.02219 2.84561C2.68995 3.158 2.23946 3.33337 1.76984 3.33315C1.30021 3.33293 0.849916 3.15713 0.518007 2.84443C0.186098 2.53173 -0.000234591 2.10774 2.21661e-07 1.66574C0.000235034 1.22374 0.187018 0.799926 0.519259 0.487539C0.8515 0.175152 1.30198 -0.000220793 1.77161 2.08623e-07C2.24123 0.00022121 2.69153 0.176018 3.02344 0.488718C3.35535 0.801417 3.54168 1.2254 3.54145 1.66741V1.66741ZM3.59457 4.56725H0.0531219V15H3.59457V4.56725ZM9.19006 4.56725H5.66632V15H9.15464V9.5253C9.15464 6.47547 13.3778 6.19216 13.3778 9.5253V15H16.875V8.39203C16.875 3.25065 10.6243 3.44231 9.15464 5.96717L9.19006 4.56725V4.56725Z" fill="#F5F5F6"/>
</svg>
