<svg width="20" height="21" viewBox="0 0 20 21" fill="none" xmlns="http://www.w3.org/2000/svg">
<path d="M10 12C10.2652 12 10.5196 11.8946 10.7071 11.7071C10.8946 11.5196 11 11.2652 11 11V1C11 0.734784 10.8946 0.48043 10.7071 0.292893C10.5196 0.105357 10.2652 0 10 0C9.73478 0 9.48043 0.105357 9.29289 0.292893C9.10536 0.48043 9 0.734784 9 1V11C9 11.2652 9.10536 11.5196 9.29289 11.7071C9.48043 11.8946 9.73478 12 10 12Z" fill="black"/>
<path d="M14.59 2.1099C14.354 1.9879 14.0791 1.96466 13.826 2.0453C13.5728 2.12594 13.362 2.30385 13.24 2.5399C13.118 2.77594 13.0948 3.05078 13.1754 3.30395C13.2561 3.55713 13.434 3.7679 13.67 3.8899C15.2635 4.71257 16.5343 6.04676 17.2785 7.67831C18.0228 9.30987 18.1972 11.1442 17.7739 12.8868C17.3506 14.6294 16.3541 16.1792 14.9444 17.2876C13.5346 18.3959 11.7933 18.9984 10 18.9984C8.20672 18.9984 6.46544 18.3959 5.05566 17.2876C3.64588 16.1792 2.64937 14.6294 2.22607 12.8868C1.80277 11.1442 1.97725 9.30987 2.72148 7.67831C3.46572 6.04676 4.73656 4.71257 6.33001 3.8899C6.44688 3.82949 6.55072 3.74665 6.63558 3.64611C6.72044 3.54558 6.78467 3.42931 6.8246 3.30395C6.86453 3.17859 6.87938 3.0466 6.86829 2.9155C6.85721 2.7844 6.82042 2.65677 6.76001 2.5399C6.6996 2.42302 6.61676 2.31919 6.51623 2.23432C6.41569 2.14946 6.29942 2.08523 6.17406 2.0453C6.0487 2.00537 5.91671 1.99053 5.78561 2.00161C5.65451 2.01269 5.52688 2.04949 5.41001 2.1099C3.4187 3.13868 1.83074 4.80662 0.900977 6.84605C-0.0287877 8.88547 -0.246451 11.1781 0.282919 13.3561C0.812288 15.534 2.058 17.471 3.82013 18.8561C5.58226 20.2413 7.75864 20.9943 10 20.9943C12.2414 20.9943 14.4178 20.2413 16.1799 18.8561C17.942 17.471 19.1877 15.534 19.7171 13.3561C20.2465 11.1781 20.0288 8.88547 19.099 6.84605C18.1693 4.80662 16.5813 3.13868 14.59 2.1099Z" fill="black"/>
</svg>
