<svg width="28" height="30" viewBox="0 0 28 30" fill="none" xmlns="http://www.w3.org/2000/svg">
    <path d="M19.004 8.90939L10.0096 17.8368C9.85768 17.9824 9.73653 18.1566 9.65319 18.3491C9.56985 18.5416 9.52598 18.7487 9.52414 18.9582C9.52231 19.1678 9.56254 19.3756 9.6425 19.5695C9.72246 19.7635 9.84054 19.9397 9.98985 20.0879C10.1392 20.236 10.3167 20.3532 10.5122 20.4326C10.7076 20.5119 10.917 20.5518 11.1281 20.55C11.3393 20.5482 11.548 20.5047 11.742 20.422C11.936 20.3393 12.1115 20.219 12.2582 20.0683L21.2542 11.1424C22.1489 10.2545 22.6516 9.05019 22.6516 7.79445C22.6516 6.53871 22.1489 5.3344 21.2542 4.44646C20.3594 3.55852 19.1459 3.05967 17.8805 3.05967C16.6151 3.05967 15.4015 3.55852 14.5068 4.44646L5.51076 13.3739C4.75711 14.1032 4.15688 14.9737 3.74489 15.935C3.3329 16.8963 3.11736 17.9292 3.11076 18.9738C3.10417 20.0184 3.30665 21.054 3.70647 22.0203C4.10629 22.9866 4.69548 23.8646 5.43986 24.6032C6.18425 25.3418 7.06902 25.9264 8.04284 26.323C9.01666 26.7196 10.0601 26.9204 11.1128 26.9137C12.1654 26.907 13.2062 26.693 14.1748 26.284C15.1434 25.875 16.0206 25.2793 16.7554 24.5312L25.7514 15.6054L28 17.8368L19.004 26.7643C17.9703 27.7901 16.743 28.6039 15.3924 29.1591C14.0418 29.7143 12.5942 30 11.1323 30C9.67037 30 8.22277 29.7143 6.87214 29.1591C5.52151 28.6039 4.2943 27.7901 3.26057 26.7643C2.22684 25.7384 1.40684 24.5206 0.847394 23.1802C0.287945 21.8399 -1.08921e-08 20.4033 0 18.9526C1.08921e-08 17.5018 0.287945 16.0652 0.847394 14.7249C1.40684 13.3846 2.22684 12.1667 3.26057 11.1409L12.2582 2.21499C13.7578 0.777651 15.7663 -0.0176799 17.8511 0.000298286C19.9359 0.0182764 21.9301 0.848125 23.4043 2.31111C24.8786 3.77409 25.7148 5.75316 25.7329 7.82205C25.751 9.89095 24.9496 11.8841 23.5012 13.3723L14.5068 22.3029C14.0636 22.7426 13.5376 23.0913 12.9586 23.3292C12.3796 23.5671 11.7591 23.6896 11.1325 23.6895C10.5059 23.6894 9.88541 23.5668 9.3065 23.3288C8.7276 23.0908 8.20162 22.7419 7.75857 22.3021C7.31553 21.8624 6.96411 21.3403 6.72438 20.7658C6.48465 20.1912 6.3613 19.5754 6.36137 18.9536C6.36145 18.3317 6.48494 17.716 6.72481 17.1415C6.96468 16.567 7.31622 16.045 7.75937 15.6054L16.7554 6.67792L19.004 8.90939Z" fill="#F5F5F6"/>
</svg>