<svg width="28" height="25" viewBox="0 0 28 25" fill="none" xmlns="http://www.w3.org/2000/svg">
<path d="M27.5919 20.1042C27.0038 18.0465 21.7499 0 18.3493 0C16.624 0 15.3419 2.06859 14.1022 4.06923C13.307 5.35256 12.5557 6.56474 11.7919 7.06154C11.4605 7.27724 11.1621 7.44295 10.8736 7.60321C10.2941 7.925 9.74703 8.22917 9.13806 8.83846C8.40473 9.57148 7.87973 10.2946 7.71082 10.5369L0.204725 13.4429C0.0938279 13.4859 0.0159433 13.5869 0.00216121 13.7048C-0.0116208 13.8228 0.0412638 13.9388 0.139341 14.0061L5.86851 17.9327L5.86947 17.9311C5.93357 17.975 6.01242 17.9968 6.09351 17.9859C6.10793 17.984 7.5778 17.7933 8.91049 18.593C11.4932 20.1423 11.5384 24.6353 11.5384 24.6804C11.5387 24.7753 11.5813 24.8657 11.6544 24.9263C11.7124 24.9744 11.7852 25 11.8589 25C11.8788 25 11.898 24.9984 11.9175 24.9946C11.9852 24.9821 13.5871 24.6686 15.2429 23.0314C16.2413 22.0439 16.9868 20.8917 17.6445 19.875C18.6086 18.3846 19.4409 17.0974 20.6919 16.8997C22.4522 16.6208 25.8919 19.3526 27.0672 20.4285C27.173 20.5253 27.3297 20.5401 27.4525 20.4647C27.574 20.3894 27.631 20.2423 27.5919 20.1042ZM9.59126 9.29167C10.1371 8.74583 10.6227 8.47596 11.1852 8.16346C11.4833 7.99776 11.7916 7.8266 12.1416 7.59872C13.0252 7.02404 13.8131 5.75256 14.647 4.40705C15.1865 3.53686 15.7345 2.65513 16.306 1.9625C15.58 3.25417 14.79 5.13942 13.8355 7.49359C12.9557 9.66346 12.1249 11.7128 11.3938 12.8381C11.3784 12.8619 11.3621 12.8846 11.3467 12.908L8.36338 10.7279C8.59319 10.4144 9.03165 9.85096 9.59126 9.29167ZM6.07908 17.2997L1.00312 13.8215L7.87107 11.1622L10.974 13.4295C9.27011 15.6487 6.73357 16.9808 6.07908 17.2997ZM20.5916 16.2663C19.0583 16.509 18.1538 17.9074 17.1063 19.5266C16.4663 20.5157 15.7409 21.6369 14.7919 22.5753C13.7345 23.6208 12.6948 24.0785 12.1637 24.2596C12.09 23.0353 11.6659 19.4984 9.2403 18.0429C8.56755 17.6394 7.87235 17.4551 7.2996 17.3763C8.55825 16.6478 10.5945 15.2449 11.9313 13.1869C12.6958 12.0099 13.5377 9.93301 14.4294 7.73397C15.6432 4.74071 17.305 0.641026 18.3493 0.641026C20.449 0.641026 24.4329 11.6442 26.6756 19.2468C25.2724 18.0939 22.414 15.9772 20.5916 16.2663Z" fill="currentColor"/>
<path d="M16.5909 5.20832C16.5694 5.20832 16.5473 5.20383 16.5265 5.19486C16.4454 5.15928 16.4088 5.06473 16.4441 4.98364C16.9114 3.91857 17.3015 3.11409 17.6367 2.52498C17.6803 2.44806 17.7777 2.42082 17.8553 2.46473C17.9322 2.50832 17.9591 2.60639 17.9156 2.68332C17.5861 3.26313 17.2008 4.05768 16.738 5.11248C16.7114 5.17242 16.6524 5.20832 16.5909 5.20832Z" fill="currentColor"/>
<path d="M16.0939 6.37016C16.0734 6.37016 16.0519 6.36599 16.032 6.35766C15.9503 6.32336 15.9118 6.22945 15.9461 6.14772L16.0817 5.82689C16.116 5.74516 16.2096 5.70766 16.2916 5.74163C16.3731 5.77625 16.4112 5.87016 16.3766 5.95157L16.2416 6.27176C16.216 6.3333 16.1564 6.37016 16.0939 6.37016Z" fill="currentColor"/>
<path d="M12.959 22.9762C12.9369 22.9762 12.9145 22.9717 12.8936 22.9624C12.8449 22.9406 12.81 22.8958 12.801 22.8429C12.4888 21.014 11.6892 18.5778 9.65294 17.356C9.57314 17.3083 9.49301 17.2628 9.4132 17.2201C9.3648 17.1942 9.33307 17.1458 9.32859 17.091C9.32442 17.0365 9.34878 16.9833 9.39237 16.9506C10.7469 15.9384 11.8273 14.8192 12.6039 13.6237C13.4103 12.382 14.2661 10.2708 15.1725 8.0352C15.3017 7.71565 15.4366 7.38968 15.5834 7.03424L15.7177 6.70956C15.7513 6.62783 15.8449 6.58968 15.9267 6.6227C16.0087 6.65635 16.0475 6.75026 16.0135 6.83199L15.8795 7.15667C15.7328 7.51148 15.5981 7.83712 15.469 8.15571C14.5568 10.4057 13.6956 12.5307 12.8722 13.798C12.1132 14.9669 11.0735 16.0631 9.77987 17.0586C9.79237 17.066 9.80487 17.0733 9.81737 17.081C11.869 18.3118 12.7219 20.6852 13.0738 22.5487C13.3981 22.3265 13.7097 22.0679 14.0033 21.7775C14.367 21.4179 14.7238 20.9993 15.0946 20.4974C15.1478 20.4262 15.2485 20.4115 15.3186 20.464C15.3901 20.5166 15.4052 20.6169 15.3523 20.6881C14.9715 21.2031 14.6039 21.6342 14.2283 22.0054C13.8584 22.3714 13.46 22.6897 13.044 22.9515C13.0183 22.9679 12.9885 22.9762 12.959 22.9762Z" fill="currentColor"/>
<path d="M16.7264 18.3494C16.5838 18.5644 16.4418 18.7837 16.2988 19.0045L16.7264 18.3494Z" fill="transparent"/>
<path d="M16.2986 19.1648C16.2685 19.1648 16.2384 19.1565 16.2118 19.1391C16.1377 19.0911 16.1163 18.992 16.1643 18.9177C16.3073 18.6962 16.4496 18.4766 16.5932 18.2609C16.6419 18.1869 16.7416 18.1674 16.8153 18.2161C16.8887 18.2651 16.9089 18.3645 16.8599 18.4382C16.7176 18.6526 16.5759 18.8715 16.4336 19.0917C16.4025 19.1388 16.3509 19.1648 16.2986 19.1648Z" fill="currentColor"/>
<path d="M17.1964 17.8286C17.1637 17.8286 17.131 17.8186 17.1025 17.7981C17.0307 17.7462 17.0147 17.6459 17.0666 17.5744C17.8288 16.5212 18.8227 15.4106 20.4169 15.1587C21.532 14.9808 22.9278 15.3904 24.6176 16.3933C23.8499 13.9949 23.0836 11.7846 22.3368 9.8183C21.8778 8.60996 21.431 7.50644 21.008 6.53817C20.9727 6.45708 21.0096 6.36253 21.0906 6.32727C21.1721 6.29169 21.2663 6.32855 21.3015 6.40996C21.7269 7.38304 22.1762 8.49169 22.6368 9.70451C23.4278 11.7878 24.241 14.1433 25.0538 16.7055C25.074 16.7696 25.0522 16.8395 24.999 16.8808C24.9461 16.9218 24.8724 16.9257 24.816 16.8898C23.0323 15.7689 21.5839 15.2987 20.4672 15.4753C18.989 15.709 18.0499 16.7628 17.3265 17.7625C17.2951 17.8055 17.2461 17.8286 17.1964 17.8286Z" fill="currentColor"/>
<path d="M2.84473 13.8622L6.21011 16.226" stroke="black" stroke-miterlimit="10" stroke-linecap="round" stroke-linejoin="round"/>
</svg>
