<svg xmlns="http://www.w3.org/2000/svg" viewBox="0 0 2441 1638.93"><defs><style>.cls-1{fill:#104361;}.cls-2{fill:#06c;}.cls-3{fill:#249be0;}.cls-4{fill:#27a5ef;}.cls-5{fill:#208ac7;}.cls-6{fill:#0c8fe7;}.cls-7{fill:#003;}.cls-8{fill:#171932;}.cls-9{fill:#999;}.cls-10{fill:#ccc;}.cls-11{fill:#fff;}.cls-12{fill:#f2e0e0;}.cls-13{fill:#959bab;}.cls-14{fill:#286144;}.cls-15{fill:#0d3285;}.cls-16{fill:#039;}.cls-17{fill:#26a4ed;}</style></defs><title>Azul</title><g id="Azul"><polygon class="cls-1" points="1839.23 727.47 1839.59 727.47 1839.59 781.19 1839.23 781.19 1839.23 992.39 1864.56 992.39 1864.56 673.07 1839.23 673.07 1839.23 727.47"/><rect class="cls-2" x="1839.35" y="992.39" width="25.33" height="0.24"/><path class="cls-3" d="M1143.37,246.48s-.73,2.33-2,6c1.82.55,3.65,1,5.45,1.64a25.28,25.28,0,0,1,5.63-5.65,47.86,47.86,0,0,1,1.22-15.49h-8.58A42,42,0,0,1,1143.37,246.48Z"/><path class="cls-3" d="M1157.67,246.48a31.43,31.43,0,0,1,4.74.39,40.79,40.79,0,0,1,10.84-13.93h-8c-3.63,4.67-7.2,9.52-10.23,14.1A7.89,7.89,0,0,1,1157.67,246.48Z"/><path class="cls-1" d="M1792.94,781.19v51.88l-223.81,463.81-3.14.06,25.57,107.89H1458.73v0h-95.06v0H916.85c0,.17.09.41.12.54h921.22v-14.19h1V1111.1h-64.72V992.39h64.72V781.19Z"/><path class="cls-3" d="M1172.71,249.79c4.83,1.47,11.93,5.35,20,10.67h218.19L1275.41,441.11a36.19,36.19,0,0,1,12.45,3.08c19.15,8.7,8.71,47,8.71,47v-.1c-4.5,20.05-16.76,39.48-29.3,43.73,15.07,25.34,14.36,63.61,13.43,73.85-.41,4.53,18.75,17.57,10.47,28.3l.12.59a2.56,2.56,0,0,1-2.06,3,2.38,2.38,0,0,1-.46,0c-.13,0-.22-.11-.35-.12a414,414,0,0,1-39.5,42.51c-2.46,5.71-4.49,9.41-4.69,9.77a2.55,2.55,0,0,1-3.48,1,2.42,2.42,0,0,1-1.1-2.49,120,120,0,0,1-16.53,12.11c-6.75,5.73-13.85,11.27-21.24,16.47l10.82,61.27L1242,790c-11.67-5-19.78-8.43-19.78-8.43l115.52,29.67,180.7-265.82V492.48h36l157.72-232h92v-.22h35.1V492.48h25.33V232.94H1863V466.42h-10.35V245.63H1671.27s7.08-10,7.38-12.69h-482.1c-9.22,4-20.77,9.41-30.2,14.79A54.47,54.47,0,0,1,1172.71,249.79Z"/><path class="cls-4" d="M838.32,877.83l14.44,5.57h0l175.9,68L1048.32,908l35.92,71.7-51.45-3.95L846.54,908c-71.84,21.11-137.48,85.75-131.9,105.33s100.15,125.78,127.84,165.52c34.43,49.44,71.27,220.75,74.37,234.62h446.83c0-.33,8.37-194.49,14.64-232.1s43.92-87.85,43.92-87.85-14.63,46-20.91,106.67,59.27,206.37,59.42,206.7h132.83L1566,1296.94,1546.11,1213c2.48,14.68,4,23.77,4,23.77s-34-163.08-69.65-207.25c-34.55-42.77-128.26-140.68-134.16-146.84-2.86-1.59-5.72-3.18-8.6-4.74l14.86-5.13c-3.73-12.72-19.18-34.53-26.69-42.05C1318.63,823.59,1270,802,1242,790l-29.28-8.88h0v.06l1.89,9,80.48,31-50.63,16.44-117,63.07-37.18,71.42h0l-.66-.39-37.53-71L936.13,839.09l-2.82-1.5-51.39-16.44L960,790l1.32-7.65L831.41,821.15l-7,51.31,12.65,4.89.18-.09A5.49,5.49,0,0,1,838.32,877.83ZM1131.14,908l19.37,43.37L1337.58,878l22.24,18.93-213.38,78.79h-54.7Z"/><path class="cls-5" d="M1839.23,1391.18h-1v14.19H917l.11.52H832s-.07-.29-.14-.52h-.59l0,.91H613.07l.12-.91H377.64v-12.8l-.38,0V1042.68c-18.9,8.2-29.63,12.18-29.63,12.18v164.56c2.3-2,4.27-3.76,4.27-3.76v207.6H544.77v11.25H1659.84v-11.25h192.87v-207.6s11.67,10.83,11.67,8v210.82h.18V1111.1h-25.33Z"/><rect class="cls-1" x="1839.23" y="998.17" width="25.33" height="107.15"/><rect class="cls-1" x="1792.94" y="673.07" width="46.29" height="54.4"/><polygon class="cls-1" points="1792.94 390.77 1792.94 492.48 1839.23 492.48 1839.23 260.24 1804.13 260.24 1804.13 260.46 1712.1 260.46 1554.38 492.48 1738.83 492.48 1792.94 390.77"/><path class="cls-1" d="M1247,312.78c8.7,21.75,3.48,134,3.48,134a46.33,46.33,0,0,1,25-5.69l135.44-180.65H1192.66C1214,274.62,1241.3,298.63,1247,312.78Z"/><path class="cls-1" d="M1353,880.05s-1.19-2.73-3.1-6.88l-12.25,4.8c2.88,1.56,5.74,3.15,8.6,4.74.17.12.66.39,2.45,1.48,20.79,11.2,38.54,27.28,56.89,39.73,28.76,18,62.38,34.72,78.76,46.83l100.85-189.56h-72.6V727.47H1613.8l28.94-54.4H1518.42V545.37l-180.7,265.82,10.19,2.61Z"/><polygon class="cls-6" points="1214.6 790.11 1212.71 781.13 1214.28 789.99 1214.6 790.11"/><path class="cls-6" d="M1249.16,604.5c-.64,1-1.23,2-2,3.12a18.26,18.26,0,0,0,2.62-3C1249.55,604.58,1249.34,604.61,1249.16,604.5Z"/><path class="cls-6" d="M1255,588.29a46.86,46.86,0,0,1-3.32,11.3l.76-.09A46.42,46.42,0,0,0,1255,588.29Z"/><polygon class="cls-3" points="588.58 1357.2 610.51 1357.2 619.65 1357.09 626.38 1306.78 588.58 1357.2"/><polygon class="cls-3" points="1738.83 492.48 1792.94 492.48 1792.94 390.77 1738.83 492.48"/><polygon class="cls-3" points="1792.94 727.47 1792.94 673.07 1642.74 673.07 1613.8 727.47 1792.94 727.47"/><path class="cls-3" d="M1484.36,970.75a95.74,95.74,0,0,1,9.65,7.84c13.7,13.7,41.76,173.22,52.1,234.44l19.88,83.91,3.14-.06,223.81-463.81V781.19H1585.21Z"/><path class="cls-7" d="M905.25,534.56h0ZM959.94,790l-78,31.16,51.39,16.44,2.81,1.5,16.74-8.3L960,790Z"/><path class="cls-7" d="M905.25,535.13h0Zm54.69,255.43-78,31.16,51.39,16.44,2.81,1.5,16.74-8.3,7.09-40.8Z"/><path class="cls-7" d="M347.62,749.91v.57h95.9v-.57Z"/><rect class="cls-1" x="347.63" y="755.69" width="90.12" height="146.73"/><rect class="cls-1" x="1776.46" y="998.17" width="62.78" height="107.15"/><path class="cls-8" d="M831.28,1404.83v.54h.59c0-.16-.07-.28-.13-.54Z"/><path class="cls-9" d="M1852.61,245.63V466.42H1863V232.26H1678.28c.33,0,.42.27.37.68-.3,2.67-7.38,12.69-7.38,12.69Z"/><path class="cls-9" d="M1852.71,1215.66v207.6H1659.84v11.85h204.54V1223.69C1864.38,1226.49,1852.71,1215.66,1852.71,1215.66Z"/><path class="cls-9" d="M352,245.63H533.34s-7.08-10-7.38-12.69c-.05-.41,0-.68.37-.68H341.65V466.42H352Z"/><path class="cls-9" d="M351.9,1423.26v-207.6s-2,1.81-4.27,3.76c-3.34,2.82-7.4,5.92-7.4,4.27v211.42H544.77v-11.85Z"/><polygon class="cls-4" points="1777.85 998.18 1777.85 1105.33 1864.56 1105.33 1864.56 1111.11 1772.07 1111.11 1772.07 992.39 1913.24 992.39 1913.24 932.3 1864.68 932.3 1864.68 926.51 1919.02 926.51 1919.02 998.18 1777.85 998.18"/><path class="cls-6" d="M1348.79,884.11c8,4.87,32.39,19.7,59.1,36.42C1389.53,908.08,1369.48,895.72,1348.79,884.11Z"/><path class="cls-6" d="M831.32,1403.25l0,1.58h.45C831.62,1404.44,831.48,1403.89,831.32,1403.25Z"/><path class="cls-4" d="M801.79,1245.66c-8.77-66.82-22.47-133.6-39.23-156.43-7.21-9.83-33.07-32.57-53.84-34.39-3.49-.3-6.68-.73-9.64-1.26-4.21,43.45-17.24,203.19,12.95,252.08,28.38,45.94,89.33,60.81,111.57,64.82C817.31,1341.85,808.64,1297.81,801.79,1245.66Z"/><path class="cls-10" d="M1052.07,900.66l37.53,71,.66.39h0l37.18-71.42,117-63.07-26.35-11.4a39,39,0,0,1-30.5,31.4c-32.49,6.63-81.8,14.65-129.4,14.79-17.64-15.7-41.74-38.57-44.34-48.44-4.15-15.74-7.19-62.13-7.19-62.13,8.41,9,83.69,22.92,113.44,8.15,7.71-3.83,17.76-12.31,28.05-22.27-73,25-134-.81-175.61-21.57-.46-.23-.93-.51-1.39-.75L960,790h0l-7.08,40.8h0l-16.73,8.3Z"/><path class="cls-11" d="M1006.67,761.81s3,46.39,7.19,62.13c2.6,9.87,26.7,32.74,44.34,48.44,47.6-.14,96.91-8.16,129.4-14.79a39,39,0,0,0,30.5-31.4l-1.36-.59L1214.28,790h0l-1.57-8.86v-.06h0l-10.82-61.27a217.47,217.47,0,0,1-39.31,22.34q-7.27,3.12-14.41,5.55c-10.29,10-20.34,18.44-28.05,22.27C1090.36,784.73,1015.08,770.77,1006.67,761.81Zm126.09,21.83s-4.23,29.62-55.84,40.42-32.19-38.55-32.19-38.55,15.68,15.53,47.4,15.56C1119.71,801.1,1132.76,783.64,1132.76,783.64Z"/><path class="cls-10" d="M1044.73,785.51s-19.42,49.35,32.19,38.55,55.84-40.42,55.84-40.42-13,17.46-40.63,17.43C1060.41,801,1044.73,785.51,1044.73,785.51Z"/><path class="cls-12" d="M1080.6,564.07l-.09,0,.11,0C1081,564.08,1081.4,564,1080.6,564.07Z"/><path class="cls-12" d="M1102.77,544.25a14,14,0,0,1,2.68.67A11.19,11.19,0,0,0,1102.77,544.25Z"/><path class="cls-12" d="M1080.47,564.09s0,0,0,0h0Z"/><path class="cls-12" d="M933.17,610.69c-2.32-2.69-4.65-5.43-7-8.32a43.62,43.62,0,0,0,3.27,5.1c.23.21.4.52.64.72Z"/><path class="cls-11" d="M1287.86,444.19a36.19,36.19,0,0,0-12.45-3.08,46.33,46.33,0,0,0-25,5.69l0,0a100.79,100.79,0,0,0-7.48,10.3s-16-12.22-16.52-18.86,3.28-28.94,3.28-28.94-18.14-6.57-23.53-22.61l-.17-.42c-.13-.42-.36-.78-.48-1.22,0-.11-.06-.25-.09-.37-4.31-11.83-6.75-32.42-13.09-48.74-4.48-10.15-10.64-18.9-19.51-23.29-22.81-11.67-47.58-7.27-47.58-7.27s9.56-35.45,21.59-51.34c-1.8-.6-3.63-1.09-5.45-1.64A280,280,0,0,1,1129,282.87v0l-.25.48a184.12,184.12,0,0,1-14.44,25.47c-9.21,13.64-22.41,29.11-38.33,36.39-31.59,14.47-120.79,40.46-122.18,40.86l74.74-40.85c-1,.27-34.78,9.05-64.63,23.84a102.33,102.33,0,0,0-19.53,12.63c.94,5.72,1.64,10.29,1.84,12.33C947,402.43,951,529.61,964,563.36c20.26,52.33,114.61,106.85,128.72,114.78,11.44-.25,19.13-1.2,19.13-1.2l.27,0,.34,0c30.73-6.42,63.06-22.18,89-37.65a2.53,2.53,0,0,1,.55-3.3,2.55,2.55,0,0,1,3.57.44l.17.24a379.41,379.41,0,0,0,40.87-28.48c.19-.16.32-.4.5-.57.8-1.07,1.38-2.09,2-3.12A2.54,2.54,0,0,1,1248,603a2.56,2.56,0,0,1,1.86-3.1c.11,0,.8-.16,1.78-.3a46.41,46.41,0,0,0,3.31-11.3c0-.28.09-.56.12-.85-.51-1.79-16.79-59.76-27-78.2-10.39-18.73,6.39-36.66,6.39-36.66l16,33.18c.79,1.48,4.58,10.34,7.18,13.24,2.09,3.41,5.49,9,9.54,15.81,12.55-4.25,24.81-23.67,29.31-43.73,0,0,0,.1,0,.1S1307,452.89,1287.86,444.19Zm-187.34-59.86,2.52,39.35s-5.42-3.39-7.91-14.59C1092.47,397.13,1100.52,384.33,1100.52,384.33Zm64.61,63.17a11.68,11.68,0,0,1,.63,3.13,12.35,12.35,0,1,1-24.69,0,12.1,12.1,0,0,1,1.58-5.72c-11.88-.1-17.41-2-17.41-2s22.18-11.68,37.7-4.44,20.89,13.42,20.89,13.42S1175.08,449.48,1165.13,447.5Zm44.08-17.21c-3.56,1-85.66,2.09-98.37-5.22v.12a10,10,0,0,1-1-.9c-.12-.13-.41-.24-.49-.37s-.06-.19-.11-.27c-1.83-2-4.67-6.2-5.78-13.68-1.81-12.15,8.46-24.2,8.46-24.2l-.66,25.08c5-10.42,14.78-22.2,14.78-22.2s2.88,10.66,10.22,12.1c13.86,2.72,80.51,12.16,80.51,12.16S1212.94,429.19,1209.21,430.29Z"/><path class="cls-1" d="M959.94,790l-78,31.16,51.39,16.44,2.81,1.5,16.74-8.3L960,790ZM905.25,534.56h0Z"/><path class="cls-1" d="M1253.28,647.83l-28.58,11.58L1221,674.05l-4.24-11.13-.53.2c-1.73.73-3.46,1.42-5.19,2.1-.9,16.8-4.71,45.34-4.89,46.7a2.57,2.57,0,0,1-2.54,2.22,2,2,0,0,1-.34,0,2.55,2.55,0,0,1-2.2-2.87c0-.32,3.62-27.09,4.72-44-3.3,1.19-6.57,2.3-9.77,3.24l-12.37,16.84V673.66c-38.83,8.83-69,3.78-71.47,3.32l-.27,0s-7.69.95-19.13,1.2c-15.89.34-39.06-.7-59.38-7.67-23.87-8.17-63.14-27.55-87-45.42-9.76-7.31-16.79-14.32-19.26-20.26a17.29,17.29,0,0,0,2.35,2.68,43.62,43.62,0,0,1-3.27-5.1c-4.15-20.11,19.22-66.75,19.22-87.09a105.12,105.12,0,0,0-5.87-35.19L912.69,536a28.57,28.57,0,0,1-4.24-.39c-.85-.14-3.12-1-3.19-1h0a19.52,19.52,0,0,1-4.59-2.34c-17.86-13.78-34.37-55.61-20.58-77.27,11.59-18.22,37-9.5,49.51-3.72-1.28-17.07-2.89-36-3.81-49.85a104.9,104.9,0,0,1,18.54-19.66,102.33,102.33,0,0,1,19.53-12.63c29.85-14.79,63.58-23.57,64.63-23.84L953.74,386.1c1.39-.4,89.31-29.6,122.18-40.86,37.72-12.92,57.88-58.76,57.88-58.76l.25-.48v0c8.58-16.77-1.93-39.6-15.63-51.11.32.33.7.66,1,1a2.56,2.56,0,0,1-3.94,3.28c-5-6-17.53-12-34.92-16.53-1.54,0-3.1-.1-4.63,0-13.29,1-40.37,3.17-69,10.42,23.34-2.35,41.6.89,43.73,2.32a2.57,2.57,0,0,1,.69,3.56,2.54,2.54,0,0,1-3.36.81c-6.75-2.71-62.29-9.85-107.23,23.37A91.87,91.87,0,0,0,919.2,286.6c-25.79,41.69-29.6,95.17-30,118.09,3.18,13.29,7.35,21.28,7.47,21.5a2.56,2.56,0,0,1-1,3.48,2.56,2.56,0,0,1-3.47-1,84.69,84.69,0,0,1-4.3-10.29,50.37,50.37,0,0,0-2.71,5.32s-32.07-80,25-160.24a127,127,0,0,1,30.4-30.5h-8.7c-15.65,7.39-28.65,16.88-38,28.43C838.56,329.9,861.72,407.78,862,408.55a2.55,2.55,0,0,1-1.64,3.22,2.42,2.42,0,0,1-.79.13,2.57,2.57,0,0,1-2.44-1.77c-.26-.79-24.21-81.34,32.82-152,7.92-9.81,18.29-18.25,30.61-25.21H526c.29,2.67,7.38,12.69,7.38,12.69H352V466.42h-4.38V749.91h95.9V908.2h-95.9v146.66s10.74-4,29.63-12.18v349.91l.39,0v12.8H613.19l6.46-48.28-9.14.11H588.58l37.8-50.42,38.25-285.91a34,34,0,0,1,.57-4.25l.36-2.72.26.05c10.19-50.24,94.44-99.76,171.27-136.6l-12.65-4.88,7-51.32,129.86-38.81,9.89-57c.46.24.93.52,1.38.75,41.63,20.76,102.67,46.61,175.62,21.57,4.75-1.63,9.55-3.46,14.41-5.54a218.12,218.12,0,0,0,39.31-22.35c7.38-5.2,14.48-10.74,21.24-16.47-.56.32-1.18.74-1.71,1,0,0,15.53-20.85,29.78-44.55A95.5,95.5,0,0,0,1253.28,647.83ZM925.39,380c5.72-3.83,11-7,13.52-8.5l1.64-1,0,0-14.86,29.09c-.38-5.89-.62-10.76-.62-13.87C925.05,384,925.19,382,925.39,380Z"/><path class="cls-10" d="M1107.55,612.1c.11-2.33-10-2.89-24-4.86-10.36-1.46-25.62-1.66-30.48-10.92-.66-1.26-3-1.12-3.73-2.44-14.6-7.37-24.77-17.1-28.76-20.82a1.06,1.06,0,0,1,.72-1.83h10.62c-6.73-3.55-21.61-13.57-26.77-18-2-1.71-3.2-2.84-3.38-3-2.12-4-11,29.32,33.51,59.65,11,7.46,24.11,21.14,27.35,21.38C1064.31,631.36,1106.69,630,1107.55,612.1Z"/><path class="cls-13" d="M1014.7,514.83c.59-.28,1.19-.59,1.74-.79C1016.39,514.06,1015.75,514.34,1014.7,514.83Z"/><path class="cls-10" d="M1101.28,519a29.77,29.77,0,0,1-3.78,5.63c-6.2-2.11-11.1-3.33-12.17-2.38-1.9,1.68-4.14,5.55-5.74,8.57-1.61-3-3.85-6.89-5.75-8.57-2.39-2.13-23.92,6.57-36.61,12l7.29,5.69s-23.76,14.4-22.32,7.68c.61-2.86,1.74-7,2.83-10.85,1.33-4.67,2.41-9.41,3.34-14.17,3.21-16.37,21.1-66.64,21.1-68.05A14.67,14.67,0,0,0,1044.4,444a31.87,31.87,0,0,0,4.79-1.07s-22.18-11.68-37.69-4.44c-.85.39-1.56.77-2.35,1.16-13.93,0-29.34-3.25-34.18-8.19,18.6.57,72.5-.14,82.33-6.37l0,.11s.38-.33.93-.86c.14-.14.42-.26.51-.41s0-.11.07-.16a44.85,44.85,0,0,0,5.6-7.08c6,3,11.53,8.63,11.53,19.43a17.71,17.71,0,0,1-1.12,4.27,2.58,2.58,0,0,0-1.3,1.12c-9.41,19.16-30.78,64.6-25.68,72.75,3,4.68,15.79,5.93,28.66,5.93C1086.23,520.18,1095.8,519.47,1101.28,519Z"/><path class="cls-14" d="M932.25,608.28l-3.07-2.5c-.24-.2-.41-.51-.64-.72a18.5,18.5,0,0,1-2.35-2.69c1.8,6.34,9.45,15.61,20,22.51C941.83,620.41,936.68,613.42,932.25,608.28Z"/><path class="cls-1" d="M1047.83,514.25c2.94,4.68,15.78,5.93,28.66,5.93,9.74,0,19.32-.71,24.79-1.19l1.33-.12a2.55,2.55,0,0,0,2.31-2.78,2.62,2.62,0,0,0-2.79-2.32c-22.14,2-47.53,1.63-50-2.22-2.29-4.63,11.67-38.79,25.93-67.79a2.55,2.55,0,0,0-1.17-3.42,2.44,2.44,0,0,0-2.14,0,2.52,2.52,0,0,0-1.29,1.12C1064.09,460.66,1042.73,506.1,1047.83,514.25Z"/><path class="cls-1" d="M1057.3,425.08l0,.11s.38-.33.94-.86c.13-.14.41-.26.5-.41a1.11,1.11,0,0,0,.07-.16,44.27,44.27,0,0,0,5.6-7.08,46.14,46.14,0,0,0,4.57-9c4.28-11.41-2.83-24.37-2.83-24.37l-5.88,27.85c-.88-11.74-5-26.08-5-26.08a43.79,43.79,0,0,1-18.45,15.29c-12.3,5.33-79.06,12.53-79.06,12.53s7.46,17,11,18.13a49.19,49.19,0,0,0,6.29.41C993.57,432,1047.47,431.31,1057.3,425.08Z"/><path class="cls-1" d="M1049.2,442.92s-22.19-11.68-37.7-4.45c-.85.4-1.56.78-2.35,1.17-13.62,6.71-18.55,12.25-18.55,12.25s8.76-2.41,18.7-4.39a12.08,12.08,0,0,0-.63,3.13,12.35,12.35,0,0,0,24.7,0,12.1,12.1,0,0,0-1.58-5.72,84.44,84.44,0,0,0,12.62-.93A31.73,31.73,0,0,0,1049.2,442.92Z"/><path class="cls-1" d="M1103.42,410c1.12,7.48,3.95,11.66,5.78,13.68,0,.08.06.19.11.27s.37.24.5.37a9.4,9.4,0,0,0,1,.9v-.13c12.71,7.32,94.8,6.28,98.36,5.23,3.74-1.1,7.53-17.38,7.53-17.38s-66.65-9.44-80.51-12.16c-7.35-1.44-10.23-12.1-10.23-12.1s-9.82,11.77-14.78,22.2l.66-25.08S1101.62,397.82,1103.42,410Z"/><path class="cls-1" d="M1095.13,409.09c2.49,11.2,7.91,14.59,7.91,14.59l-2.51-39.35S1092.47,397.13,1095.13,409.09Z"/><path class="cls-1" d="M1162.94,438.47c-15.51-7.23-37.7,4.45-37.7,4.45s5.53,1.89,17.41,2a12.1,12.1,0,0,0-1.58,5.72,12.35,12.35,0,0,0,24.69,0,11.68,11.68,0,0,0-.63-3.13c9.95,2,18.71,4.39,18.71,4.39S1178.45,445.71,1162.94,438.47Z"/><path class="cls-13" d="M938.91,371.47c-2.54,1.51-7.79,4.67-13.52,8.49-.2,2.05-.34,4-.34,5.81,0,3.1.25,8,.62,13.87l14.87-29.09C940,370.85,939.47,371.17,938.91,371.47Z"/><path class="cls-10" d="M964,563.36C951,529.61,947,402.43,946.16,394c-.19-2-.9-6.6-1.84-12.32a104.46,104.46,0,0,0-18.53,19.66c.92,13.81,2.53,32.78,3.81,49.85-12.49-5.79-37.93-14.51-49.52,3.71-13.79,21.67,1.88,64.68,20.58,77.27a25.47,25.47,0,0,0,4.79,2.44,14.81,14.81,0,0,0,3,.93,28.7,28.7,0,0,0,4.25.39l26.85-55.88a105.12,105.12,0,0,1,5.87,35.19c0,20.34-23.38,67-19.23,87.09,2.33,2.89,4.66,5.63,7,8.32,4.43,5.15,8.83,9.9,13.2,14.36,23.86,17.87,63.14,37.24,87,45.42,20.32,7,43.5,8,59.39,7.67C1078.64,670.21,984.29,615.69,964,563.36Z"/><path class="cls-15" d="M1206.16,386.72c-.05-.14-.12-.26-.16-.41C1206.05,386.45,1206.1,386.59,1206.16,386.72Z"/><path class="cls-15" d="M1205.41,384.72c-2.86-11-5.63-31.78-13.1-48.74C1198.65,352.3,1201.1,372.88,1205.41,384.72Z"/><path class="cls-5" d="M1118.44,234.85c13.7,11.52,19.8,42.94,11.22,59.72,5.57-11.37,15.46-25.39,17.87-32.38,1.26-3.64,2-6,2-6a41.73,41.73,0,0,0,1.73-13.54c-1-21.88-22.56-38.92-55.37-38.53-17.76.21-61.89-3.24-109,8.22a262.67,262.67,0,0,1,30.67-2C1062.35,210.29,1105,220.51,1118.44,234.85Z"/><path class="cls-5" d="M1017.61,215.51a228.49,228.49,0,0,0-63,8.89,125,125,0,0,0-14,8.54,126.75,126.75,0,0,0-30.39,30.5c-57,80.22-25,160.24-25,160.24a50.37,50.37,0,0,1,2.71-5.32c-7.37-20.81-18.27-70.92,19.13-127.07,24.87-37.34,60-51.09,85.05-56.06,5.09-1,10-1.7,14.81-2.18,28.64-7.25,55.72-9.4,69-10.42,1.54-.12,3.09,0,4.64,0-16.56-4.26-37.52-7.11-60.73-7.11Z"/><path class="cls-5" d="M911.31,294.13c-30.28,45.47-27.8,86.68-22.08,110.56.37-22.92,4.18-76.4,30-118.09a91.65,91.65,0,0,1,21.52-23.49A123.05,123.05,0,0,0,911.31,294.13Z"/><path class="cls-5" d="M890.33,407.85l-.07.07c10.13-9.64,22.61-18.09,35.22-28C912.11,389.86,899,398.59,890.33,407.85Z"/><path class="cls-15" d="M940.56,370.51l-1.65,1c.56-.3,1.06-.62,1.63-.92Z"/><path class="cls-9" d="M893.88,458c-11.4,4.3-7.59,22.84-7.59,22.84s6.65-7.19,14.24,0,6.77,32.67,6.77,32.67,11.73-1,12.2-17.08S909.72,452,893.88,458Z"/><path class="cls-10" d="M1260.1,507.07c-.23-.77-.38-1.32-.38-1.32s.72,1.16,2,3.19a12.87,12.87,0,0,0,5.54,2.25s-.83-25.47,6.77-32.66,14.23,0,14.23,0,3.81-18.55-7.59-22.85c-15.84-6-26.1,22.3-25.62,38.43a24,24,0,0,0,.4,3.26Z"/><path class="cls-10" d="M1158.36,546.39c2.78,3.06,5.19,6.33,5.51,8.77.83,6.15,2.51,14,2.51,14s10.94-21.8,3.19-27.52c-3.46-2.55-7.9-3.6-11.79-4A50.16,50.16,0,0,1,1158.36,546.39Z"/><path class="cls-8" d="M1258.58,645.68c0,.45,0,.81,0,1.27,0,0,0,.07,0,.1.32-.58.61-1.15.92-1.73Z"/><path class="cls-1" d="M1243.48,619.09a2.56,2.56,0,0,1,2.24-4.61c.6.29,14.42,7.35,12.86,31.2l.89-.36c6.66-12.33,12-24.39,14-34a19.51,19.51,0,0,0-1.79-1.64c-10.34-7.21-20.14-5-20.55-4.87a2.45,2.45,0,0,1-1.39-.21,18.26,18.26,0,0,1-2.62,3c-.18.17-.31.41-.5.57-8,6.62-22.67,17.33-40.87,28.48.83,1.14,5.48,8.19,5.45,22.61,0,1.71-.07,3.73-.19,5.93q2.58-1,5.19-2.1l.53-.19,4.23,11.13,3.74-14.64,28.57-11.58c0-.45.14-.88.18-1.33C1255.32,625.27,1244,619.33,1243.48,619.09Z"/><circle class="cls-5" cx="1263.69" cy="522.21" r="8.22"/><path class="cls-1" d="M1151.78,665.49a226.91,226.91,0,0,1-39.29,12.45l-.34,0-.27,0s-7.69.95-19.13,1.2c-15.89.34-39.06-.7-59.38-7.67-6.55-2.24-14.26-5.33-22.49-9C1015,646.84,1037.23,634.3,1066,631a7,7,0,0,0,6.14-6.89c0-1.41,0-2.86-.18-4.33a18,18,0,0,0-8.56-13.8,60.88,60.88,0,0,1-14-12.09s43.59,5.65,62.84,1.06a49.78,49.78,0,0,1-15.1,12.29,17.47,17.47,0,0,0-9.12,12.67c-.17,1.06-.32,2.14-.44,3.25a6.93,6.93,0,0,0,6.26,7.58C1125.47,633.78,1149.85,648,1151.78,665.49Z"/><path class="cls-16" d="M1274.25,605.31c0-.69.17-1.47.14-2.11-1.23-25.85-15.88-77.33-18.49-86.34l-5.36-11.1-16-33.18s-16.79,17.93-6.4,36.66c10.22,18.44,26.51,76.4,27,78.2,0,.29-.08.56-.11.85a46.42,46.42,0,0,1-2.56,11.21A33.13,33.13,0,0,1,1274.25,605.31Z"/><path class="cls-16" d="M1239.77,690.22a135.1,135.1,0,0,0,11.42-30.42c-14.25,23.7-29.77,44.55-29.77,44.55.52-.28,1.14-.7,1.7-1a120,120,0,0,0,16.53-12.11C1239.69,690.88,1239.59,690.54,1239.77,690.22Z"/><path class="cls-16" d="M1286.25,638.48c0-.21-3.64-18.76-12.77-27.11-2,9.56-7.35,21.62-14,34-.31.58-.6,1.15-.92,1.73-1.26,14.2-6,27.36-9.63,35.91a414,414,0,0,0,39.5-42.51A2.53,2.53,0,0,1,1286.25,638.48Z"/><path class="cls-16" d="M1255.47,515.35s.18.62.43,1.51c2.61,9,17.26,60.49,18.49,86.34,0,.64-.11,1.42-.14,2.11.12.09.24.13.36.22,11.56,8,16,28.32,16.56,31.43,8.24-11.38,8.24-20,8.24-24.52,0-10.26-17.07-52.29-32.14-77.63-4.06-6.81-7.46-12.4-9.55-15.81Z"/><path class="cls-16" d="M1239.77,690.22c-.18.32-.08.66-.12,1a2.42,2.42,0,0,0,1.1,2.49,2.55,2.55,0,0,0,3.48-1c.2-.36,2.23-4.06,4.69-9.77,3.68-8.55,8.37-21.71,9.63-35.91,0,0,0-.07,0-.1,0-.46,0-.82,0-1.27,1.56-23.85-12.26-30.91-12.86-31.2a2.56,2.56,0,0,0-2.24,4.61c.49.24,11.84,6.18,10,27.41,0,.45-.13.88-.18,1.33a93.71,93.71,0,0,1-2.09,12A135.1,135.1,0,0,1,1239.77,690.22Z"/><path class="cls-16" d="M1211.21,659.28c0,1.71-.08,3.73-.2,5.94-.9,16.8-4.71,45.34-4.89,46.7a2.57,2.57,0,0,1-2.54,2.22,2,2,0,0,1-.34,0,2.55,2.55,0,0,1-2.2-2.87c0-.32,3.62-27.09,4.72-44,.2-3,.33-5.78.33-8,0-13.51-4.54-19.69-4.54-19.69s0-.2-.08-.29a2.53,2.53,0,0,1,.55-3.3,2.55,2.55,0,0,1,3.57.44l.17.24C1206.58,637.81,1211.24,644.86,1211.21,659.28Z"/><path class="cls-16" d="M1274.61,605.53c-.12-.09-.24-.13-.36-.22a33.13,33.13,0,0,0-21.81-5.81l-.76.09c-1,.13-1.67.27-1.78.3A2.55,2.55,0,0,0,1248,603a2.62,2.62,0,0,0,1.12,1.51c.18.11.39.08.59.15a2.45,2.45,0,0,0,1.39.21c.41-.1,10.21-2.34,20.55,4.87a19.51,19.51,0,0,1,1.79,1.64c9.13,8.35,12.74,26.9,12.77,27.11a2.53,2.53,0,0,0,2.17,2c.13,0,.22.12.35.12a2.38,2.38,0,0,0,.46,0,2.56,2.56,0,0,0,2.06-3l-.12-.59C1290.56,633.85,1286.17,613.57,1274.61,605.53Z"/><path class="cls-1" d="M905.25,534.56h0ZM959.94,790l-78,31.16,51.39,16.44,2.81,1.5,16.74-8.3L960,790Z"/><path class="cls-1" d="M1274.25,605.31c0-.69.17-1.47.14-2.11-1.23-25.85-15.88-77.33-18.49-86.34l-5.36-11.1-16-33.18s-16.79,17.93-6.4,36.66c10.22,18.44,26.51,76.4,27,78.2,0,.29-.08.56-.11.85a46.42,46.42,0,0,1-2.56,11.21A33.13,33.13,0,0,1,1274.25,605.31Z"/><path class="cls-5" d="M1239.77,690.22a2.26,2.26,0,0,0-.12,1,119.74,119.74,0,0,1-16.53,12.11c-.56.32-1.18.74-1.71,1,0,0,15.53-20.85,29.78-44.55A135.1,135.1,0,0,1,1239.77,690.22Z"/><path class="cls-5" d="M1286.25,638.48c0-.21-3.64-18.76-12.77-27.11-2,9.56-7.35,21.62-14,34-.31.58-.6,1.15-.92,1.73-1.26,14.2-6,27.36-9.63,35.91a414,414,0,0,0,39.5-42.51A2.53,2.53,0,0,1,1286.25,638.48Z"/><path class="cls-5" d="M1255.47,515.35s.18.62.43,1.51c2.61,9,17.26,60.49,18.49,86.34,0,.64-.11,1.42-.14,2.11.12.09.24.13.36.22,11.56,8,16,28.32,16.56,31.43,8.28-10.73,9.87-25.59,8.24-34.12-2.28-11.89-17.07-42.69-32.14-68-4.06-6.81-7.46-12.4-9.55-15.81Z"/><path class="cls-17" d="M1258.58,645.68c0,.45,0,.81,0,1.27,0,0,0,.07,0,.1-1.26,14.2-6,27.36-9.63,35.91-2.47,5.71-4.49,9.41-4.69,9.77a2.55,2.55,0,0,1-3.48,1,2.42,2.42,0,0,1-1.1-2.49,2.26,2.26,0,0,1,.12-1,135.1,135.1,0,0,0,11.42-30.42,95.5,95.5,0,0,0,2.09-12c0-.45.14-.88.18-1.33,1.86-21.23-9.49-27.17-10-27.41a2.56,2.56,0,0,1,2.24-4.61C1246.32,614.77,1260.13,621.83,1258.58,645.68Z"/><path class="cls-17" d="M1211.21,659.28c0,1.71-.08,3.73-.2,5.94-.9,16.8-4.71,45.34-4.89,46.7a2.57,2.57,0,0,1-2.54,2.22,2,2,0,0,1-.34,0,2.55,2.55,0,0,1-2.2-2.87c0-.32,3.62-27.09,4.72-44,.2-3,.33-5.78.33-8,0-13.51-4.54-19.69-4.54-19.69s0-.2-.08-.29a2.53,2.53,0,0,1,.55-3.3,2.55,2.55,0,0,1,3.57.44l.17.24C1206.58,637.81,1211.24,644.86,1211.21,659.28Z"/><path class="cls-17" d="M1274.61,605.53c-.12-.09-.24-.13-.36-.22a33.13,33.13,0,0,0-21.81-5.81l-.76.09c-1,.13-1.67.27-1.78.3A2.55,2.55,0,0,0,1248,603a2.62,2.62,0,0,0,1.12,1.51c.18.11.39.08.59.15a2.45,2.45,0,0,0,1.39.21c.41-.1,10.21-2.34,20.55,4.87a19.51,19.51,0,0,1,1.79,1.64c9.13,8.35,12.74,26.9,12.77,27.11a2.53,2.53,0,0,0,2.17,2c.13,0,.22.12.35.12a2.38,2.38,0,0,0,.46,0,2.56,2.56,0,0,0,2.06-3l-.12-.59C1290.56,633.85,1286.17,613.57,1274.61,605.53Z"/><path class="cls-4" d="M889.92,258.14c-57,70.65-33.08,151.19-32.82,152a2.55,2.55,0,0,0,2.43,1.76,2.41,2.41,0,0,0,.79-.12,2.55,2.55,0,0,0,1.64-3.23c-.24-.77-23.4-78.64,31.94-147.17,9.32-11.55,22.32-21.05,38-28.43a159.47,159.47,0,0,1,22.7-8.54,228.49,228.49,0,0,1,63-8.89h2.22c23.21,0,44.17,2.85,60.73,7.11,17.39,4.48,29.91,10.52,34.92,16.53a2.56,2.56,0,0,0,3.94-3.28c-.28-.34-.67-.67-1-1-13.49-14.34-56.09-24.56-100.87-24.46a262.67,262.67,0,0,0-30.67,2c-25.59,3.21-48.14,10.25-66.38,20.56C908.2,239.9,897.83,248.33,889.92,258.14Z"/><path class="cls-4" d="M907.05,291.29c-37.4,56.15-26.5,106.26-19.13,127.07a82.78,82.78,0,0,0,4.3,10.29,2.55,2.55,0,0,0,2.24,1.33,2.56,2.56,0,0,0,2.25-3.79c-.12-.22-4.3-8.21-7.48-21.5-5.72-23.88-8.2-65.09,22.08-110.56a123.05,123.05,0,0,1,29.42-31C985.68,229.89,1041.22,237,1048,239.74a2.56,2.56,0,0,0,2.67-4.37c-2.13-1.43-20.39-4.67-43.72-2.32-4.77.48-9.72,1.17-14.81,2.18C967,240.2,931.92,254,907.05,291.29Z"/><path class="cls-15" d="M1157.44,550.21c-.19.16-1.4,1.28-3.38,3A7.31,7.31,0,0,0,1157.44,550.21Z"/><path class="cls-16" d="M1158.35,546.3l-.84-.76C1158,545.81,1158.3,546.07,1158.35,546.3Z"/><path class="cls-8" d="M1080.49,564.1s0,0,.13,0l-.11,0Z"/><path class="cls-1" d="M1126.3,555c-6-2-12.64-6.7-20.85-10.05a14,14,0,0,0-2.68-.67c-8.77-1.56-22.75,3-22.75,3s-18.09-5.68-26.3-2.33-14.85,8-20.84,10.05c-5.62,1.9-24.6-.89-31.14-4.77.18.16,1.4,1.29,3.38,3,5.16,4.46,14.89,12.51,21.62,16.06a18.94,18.94,0,0,0,3.76,1.61c8.28,2.12,45-5.73,50-6.77,0,0,0,0,0,0h0l.09,0c.8-.08.35,0,0,0,7.13,1.24,40.31,8.74,48.05,6.76,6.21-1.58,19.16-12.29,25.39-17.67,2-1.71,3.19-2.83,3.38-3C1150.89,554.09,1131.91,556.87,1126.3,555Z"/><path class="cls-1" d="M1032.79,975.73l51.45,3.95L1048.32,908l-19.66,43.37-175.9-68h0l-14.44-5.57c4.69,2.83,23.86,15.8,21.64,17.48-5.09,3.84-7.57,10.94-13.05,12.54-.12,0-.24.09-.37.12Z"/><polygon class="cls-1" points="1214.28 789.99 1216.74 825.61 1218.1 826.19 1244.45 837.59 1295.08 821.15 1214.6 790.11 1214.28 789.99 1214.28 789.99"/><polygon class="cls-1" points="1091.74 975.73 1146.44 975.73 1359.82 896.94 1337.58 878.01 1333.36 879.66 1150.51 951.35 1131.14 907.98 1091.74 975.73"/><path class="cls-1" d="M1401.33,1200.16c6.28-60.65,20.91-106.67,20.91-106.67s-37.64,50.2-43.92,87.85-14.63,223.17-14.64,223.49v0h96.23v0C1459.74,1404.52,1395.06,1260.74,1401.33,1200.16Z"/><path class="cls-1" d="M842.48,1178.82c-27.69-39.74-122.25-145.91-127.84-165.52S774.7,929.08,846.54,908c.13,0,.25-.08.37-.12,5.48-1.6,8-8.7,13.05-12.54,2.22-1.68-17-14.65-21.64-17.48a5.49,5.49,0,0,0-1.05-.57l-.18.09C760.26,914.19,676,963.7,665.82,1014l-.25-.06-.37,2.73a36,36,0,0,0-.57,4.25l-38.25,285.91-6.73,50.3-6.46,48.29-.12.91H831.25l0-.91v-.54l0-1.58c.16.64.3,1.19.41,1.58s.09.38.13.54.14.52.14.52h85.08l-.11-.52c0-.13-.09-.37-.12-.54C913.75,1391,876.91,1228.26,842.48,1178.82ZM712,1305.66c-30.19-48.89-17.16-208.63-12.95-252.08,3,.53,6.15,1,9.64,1.26,20.77,1.82,46.63,24.56,53.84,34.39,16.76,22.83,30.46,89.61,39.23,156.43,6.85,52.15,15.52,96.19,21.81,124.82C801.36,1366.47,740.41,1351.6,712,1305.66Z"/><path class="cls-4" d="M1325.83,830.79c7.51,7.52,18.22,23.49,23.59,35.17,1.91,4.15,3.1,6.88,3.1,6.88l-4.61-59-10.19-2.61L1222.2,781.52s8.11,3.4,19.78,8.43C1270,802,1318.63,823.59,1325.83,830.79Z"/><path class="cls-4" d="M1484.36,970.75c-16.38-12.11-48.67-30.78-76.47-50.22a653.56,653.56,0,0,0-59.1-36.42c-1.89-1-2.93-1.62-2.93-1.62a2.53,2.53,0,0,1,.3.28c5.9,6.16,99.71,104,134.26,146.78,35.67,44.17,71.32,207.25,71.32,207.25a162.64,162.64,0,0,1-5.63-23.77c-10.34-61.22-38.4-220.74-52.1-234.44A95.74,95.74,0,0,0,1484.36,970.75Z"/><path class="cls-9" d="M1792.94,492.48H1518.42V673.07h616.85V492.48H1792.94ZM1859.45,626H1602.64V602.84h256.81ZM2015,626H1906.24V602.84H2015Zm1.28-73.72v23.13H1602.64V552.24Z"/><polygon class="cls-9" points="1792.94 727.47 1613.8 727.47 1512.61 727.47 1512.61 781.19 1585.21 781.19 1792.94 781.19 1839.23 781.19 1839.59 781.19 1839.59 727.47 1839.23 727.47 1792.94 727.47"/><rect class="cls-9" x="1880.76" y="727.47" width="83.91" height="53.72"/><rect class="cls-9" x="2008.95" y="727.47" width="126.93" height="53.72"/><polygon class="cls-4" points="443.52 749.91 443.52 908.2 319.19 908.2 319.19 998.62 347.62 1027.04 347.62 1035.22 313.41 1001.01 313.41 902.42 437.74 902.42 437.74 755.69 305.12 755.69 305.12 632.24 347.62 589.74 347.62 594.05 347.62 597.91 310.91 634.64 310.91 749.91 443.52 749.91"/><rect class="cls-4" x="1602.64" y="552.24" width="413.65" height="23.12"/><rect class="cls-4" x="1602.64" y="602.84" width="256.81" height="23.13"/><rect class="cls-4" x="1906.24" y="602.84" width="108.77" height="23.13"/><circle class="cls-1" cx="913.48" cy="524.92" r="8.22"/><path class="cls-12" d="M1250.41,446.84l-7.48,10.3A100.79,100.79,0,0,1,1250.41,446.84Z"/><path class="cls-4" d="M1250.44,446.8l0,0-7.49,10.3s-7.73-91-13.13-130.16c-.71-5.14-1.38-9.43-2-12.46-5.22-26.11-60-65.27-60-65.27,1.1-.37,2.86-.09,4.94.55,4.84,1.46,11.94,5.34,20,10.66,21.32,14.16,48.65,38.17,54.3,52.32C1255.65,334.54,1250.44,446.8,1250.44,446.8Z"/><path class="cls-5" d="M1152.45,240.27a25.14,25.14,0,0,1-5.26,13.33l-.38.48c-12,15.88-18.12,50.9-18.12,50.9s21.3-4,44.11,7.71l-.12-.07s2.59,1.31,13.93,0l11.35-1.31,7.65,17.5V309.12l14.77-2.74,9.29,32.82.11-12.22c-.71-5.14-1.38-9.43-2-12.46-5.23-26.11-60-65.27-60-65.27,1.1-.37,2.85-.09,4.94.54-.82-.32-1.64-.62-2.44-.89a1.75,1.75,0,0,1-.28-3.19c8.65-4.69,18.49-9.24,26.56-12.77,9.18-4,16-6.71,16-6.71s-13.72-6.08-30.8,1.36a35.46,35.46,0,0,0-8.52,5.35,40.68,40.68,0,0,0-8.6,9.83,8.09,8.09,0,0,1-6.94,3.71h-.07a1.15,1.15,0,0,1-1-1.79c2.66-3.87,5.64-7.87,8.65-11.75,10.43-13.45,21.35-25.46,21.35-25.46s-17.79-3-28.1,13.68a40.69,40.69,0,0,0-4.85,11.78A49.61,49.61,0,0,0,1152.45,240.27Z"/><path class="cls-1" d="M1192.37,336c7.47,17,10.24,37.79,13.1,48.74,0,.12.06.26.09.37.11.44.34.8.48,1.22,0,.15.11.27.16.41,5.39,16,23.53,22.62,23.53,22.62s-3.82,22.3-3.27,28.94S1243,457.14,1243,457.14s-7.73-91-13.13-130.16l-.11,12.22-9.29-32.82-14.77,2.74v19.69l-7.65-17.5-11.35,1.31c-11.34,1.31-13.93,0-13.93,0l.12.07C1181.73,317.08,1187.89,325.82,1192.37,336Z"/><path class="cls-15" d="M1250.42,446.84l-7.49,10.3A102,102,0,0,1,1250.42,446.84Z"/><path class="cls-1" d="M1206.09,659.27c0,2.18-.13,4.93-.33,8-3.3,1.19-6.57,2.3-9.77,3.24l-12.37,16.84V673.66c-38.83,8.83-69,3.78-71.47,3.32l.34,0c23.88-5,48.72-15.61,70.77-27.37-4-14.1-17.39-58.63-31.76-85.76a16,16,0,0,0-15.5-8.41c-4.14.32-7.74.23-9.71-.43-6-2-12.63-6.7-20.84-10.05a11.19,11.19,0,0,0-2.68-.67c-8.77-1.56-22.75,3-22.75,3s-18.09-5.68-26.3-2.33-14.85,8-20.85,10.05c-1.84.62-5.11.74-8.91.48a10.61,10.61,0,0,0-10.49,6.54c-10.83,26.16-26.78,69.32-32.44,84.75-5.63-3.06-11.17-6.24-16.43-9.46,12.6-35.44,30.41-74.33,35.58-85.43a10.28,10.28,0,0,1,4.65-4.35c8.07-4.58,16.67-7,23.37-9.31.81-.28,3.77-1.7,7.86-3.46,12.48-5.36,35.31-14.69,37.78-12.49,1.9,1.68,4.14,5.55,5.75,8.57,1.6-3,3.84-6.89,5.74-8.57,1.07-1,6,.27,12.17,2.38,12.84,4.36,31.34,12.58,33.47,13.57,2.74,1.27,21.45,4.82,26.26,7.2l.28.15.84.76c7.13,6.54,27.4,55.34,41,94l-.62.57,2.71-1.6c0,.09,0,.2.08.29S1206.12,645.76,1206.09,659.27Z"/><path class="cls-16" d="M1157.51,545.54l-.28-.15h.11Z"/><polygon class="cls-1" points="1352.52 872 1368.78 893.54 1359.82 896.94 1334.4 901.76 1336.62 878.38 1352.52 872"/></g></svg>