<svg width="22" height="14" viewBox="0 0 22 14" fill="none" xmlns="http://www.w3.org/2000/svg">
<path d="M6.49935 0.875C7.09435 0.875 7.64465 0.921875 8.14747 1.06062C8.60374 1.14504 9.03927 1.31828 9.42965 1.57062C9.79652 1.80219 10.0712 2.1275 10.2537 2.54468C10.4371 2.96187 10.5284 3.47281 10.5284 4.02874C10.5284 4.67843 10.3915 5.23437 10.0712 5.65155C9.79652 6.06968 9.3384 6.43999 8.78903 6.71843C9.56746 6.95093 10.1625 7.36811 10.5284 7.92405C10.8953 8.48092 11.1243 9.17655 11.1243 9.96498C11.1243 10.6147 10.9865 11.1706 10.7575 11.6347C10.5284 12.0987 10.1625 12.5159 9.74996 12.7944C9.30189 13.0928 8.80657 13.3122 8.28528 13.4431C7.7359 13.5828 7.18653 13.6756 6.63716 13.6756H0.5V0.875H6.49935ZM6.13248 6.06874C6.63622 6.06874 7.04872 5.92999 7.36903 5.69843C7.68935 5.46687 7.82716 5.04874 7.82716 4.53874C7.82716 4.26031 7.7806 3.98187 7.68935 3.79718C7.59809 3.61156 7.46029 3.47187 7.27778 3.33312C7.09435 3.24031 6.91091 3.1475 6.68185 3.10156C6.45279 3.05468 6.22466 3.05468 5.94904 3.05468H3.29343V6.06968H6.13341L6.13248 6.06874ZM6.27029 11.5419C6.54497 11.5419 6.81966 11.495 7.04872 11.449C7.27999 11.4048 7.49872 11.3097 7.68935 11.1706C7.87593 11.0349 8.03203 10.8611 8.14747 10.6606C8.23872 10.429 8.3309 10.1506 8.3309 9.82623C8.3309 9.17655 8.14747 8.71248 7.78153 8.38811C7.41466 8.10967 6.91091 7.97092 6.31591 7.97092H3.29343V11.5428H6.27029V11.5419ZM15.1087 11.495C15.4746 11.8662 16.024 12.0519 16.7568 12.0519C17.2606 12.0519 17.7187 11.9131 18.0846 11.6815C18.4515 11.4031 18.6805 11.1247 18.7718 10.8462H21.0159C20.649 11.959 20.0996 12.7475 19.3677 13.2575C18.634 13.7215 17.7643 14 16.7112 14C16.0374 14.002 15.3692 13.8761 14.7418 13.6287C14.1773 13.4155 13.6738 13.0651 13.2762 12.6087C12.8509 12.1818 12.5366 11.656 12.3609 11.0778C12.1318 10.475 12.0396 9.82623 12.0396 9.08373C12.0396 8.38811 12.1318 7.73936 12.3609 7.13561C12.5811 6.55445 12.907 6.01969 13.3218 5.55874C13.7343 5.14155 14.2381 4.77124 14.7874 4.53874C15.3989 4.2913 16.0522 4.16524 16.7112 4.16749C17.4896 4.16749 18.1768 4.30718 18.7718 4.63156C19.3677 4.95593 19.8249 5.32718 20.1918 5.88405C20.566 6.41892 20.8449 7.01534 21.0159 7.64655C21.1071 8.2953 21.1527 8.94498 21.1071 9.68655H14.4671C14.4671 10.429 14.7418 11.1247 15.1087 11.4959V11.495ZM17.9934 6.62561C17.673 6.30124 17.1693 6.11561 16.5734 6.11561C16.1618 6.11561 15.8406 6.20843 15.5659 6.34718C15.2912 6.48686 15.1087 6.67249 14.9253 6.85811C14.7567 7.03742 14.6451 7.26332 14.6049 7.50686C14.5584 7.73936 14.5128 7.92405 14.5128 8.10967H18.634C18.5427 7.41405 18.3137 6.95093 17.9934 6.62561ZM13.9634 1.75625H19.0921V3.00875H13.9643V1.75625H13.9634Z" fill="#F5F5F6"/>
</svg>
