<svg width="115" height="116" viewBox="0 0 115 116" fill="none" xmlns="http://www.w3.org/2000/svg">
<g clip-path="url(#clip0)">
<path d="M70.615 78.0337C69.3886 78.0337 68.3931 79.0442 68.3931 80.289C68.3931 81.5338 69.3886 82.5443 70.615 82.5443C71.8415 82.5443 72.837 81.5338 72.837 80.289C72.837 79.0442 71.8415 78.0337 70.615 78.0337Z" fill="#595C64"/>
<path d="M103.056 -0.788086H11.5103C5.38422 -0.788086 0.400391 4.2705 0.400391 10.4884V79.5008C0.400391 85.7188 5.38422 90.7774 11.5103 90.7774H46.1731V101.152H43.9512C40.9845 101.152 38.1957 102.325 36.0961 104.455C33.9974 106.587 32.8413 109.417 32.8413 112.428C32.8413 113.674 33.8359 114.684 35.0632 114.684H79.5028C80.7301 114.684 81.7248 113.674 81.7248 112.428C81.7248 106.21 76.741 101.152 70.6149 101.152H68.3929V90.7774H103.056C109.182 90.7774 114.166 85.7188 114.166 79.5008V10.4884C114.166 4.2705 109.182 -0.788086 103.056 -0.788086ZM11.5103 3.72253H103.056C106.732 3.72253 109.722 6.7575 109.722 10.4884V68.2243H99.5006V16.3522C99.5006 15.1065 98.5059 14.0969 97.2786 14.0969H79.5028C78.2755 14.0969 77.2808 15.1065 77.2808 16.3522V68.2243H66.1588C66.1353 65.8915 66.0755 63.5921 65.98 61.3615C65.5911 52.1764 64.7049 46.0236 64.2441 43.3173C68.8286 39.8911 70.0802 33.541 67.2776 28.6075L59.5762 15.0687C59.1786 14.3709 58.4452 13.941 57.6519 13.941C56.8577 13.941 56.1243 14.3709 55.7276 15.0687L48.0228 28.6084C45.3807 33.26 46.3172 39.285 50.4678 42.8407C49.9869 45.5391 49.0166 51.9121 48.5947 61.3571C48.4949 63.6115 48.4316 65.9126 48.4073 68.2243H37.2852V34.3947C37.2852 34.037 37.2019 33.7111 37.0656 33.4212C37.0596 33.4098 37.0561 33.3974 37.0509 33.386L28.163 15.3435C27.7863 14.5797 27.0173 14.0969 26.1753 14.0969C25.3334 14.0969 24.5644 14.5797 24.1877 15.3435L15.2998 33.386C15.2946 33.3974 15.2911 33.4098 15.2859 33.4212C15.147 33.7137 15.0654 34.045 15.0654 34.3947V68.2243H4.84435V10.4884C4.84435 6.7575 7.83447 3.72253 11.5103 3.72253ZM81.7248 68.2243V18.6076H95.0566V23.1182H92.8347C91.6074 23.1182 90.6127 24.1278 90.6127 25.3735C90.6127 26.6192 91.6074 27.6288 92.8347 27.6288H95.0566V34.3947H92.8347C91.6074 34.3947 90.6127 35.4043 90.6127 36.65C90.6127 37.8957 91.6074 38.9053 92.8347 38.9053H95.0566V45.6712H92.8347C91.6074 45.6712 90.6127 46.6808 90.6127 47.9265C90.6127 49.1722 91.6074 50.1819 92.8347 50.1819H95.0566V59.2031H92.8347C91.6074 59.2031 90.6127 60.2127 90.6127 61.4584C90.6127 62.7041 91.6074 63.7137 92.8347 63.7137H95.0566V68.2243H81.7248ZM57.6519 45.5153C58.4591 45.5153 59.2628 45.421 60.0492 45.2448C60.4615 47.9274 61.0673 52.6741 61.4258 59.2031H53.155C53.5308 52.6785 54.1653 47.8578 54.6036 45.0845C55.5879 45.3691 56.613 45.5153 57.6519 45.5153ZM57.6519 41.0047C52.5735 41.0047 49.2987 35.3946 51.8722 30.8629L57.6519 20.7069L63.4282 30.862C65.9921 35.3752 62.7625 41.0047 57.6519 41.0047ZM52.951 63.7137H61.6211C61.668 65.1955 61.7001 66.7029 61.7157 68.2243H52.8512C52.8677 66.7125 52.9016 65.2052 52.951 63.7137ZM28.3973 68.2243V36.65H32.8413V68.2243H28.3973ZM19.5094 68.2243V36.65H23.9534V68.2243H19.5094ZM20.8825 32.1394L26.1753 21.395L31.4682 32.1394H20.8825ZM76.8998 110.173H37.6637C37.99 109.233 38.5229 108.371 39.2381 107.645C40.4984 106.366 42.1718 105.662 43.9512 105.662H70.6149C73.5121 105.662 75.9832 107.548 76.8998 110.173ZM63.949 101.152H50.6171V90.7774H63.949V101.152ZM103.056 86.2668H11.5103C7.83447 86.2668 4.84435 83.2318 4.84435 79.5008V72.7349H109.722V79.5008C109.722 83.2318 106.732 86.2668 103.056 86.2668Z" fill="#595C64"/>
<path d="M61.7272 78.0337H48.3953C47.168 78.0337 46.1733 79.0433 46.1733 80.289C46.1733 81.5347 47.168 82.5443 48.3953 82.5443H61.7272C62.9545 82.5443 63.9492 81.5347 63.9492 80.289C63.9492 79.0433 62.9545 78.0337 61.7272 78.0337Z" fill="#595C64"/>
</g>
<defs>
<clipPath id="clip0">
<rect width="113.765" height="115.472" fill="white" transform="translate(0.400391)"/>
</clipPath>
</defs>
</svg>
