<svg width="585" height="585" viewBox="0 0 585 585" fill="none" xmlns="http://www.w3.org/2000/svg">
<g filter="url(#filter0_i)">
<path d="M516.401 347.9C514.932 347.901 513.489 347.508 512.216 346.76L498.109 338.464C497.712 338.23 497.382 337.894 497.152 337.49C496.923 337.085 496.802 336.626 496.802 336.159C496.802 335.692 496.923 335.233 497.152 334.829C497.382 334.424 497.712 334.088 498.109 333.855L512.217 325.561C513.49 324.814 514.933 324.421 516.402 324.421C517.871 324.421 519.314 324.814 520.587 325.561L534.693 333.856C535.091 334.089 535.421 334.425 535.65 334.83C535.879 335.234 536 335.693 536 336.16C536 336.628 535.879 337.087 535.65 337.491C535.421 337.896 535.091 338.232 534.693 338.465L520.584 346.76C519.312 347.508 517.87 347.9 516.401 347.9V347.9ZM516.401 326.698C515.326 326.697 514.269 326.984 513.337 327.53L499.228 335.827C499.171 335.861 499.123 335.909 499.091 335.967C499.058 336.025 499.04 336.091 499.04 336.158C499.04 336.225 499.058 336.291 499.091 336.349C499.123 336.407 499.171 336.456 499.228 336.489L513.335 344.785C514.267 345.331 515.324 345.619 516.4 345.619C517.476 345.619 518.533 345.331 519.465 344.785L533.575 336.493C533.632 336.459 533.679 336.411 533.712 336.352C533.745 336.294 533.762 336.228 533.762 336.161C533.762 336.094 533.745 336.028 533.712 335.97C533.679 335.912 533.632 335.863 533.575 335.829L519.468 327.533C518.535 326.985 517.477 326.697 516.4 326.698H516.401Z" fill="var(--main-color)"/>
<path d="M449.912 386.057C447.527 386.059 445.183 385.421 443.116 384.208V384.208L418.837 369.934C418.276 369.604 417.81 369.13 417.486 368.559C417.162 367.988 416.992 367.34 416.992 366.68C416.992 366.02 417.162 365.372 417.486 364.801C417.81 364.23 418.276 363.755 418.837 363.425L443.115 349.152C445.183 347.941 447.527 347.303 449.912 347.303C452.298 347.303 454.642 347.941 456.71 349.152L480.988 363.425C481.549 363.755 482.015 364.23 482.339 364.801C482.662 365.372 482.833 366.02 482.833 366.68C482.833 367.34 482.662 367.988 482.339 368.559C482.015 369.13 481.549 369.604 480.988 369.934L456.71 384.208C454.643 385.421 452.298 386.059 449.912 386.057V386.057ZM444.234 382.234C445.962 383.246 447.92 383.778 449.913 383.778C451.906 383.778 453.864 383.246 455.592 382.234L479.87 367.961C480.091 367.831 480.274 367.644 480.401 367.419C480.529 367.194 480.596 366.938 480.596 366.679C480.596 366.419 480.529 366.164 480.401 365.939C480.274 365.714 480.091 365.527 479.87 365.396L455.592 351.123C453.864 350.111 451.906 349.579 449.912 349.579C447.919 349.579 445.961 350.111 444.232 351.123L419.954 365.396C419.734 365.527 419.551 365.714 419.423 365.939C419.296 366.164 419.229 366.419 419.229 366.679C419.229 366.938 419.296 367.194 419.423 367.419C419.551 367.644 419.734 367.831 419.954 367.961L444.234 382.234Z" fill="var(--main-color)"/>
<path d="M82.9216 345.125C80.5352 345.128 78.1904 344.49 76.1229 343.276L51.8449 329.003C51.284 328.673 50.8182 328.199 50.4944 327.627C50.1705 327.056 50 326.408 50 325.748C50 325.089 50.1705 324.441 50.4944 323.869C50.8182 323.298 51.284 322.824 51.8449 322.494L76.1217 308.221C78.1899 307.009 80.534 306.372 82.9199 306.372C85.3057 306.372 87.6498 307.009 89.718 308.221L113.996 322.494C114.557 322.824 115.023 323.298 115.347 323.869C115.67 324.441 115.841 325.089 115.841 325.748C115.841 326.408 115.67 327.056 115.347 327.627C115.023 328.199 114.557 328.673 113.996 329.003L89.7192 343.276C87.652 344.489 85.3076 345.127 82.9216 345.125ZM82.9216 308.642C80.9279 308.641 78.9691 309.174 77.2416 310.188L52.9648 324.461C52.7439 324.591 52.5604 324.778 52.4329 325.003C52.3053 325.228 52.2382 325.483 52.2382 325.743C52.2382 326.003 52.3053 326.258 52.4329 326.483C52.5604 326.708 52.7439 326.895 52.9648 327.025L77.2428 341.298C78.9706 342.31 80.929 342.843 82.9222 342.843C84.9154 342.843 86.8738 342.31 88.6016 341.298L112.878 327.025C113.1 326.895 113.283 326.708 113.411 326.483C113.539 326.258 113.606 326.003 113.606 325.743C113.606 325.483 113.539 325.228 113.411 325.003C113.283 324.778 113.1 324.591 112.878 324.461L88.6005 310.188C86.873 309.174 84.9141 308.641 82.9204 308.642H82.9216Z" fill="var(--main-color)"/>
<path d="M159.745 255.59C156.449 255.593 153.21 254.711 150.354 253.034V253.034L115.978 232.821C115.255 232.396 114.655 231.784 114.237 231.047C113.82 230.311 113.6 229.475 113.6 228.624C113.6 227.774 113.82 226.938 114.237 226.202C114.655 225.465 115.255 224.853 115.978 224.427L150.353 204.216C153.21 202.542 156.448 201.661 159.744 201.661C163.04 201.661 166.278 202.542 169.135 204.216L203.506 224.427C204.23 224.853 204.83 225.465 205.248 226.202C205.666 226.938 205.885 227.774 205.885 228.625C205.885 229.476 205.666 230.312 205.248 231.048C204.83 231.785 204.23 232.397 203.506 232.823L169.136 253.034C166.281 254.711 163.042 255.593 159.745 255.59V255.59ZM151.479 251.062C153.995 252.536 156.848 253.311 159.751 253.311C162.654 253.311 165.507 252.536 168.024 251.062L202.393 230.851C202.776 230.625 203.094 230.3 203.316 229.91C203.537 229.519 203.653 229.076 203.653 228.626C203.653 228.175 203.537 227.732 203.316 227.341C203.094 226.951 202.776 226.627 202.393 226.401L168.017 206.191C165.5 204.717 162.647 203.941 159.744 203.941C156.841 203.941 153.988 204.717 151.472 206.191L117.102 226.401C116.718 226.626 116.4 226.95 116.179 227.341C115.957 227.731 115.841 228.174 115.841 228.625C115.841 229.076 115.957 229.519 116.179 229.909C116.4 230.3 116.718 230.624 117.102 230.849L151.479 251.062Z" fill="var(--main-color)"/>
<path opacity="0.6" d="M237.085 431.289L137.048 372.4C132.186 369.546 132.795 364.55 138.41 361.245L352.503 235.343C358.117 232.041 366.61 231.683 371.472 234.542L471.509 293.431C476.372 296.286 475.762 301.282 470.147 304.586L256.055 430.488C250.44 433.789 241.948 434.148 237.085 431.289Z" fill="#030830"/>
<path d="M466.353 266.007L466.47 266.15L371.82 210.428C366.992 207.59 358.56 207.946 352.985 211.224L140.941 335.92L133.87 333.17L135.856 343.28H135.865C136.129 344.8 137.174 346.223 139.048 347.324L236.733 404.829C241.561 407.668 249.993 407.313 255.568 404.034L468.151 279.023C470.774 277.476 472.282 275.565 472.656 273.67L472.668 273.684L474.697 263.85L466.353 266.007Z" fill="url(#paint0_radial)"/>
<path d="M237.085 395.93L137.048 337.042C132.186 334.187 132.795 329.191 138.41 325.886L352.503 199.985C358.117 196.683 366.61 196.324 371.472 199.183L471.509 258.073C476.372 260.927 475.762 265.923 470.147 269.227L256.055 395.129C250.44 398.43 241.948 398.79 237.085 395.93Z" fill="#717CB4"/>
<path d="M237.214 389.354L145.055 335.112C140.304 332.318 140.9 327.439 146.386 324.212L352.567 202.934C358.056 199.709 366.347 199.358 371.102 202.152L464.008 256.83C468.758 259.624 468.162 264.504 462.676 267.73L255.748 388.571C250.263 391.798 241.965 392.148 237.214 389.354Z" fill="url(#paint1_radial)"/>
<path d="M237.214 389.354L145.055 335.112C140.304 332.318 140.9 327.439 146.386 324.212L352.567 202.934C358.056 199.709 366.347 199.358 371.102 202.152L464.008 256.83C468.758 259.624 468.162 264.504 462.676 267.73L255.748 388.571C250.263 391.798 241.965 392.148 237.214 389.354Z" fill="#3B395B"/>
<path d="M408.455 224.134L404.867 226.246C402.088 227.88 401.785 230.353 404.193 231.768L405.884 232.763C408.291 234.178 412.496 234.001 415.277 232.367L418.861 230.259L408.455 224.134Z" fill="#202235"/>
<path d="M248.03 319.91L291.953 345.803C297.26 348.896 306.506 348.474 312.608 344.852C318.708 341.233 319.354 335.793 314.048 332.698L270.125 306.809C264.82 303.717 255.573 304.14 249.471 307.761C243.37 311.374 242.724 316.816 248.03 319.91Z" fill="#F6F6FA"/>
<path d="M264.459 318.236L258.3 314.614C257.386 314.076 257.5 313.137 258.557 312.516C259.608 311.894 261.21 311.827 262.125 312.365L268.284 315.987C269.198 316.525 269.084 317.464 268.028 318.085C266.972 318.704 265.374 318.772 264.459 318.236Z" fill="#717CB4"/>
<path d="M287.368 331.705L270.919 322.032C270.003 321.494 270.119 320.554 271.174 319.934C272.225 319.313 273.829 319.245 274.743 319.782L291.192 329.456C292.107 329.994 291.992 330.933 290.935 331.554C289.88 332.175 288.282 332.243 287.368 331.705Z" fill="#717CB4"/>
<path d="M299.844 339.042L293.867 335.527C292.953 334.989 293.067 334.05 294.124 333.429C295.175 332.808 296.777 332.74 297.693 333.278L303.669 336.793C304.583 337.33 304.469 338.27 303.412 338.891C302.355 339.513 300.759 339.579 299.844 339.042Z" fill="#717CB4"/>
<path d="M261.95 286.216L327.282 325.025C332.588 328.118 341.835 327.695 347.936 324.073C354.037 320.456 354.683 315.016 349.376 311.921L284.044 273.111C278.739 270.019 269.492 270.441 263.391 274.063C257.292 277.677 256.647 283.121 261.95 286.216Z" fill="#F6F6FA"/>
<path d="M290.109 291.496C289.134 290.923 287.554 290.923 286.579 291.496L284.841 292.526C283.867 293.099 283.867 294.028 284.841 294.602C285.815 295.175 287.396 295.175 288.372 294.602L290.109 293.572C291.083 292.998 291.083 292.068 290.109 291.496Z" fill="#717CB4"/>
<path d="M306.61 290.696C305.634 290.124 304.055 290.123 303.081 290.696L292.405 296.974C291.43 297.547 291.43 298.477 292.405 299.049C293.38 299.622 294.959 299.623 295.934 299.049L306.61 292.772C307.585 292.198 307.585 291.269 306.61 290.696Z" fill="#717CB4"/>
<path d="M339.514 315.82C338.54 315.247 336.96 315.247 335.985 315.82L330.218 319.211C329.244 319.784 329.244 320.713 330.218 321.287C331.192 321.86 332.773 321.859 333.747 321.287L339.514 317.896C340.489 317.322 340.489 316.393 339.514 315.82Z" fill="#717CB4"/>
<path d="M331.231 311.797C330.257 311.223 328.676 311.223 327.702 311.797L322.656 314.77C321.681 315.342 321.681 316.273 322.656 316.846C323.632 317.419 325.211 317.418 326.185 316.846L331.231 313.872C332.206 313.299 332.206 312.37 331.231 311.797Z" fill="#717CB4"/>
<path d="M329.302 304.039C328.327 303.466 326.747 303.466 325.772 304.039L315.096 310.317C314.122 310.889 314.122 311.82 315.096 312.393C316.07 312.966 317.651 312.965 318.626 312.393L329.302 306.114C330.276 305.54 330.276 304.612 329.302 304.039Z" fill="#717CB4"/>
<path d="M319.472 300.922C318.499 300.349 316.919 300.349 315.943 300.922L307.53 305.87C306.556 306.442 306.556 307.372 307.53 307.944C308.504 308.516 310.085 308.518 311.059 307.944L319.467 302.998C320.453 302.424 320.453 301.495 319.472 300.922Z" fill="#717CB4"/>
<path d="M308.545 298.454C307.571 297.881 305.99 297.881 305.016 298.454L299.97 301.428C298.996 302 298.996 302.93 299.97 303.502C300.944 304.074 302.525 304.075 303.499 303.502L308.545 300.536C309.52 299.956 309.52 299.027 308.545 298.454Z" fill="#717CB4"/>
<path d="M291.932 263.403L321.685 280.871C326.991 283.963 336.237 283.541 342.339 279.919C348.441 276.301 349.085 270.86 343.779 267.765L314.026 250.306C308.72 247.214 299.474 247.636 293.372 251.258C287.27 254.872 286.626 260.311 291.932 263.403Z" fill="#202235"/>
<path d="M470.146 266.582L256.053 392.483C250.439 395.785 241.946 396.143 237.084 393.284L137.045 334.395C135.39 333.421 134.418 332.19 134.009 330.872C133.366 333.149 134.308 335.432 137.045 337.041L237.084 395.93C241.946 398.784 250.439 398.427 256.053 395.129L470.146 269.231C473.847 267.054 475.323 264.151 474.541 261.599C474.039 263.368 472.603 265.137 470.146 266.582Z" fill="#F6F6FA"/>
<path d="M183.825 296.375L239.169 328.763C244.476 331.855 253.722 331.433 259.823 327.811C265.925 324.193 266.57 318.752 261.265 315.657L205.919 283.269C200.614 280.177 191.367 280.599 185.265 284.221C179.154 287.839 178.513 293.281 183.825 296.375Z" fill="#7E87BB"/>
<g opacity="0.6">
<path opacity="0.6" d="M183.825 327.223L239.169 359.611C244.476 362.704 253.722 362.281 259.823 358.659C265.925 355.041 266.57 349.601 261.265 346.507L205.919 314.118C200.614 311.025 191.367 311.448 185.265 315.07C179.154 318.688 178.513 324.13 183.825 327.223Z" fill="#030830"/>
</g>
<path d="M221.835 307.598L205.386 297.926C204.471 297.387 204.586 296.447 205.642 295.826C206.693 295.205 208.296 295.137 209.21 295.676L225.659 305.349C226.574 305.887 226.459 306.826 225.404 307.447C224.349 308.07 222.749 308.136 221.835 307.598Z" fill="#202235"/>
<path d="M234.311 314.935L228.335 311.421C227.42 310.883 227.535 309.943 228.59 309.322C229.641 308.701 231.245 308.633 232.159 309.172L238.136 312.686C239.05 313.225 238.936 314.163 237.88 314.785C236.823 315.406 235.226 315.474 234.311 314.935Z" fill="#202235"/>
<path d="M304.863 259.953L299.959 257.066C299.044 256.529 299.159 255.589 300.214 254.968C301.265 254.347 302.869 254.279 303.783 254.817L308.687 257.704C309.602 258.243 309.487 259.181 308.432 259.803C307.374 260.429 305.777 260.494 304.863 259.953Z" fill="#717CB4"/>
<path d="M323.964 271.189L311.02 263.576C310.106 263.039 310.22 262.099 311.276 261.478C312.327 260.857 313.931 260.79 314.845 261.327L327.789 268.94C328.703 269.477 328.589 270.417 327.532 271.038C326.476 271.659 324.879 271.729 323.964 271.189Z" fill="#717CB4"/>
<path d="M282.703 285.548C278.624 287.946 272.011 287.946 267.932 285.548C263.853 283.15 263.854 279.261 267.932 276.865C272.01 274.47 278.624 274.467 282.702 276.865C286.78 279.263 286.781 283.148 282.703 285.548Z" fill="#717CB4"/>
<path d="M270.831 280.913L274.821 278.566C275.513 278.158 276.689 278.328 276.978 278.884L278.713 282.251C279.014 282.834 278.088 283.379 277.097 283.203L271.375 282.182C270.433 282.014 270.138 281.32 270.831 280.913Z" fill="var(--main-color)"/>
<path d="M275.011 181.754L279.989 184.683C280.923 185.23 282.431 185.23 283.362 184.683C284.293 184.136 284.296 183.247 283.362 182.699L278.384 179.772C277.449 179.225 275.943 179.223 275.011 179.772C274.079 180.32 274.08 181.212 275.011 181.754Z" fill="var(--main-color)"/>
<path d="M267.943 185.91L281.996 194.177C282.93 194.724 284.438 194.724 285.368 194.177C286.299 193.629 286.303 192.741 285.368 192.193L271.316 183.926C270.381 183.379 268.874 183.379 267.943 183.926C267.012 184.473 267.011 185.363 267.943 185.91Z" fill="#7574AD"/>
<path d="M303.563 196.563C304.498 196.015 304.498 195.127 303.563 194.579L289.511 186.315C288.576 185.768 287.07 185.768 286.138 186.315C285.206 186.862 285.204 187.751 286.138 188.299L300.192 196.562C301.122 197.111 302.632 197.111 303.563 196.563Z" fill="#7574AD"/>
<path d="M314.564 201.048L313.737 200.563L309.746 198.221C308.812 197.674 307.304 197.673 306.373 198.221C305.441 198.769 305.438 199.657 306.373 200.205L310.365 202.552L311.191 203.038L315.183 205.385C316.117 205.933 317.625 205.933 318.556 205.385C319.486 204.837 319.49 203.951 318.556 203.402L314.564 201.048Z" fill="#8A85B8"/>
<path d="M342.207 387.904L362.503 399.839C363.671 400.528 365.573 400.528 366.744 399.839C367.915 399.15 367.912 398.035 366.744 397.341L346.447 385.405C345.279 384.716 343.377 384.716 342.207 385.405C341.037 386.093 341.036 387.215 342.207 387.904Z" fill="#8A85B8"/>
<path d="M333.319 390.635C332.151 391.324 332.151 392.441 333.319 393.133L364.541 411.49C365.709 412.177 367.611 412.178 368.782 411.49C369.953 410.801 369.95 409.684 368.782 408.992L337.561 390.632C336.389 389.946 334.49 389.946 333.319 390.635Z" fill="#7574AD"/>
<path d="M324.435 398.353L330.695 402.035C331.863 402.723 333.765 402.723 334.936 402.035C336.107 401.346 336.104 400.23 334.936 399.537L328.676 395.85C327.508 395.161 325.606 395.161 324.435 395.85C323.264 396.538 323.264 397.665 324.435 398.353Z" fill="#8A85B8"/>
<path d="M315.552 403.58L333.222 413.972C334.39 414.661 336.292 414.661 337.464 413.972C338.635 413.284 338.631 412.167 337.464 411.474L319.793 401.082C318.626 400.394 316.723 400.393 315.552 401.082C314.381 401.771 314.384 402.891 315.552 403.58Z" fill="var(--main-color)"/>
<path d="M360.338 416.974C361.506 416.285 361.506 415.168 360.338 414.476L342.667 404.084C341.499 403.395 339.598 403.395 338.426 404.084C337.255 404.773 337.259 405.89 338.426 406.582L356.097 416.972C357.268 417.662 359.167 417.662 360.338 416.974Z" fill="#8A85B8"/>
<path d="M374.171 422.615L373.132 422.005L368.111 419.053C366.943 418.364 365.041 418.363 363.87 419.053C362.698 419.742 362.702 420.857 363.87 421.55L368.891 424.503L369.929 425.114L374.951 428.066C376.118 428.755 378.021 428.755 379.192 428.066C380.363 427.378 380.36 426.261 379.192 425.568L374.171 422.615Z" fill="#7574AD"/>
<path d="M445.218 258.005L444.392 257.52L440.4 255.172C439.465 254.624 437.959 254.624 437.027 255.172C436.095 255.719 436.093 256.607 437.027 257.156L441.02 259.504L441.845 259.989L445.838 262.332C446.772 262.879 448.279 262.879 449.211 262.332C450.142 261.785 450.145 260.897 449.211 260.348L445.218 258.005Z" fill="#717CB4"/>
<path d="M370.204 213.727L369.379 213.241L365.387 210.893C364.453 210.346 362.945 210.346 362.013 210.893C361.082 211.44 361.079 212.33 362.013 212.877L366 215.23L366.826 215.715L370.818 218.063C371.753 218.611 373.26 218.61 374.191 218.063C375.122 217.516 375.125 216.627 374.191 216.079L370.204 213.727Z" fill="#717CB4"/>
<path d="M385.821 222.808L384.995 222.322L381.002 219.974C380.068 219.427 378.562 219.427 377.63 219.974C376.698 220.521 376.696 221.41 377.63 221.958L381.622 224.306L382.448 224.791L383.722 225.539C384.656 226.088 386.163 226.088 387.095 225.539C388.026 224.991 388.029 224.104 387.095 223.555L385.821 222.808Z" fill="#717CB4"/>
<path d="M359.148 247.758L367.06 243.106L365.064 242.425L366.318 241.685C367.661 242.082 368.675 242.26 369.36 242.222L370.645 242.977L360.836 248.747L359.148 247.758Z" fill="#F6F6FA"/>
<path d="M363.138 250.103L364.321 249.407L370.468 248.609C370.562 248.596 370.804 248.566 371.199 248.521C371.594 248.476 371.86 248.441 372.003 248.416C372.147 248.391 372.362 248.351 372.646 248.297C372.894 248.249 373.138 248.18 373.376 248.092C373.577 248.012 373.772 247.917 373.959 247.807C374.346 247.58 374.571 247.366 374.636 247.167C374.7 246.969 374.583 246.792 374.285 246.633C373.657 246.296 372.833 246.429 371.812 247.031L371.403 247.269L369.747 246.293L370.168 246.047C370.594 245.792 371.045 245.583 371.513 245.422C371.956 245.271 372.416 245.173 372.882 245.131C373.355 245.09 373.831 245.125 374.293 245.237C374.781 245.354 375.249 245.544 375.682 245.802C376.51 246.29 376.912 246.79 376.887 247.303C376.862 247.816 376.441 248.313 375.622 248.795C375.344 248.959 375.053 249.1 374.751 249.216C374.434 249.337 374.108 249.432 373.775 249.498C373.425 249.57 373.119 249.625 372.858 249.663C372.598 249.701 372.252 249.741 371.824 249.79L371.707 249.802L371.613 249.814L371.508 249.826L366.419 250.444L369.362 252.175L368.007 252.971L363.138 250.103Z" fill="#F6F6FA"/>
<path d="M370.382 253.208L371.974 252.272L373.571 253.212L371.979 254.148L370.382 253.208ZM374.387 250.853L375.986 249.913L377.583 250.853L375.984 251.793L374.387 250.853Z" fill="#F6F6FA"/>
<path d="M374.39 256.882C373.515 256.367 373.11 255.844 373.178 255.312C373.246 254.78 373.721 254.255 374.604 253.737L374.954 253.531L376.633 254.518L376.36 254.679C375.872 254.976 375.572 255.231 375.46 255.444C375.343 255.656 375.46 255.862 375.805 256.066C375.95 256.15 376.108 256.211 376.272 256.247C376.421 256.279 376.574 256.291 376.727 256.282C376.89 256.267 377.049 256.23 377.202 256.172C377.371 256.112 377.536 256.043 377.696 255.964C377.852 255.884 378.031 255.786 378.234 255.667C378.753 255.361 379.067 255.073 379.168 254.818C379.268 254.564 379.121 254.297 378.725 254.036C378.709 254.026 378.667 254.001 378.598 253.957L378.474 253.882L379.881 253.05C380.01 253.126 380.086 253.168 380.115 253.179C380.492 253.41 380.926 253.527 381.366 253.516C381.755 253.491 382.195 253.333 382.687 253.04C383.122 252.784 383.382 252.554 383.466 252.35C383.552 252.144 383.425 251.943 383.092 251.746C382.954 251.664 382.805 251.605 382.649 251.57C382.505 251.537 382.356 251.524 382.209 251.533C382.054 251.546 381.9 251.576 381.752 251.623C381.596 251.674 381.443 251.734 381.294 251.802C381.151 251.871 380.991 251.955 380.812 252.055L380.478 252.257L378.798 251.27L379.254 251.001C380.045 250.523 380.945 250.264 381.864 250.25C382.771 250.241 383.663 250.485 384.444 250.955C385.269 251.441 385.677 251.946 385.672 252.472C385.668 252.997 385.246 253.504 384.413 253.994C383.876 254.315 383.28 254.521 382.662 254.599C382.096 254.679 381.52 254.633 380.973 254.464C381.25 254.798 381.304 255.148 381.137 255.515C380.969 255.882 380.563 256.255 379.919 256.634C379.066 257.157 378.107 257.474 377.116 257.56C376.161 257.621 375.21 257.385 374.39 256.882V256.882Z" fill="#F6F6FA"/>
<path d="M383.061 261.062C382.125 261.116 381.194 260.888 380.384 260.407C379.567 259.923 379.189 259.398 379.275 258.835C379.36 258.271 379.832 257.735 380.699 257.224L385.02 254.688C385.856 254.179 386.799 253.88 387.771 253.817C388.712 253.764 389.647 253.998 390.457 254.488C391.3 254.985 391.678 255.511 391.591 256.068C391.5 256.622 391.007 257.162 390.121 257.688L385.806 260.224C384.971 260.725 384.029 261.012 383.061 261.062V261.062ZM381.83 259.559C382.398 259.894 383.163 259.777 384.126 259.21L388.386 256.704C388.512 256.63 388.619 256.562 388.721 256.495C388.822 256.428 388.916 256.356 389.016 256.276C389.103 256.21 389.178 256.13 389.238 256.038C389.285 255.966 389.318 255.885 389.336 255.8C389.344 255.759 389.343 255.716 389.333 255.675C389.323 255.634 389.304 255.595 389.278 255.562C389.204 255.468 389.112 255.39 389.007 255.333C388.863 255.248 388.704 255.191 388.54 255.165C388.381 255.137 388.219 255.132 388.059 255.151C387.893 255.173 387.73 255.212 387.573 255.27C387.418 255.325 387.267 255.389 387.119 255.461C386.989 255.527 386.844 255.606 386.685 255.699L382.425 258.205C381.46 258.773 381.262 259.224 381.83 259.559V259.559Z" fill="#F6F6FA"/>
<path d="M412.017 230.533C410.891 231.196 409.066 231.196 407.94 230.533C406.815 229.871 406.815 228.798 407.94 228.136C409.066 227.473 410.891 227.474 412.017 228.136C413.143 228.797 413.143 229.871 412.017 230.533Z" fill="#161623"/>
</g>
<defs>
<filter id="filter0_i" x="50" y="179.361" width="486" height="253.858" filterUnits="userSpaceOnUse" color-interpolation-filters="sRGB">
<feFlood flood-opacity="0" result="BackgroundImageFix"/>
<feBlend mode="normal" in="SourceGraphic" in2="BackgroundImageFix" result="shape"/>
<feColorMatrix in="SourceAlpha" type="matrix" values="0 0 0 0 0 0 0 0 0 0 0 0 0 0 0 0 0 0 127 0" result="hardAlpha"/>
<feOffset/>
<feGaussianBlur stdDeviation="14.5"/>
<feComposite in2="hardAlpha" operator="arithmetic" k2="-1" k3="1"/>
<feColorMatrix type="matrix" values="0 0 0 0 0 0 0 0 0 0 0 0 0 0 0 0 0 0 0.25 0"/>
<feBlend mode="normal" in2="shape" result="effect1_innerShadow"/>
</filter>
<radialGradient id="paint0_radial" cx="0" cy="0" r="1" gradientUnits="userSpaceOnUse" gradientTransform="translate(137.377 284.655) scale(334.478 340.687)">
<stop stop-color="#F6F6FA"/>
<stop offset="0.28" stop-color="#7574AD"/>
<stop offset="0.4" stop-color="#717CB4"/>
<stop offset="0.54" stop-color="#3B395B"/>
</radialGradient>
<radialGradient id="paint1_radial" cx="0" cy="0" r="1" gradientUnits="userSpaceOnUse" gradientTransform="translate(211.152 197.428) scale(277.361 282.511)">
<stop stop-color="#50418E"/>
<stop offset="1" stop-color="#3C3689"/>
</radialGradient>
</defs>
</svg>
