<svg width="585" height="585" viewBox="0 0 585 585" fill="none" xmlns="http://www.w3.org/2000/svg">
<g filter="url(#filter0_d)">
<path d="M525.062 428.245C523.664 428.246 522.29 427.875 521.078 427.167L507.649 419.29C507.271 419.068 506.956 418.75 506.738 418.366C506.519 417.981 506.404 417.546 506.404 417.102C506.404 416.658 506.519 416.223 506.738 415.839C506.956 415.454 507.271 415.136 507.649 414.914L521.078 407.037C522.29 406.33 523.663 405.957 525.061 405.957C526.459 405.957 527.832 406.33 529.044 407.037L542.474 414.914C542.852 415.136 543.167 415.454 543.385 415.839C543.604 416.223 543.719 416.658 543.719 417.102C543.719 417.546 543.604 417.981 543.385 418.366C543.167 418.75 542.852 419.068 542.474 419.29L529.046 427.167C527.834 427.875 526.46 428.247 525.062 428.245V428.245ZM525.062 408.116C524.037 408.115 523.031 408.388 522.144 408.907L508.715 416.784C508.661 416.816 508.616 416.861 508.585 416.917C508.553 416.972 508.537 417.034 508.537 417.098C508.537 417.162 508.553 417.224 508.585 417.279C508.616 417.334 508.661 417.38 508.715 417.412L522.143 425.286C523.031 425.805 524.037 426.078 525.061 426.078C526.085 426.078 527.091 425.805 527.979 425.286L541.408 417.41C541.462 417.378 541.507 417.332 541.538 417.277C541.569 417.221 541.585 417.159 541.585 417.095C541.585 417.032 541.569 416.969 541.538 416.914C541.507 416.859 541.462 416.813 541.408 416.781L527.978 408.905C527.09 408.387 526.085 408.115 525.062 408.116V408.116Z" fill="var(--main-color)"/>
<path d="M486.656 383.551C484.385 383.553 482.153 382.948 480.186 381.795L457.075 368.24C456.54 367.927 456.097 367.477 455.788 366.934C455.479 366.392 455.317 365.777 455.317 365.15C455.317 364.524 455.479 363.908 455.788 363.366C456.097 362.823 456.54 362.373 457.075 362.06L480.185 348.507C482.153 347.356 484.385 346.75 486.656 346.75C488.927 346.75 491.158 347.356 493.127 348.507L516.238 362.06C516.772 362.374 517.216 362.824 517.524 363.367C517.833 363.909 517.995 364.525 517.995 365.151C517.995 365.778 517.833 366.393 517.524 366.935C517.216 367.478 516.772 367.929 516.238 368.242L493.127 381.795C491.159 382.947 488.927 383.553 486.656 383.551ZM481.245 379.927C482.89 380.888 484.755 381.393 486.652 381.393C488.55 381.393 490.414 380.888 492.059 379.927L515.17 366.364C515.38 366.241 515.555 366.063 515.676 365.85C515.797 365.636 515.861 365.394 515.861 365.147C515.861 364.901 515.797 364.659 515.676 364.445C515.555 364.231 515.38 364.054 515.17 363.93L492.058 350.377C490.413 349.416 488.548 348.911 486.651 348.911C484.753 348.911 482.889 349.416 481.244 350.377L458.134 363.931C457.924 364.055 457.749 364.232 457.628 364.445C457.507 364.659 457.443 364.901 457.443 365.148C457.443 365.394 457.507 365.637 457.628 365.85C457.749 366.064 457.924 366.241 458.134 366.364L481.245 379.927Z" fill="var(--main-color)"/>
<path d="M73.3392 404.883C71.068 404.885 68.8363 404.28 66.8687 403.127L43.757 389.572C43.2228 389.259 42.7792 388.809 42.4708 388.267C42.1624 387.724 42 387.109 42 386.482C42 385.856 42.1624 385.24 42.4708 384.698C42.7792 384.155 43.2228 383.705 43.757 383.392L66.8678 369.838C68.8359 368.687 71.0672 368.081 73.3383 368.081C75.6094 368.081 77.8407 368.687 79.8087 369.838L102.92 383.393C103.455 383.706 103.899 384.156 104.207 384.698C104.516 385.241 104.678 385.856 104.678 386.483C104.678 387.109 104.516 387.725 104.207 388.267C103.899 388.809 103.455 389.26 102.92 389.572L79.8105 403.127C77.8425 404.279 75.6106 404.885 73.3392 404.883V404.883ZM73.3392 370.244C71.4415 370.243 69.5769 370.749 67.9324 371.711L44.8207 385.265C44.6105 385.388 44.4359 385.566 44.3146 385.78C44.1933 385.993 44.1294 386.236 44.1294 386.482C44.1294 386.729 44.1933 386.971 44.3146 387.185C44.4359 387.399 44.6105 387.576 44.8207 387.7L67.9315 401.254C69.5767 402.215 71.4412 402.72 73.3387 402.72C75.2363 402.72 77.1007 402.215 78.746 401.254L101.859 387.7C102.07 387.576 102.244 387.399 102.366 387.186C102.487 386.972 102.551 386.73 102.551 386.483C102.551 386.237 102.487 385.994 102.366 385.781C102.244 385.567 102.07 385.39 101.859 385.267L78.7451 371.711C77.1006 370.749 75.236 370.243 73.3383 370.244H73.3392Z" fill="var(--main-color)"/>
<path opacity="0.6" d="M307.383 464.017L142.129 367.092C139.72 365.68 140.023 363.212 142.803 361.581L248.868 299.374C251.649 297.743 255.857 297.566 258.266 298.978L423.52 395.903C425.929 397.316 425.627 399.783 422.845 401.414L316.78 463.621C313.999 465.257 309.791 465.43 307.383 464.017Z" fill="#030830"/>
<path d="M311.166 481.514C309.234 481.514 307.381 481.106 305.965 480.275L117.358 369.658C115.817 368.755 114.971 367.452 114.971 365.991C114.971 364.31 116.12 362.667 118.129 361.494L246.697 284.975C250.223 282.909 255.403 282.707 258.493 284.519L447.098 395.14C448.639 396.038 449.485 397.345 449.485 398.807C449.485 400.487 448.336 402.125 446.327 403.298L317.762 479.822C315.85 480.944 313.454 481.514 311.166 481.514ZM253.318 285.454C251.387 285.454 249.333 285.927 247.768 286.844L119.198 363.364C117.881 364.137 117.099 365.118 117.099 365.989C117.099 366.832 117.819 367.426 118.425 367.785L307.031 478.404C309.438 479.818 313.864 479.612 316.69 477.955L445.257 401.436C446.575 400.662 447.357 399.683 447.357 398.81C447.357 397.969 446.637 397.373 446.031 397.014L257.427 286.392C256.351 285.762 254.873 285.454 253.318 285.454Z" fill="var(--main-color)"/>
<path d="M467.42 233.409L302.813 136.865C301.681 136.202 300.5 136.065 299.453 136.376L299.438 136.381L296.39 137.459L297.463 137.717C297.004 138.279 296.662 138.929 296.458 139.629L259.234 262.413C258.312 265.458 259.663 269.157 262.251 270.677L426.856 367.215C427.235 367.437 427.643 367.606 428.067 367.717L427.659 368.615L430.571 367.576H430.564C431.757 367.093 432.739 366.011 433.217 364.447L470.441 241.668C471.359 238.625 470.008 234.927 467.42 233.409Z" fill="url(#paint0_radial)"/>
<path d="M420.963 371.799L421.022 371.87L258.435 276.51C256.048 275.107 251.865 275.283 249.103 276.903L144.055 338.514L140.552 337.156L141.536 342.148C141.667 342.898 142.184 343.601 143.113 344.147L307.21 440.384C309.602 441.787 313.78 441.611 316.542 439.992L421.857 378.221C423.157 377.459 423.904 376.514 424.089 375.578L424.095 375.586L425.1 370.727L420.963 371.799Z" fill="url(#paint1_radial)"/>
<path d="M307.383 435.992L142.129 339.068C139.72 337.655 140.023 335.188 142.803 333.557L248.868 271.349C251.649 269.718 255.857 269.541 258.266 270.954L423.52 367.878C425.929 369.291 425.627 371.759 422.845 373.39L316.78 435.597C313.999 437.233 309.791 437.405 307.383 435.992Z" fill="url(#paint2_radial)"/>
<path d="M422.843 372.082L316.779 434.289C313.998 435.92 309.794 436.098 307.382 434.685L142.127 337.761C141.307 337.28 140.825 336.672 140.624 336.02C140.305 337.145 140.772 338.273 142.127 339.068L307.382 435.993C309.79 437.405 313.998 437.228 316.779 435.597L422.843 373.39C424.677 372.312 425.407 370.88 425.021 369.618C424.772 370.496 424.061 371.369 422.843 372.082Z" fill="white"/>
<g opacity="0.4">
<path opacity="0.4" d="M220.949 323.341L215.369 320.069C214.921 319.806 214.978 319.35 215.495 319.044L222.08 315.182C222.598 314.878 223.38 314.845 223.828 315.108L229.408 318.38C229.856 318.642 229.799 319.099 229.282 319.405L222.697 323.267C222.179 323.569 221.4 323.602 220.949 323.341Z" fill="#09133D"/>
<path opacity="0.4" d="M229.565 328.392L223.986 325.12C223.537 324.858 223.594 324.401 224.111 324.095L230.696 320.233C231.214 319.929 231.996 319.896 232.445 320.159L238.023 323.43C238.47 323.693 238.414 324.149 237.897 324.455L231.312 328.318C230.796 328.622 230.013 328.655 229.565 328.392Z" fill="#09133D"/>
<path opacity="0.4" d="M238.181 333.445L232.602 330.173C232.154 329.911 232.21 329.454 232.728 329.148L239.313 325.286C239.83 324.982 240.613 324.949 241.06 325.212L246.64 328.484C247.088 328.747 247.032 329.203 246.515 329.509L239.929 333.371C239.411 333.675 238.629 333.708 238.181 333.445Z" fill="#09133D"/>
<path opacity="0.4" d="M250.098 329.269L244.518 325.997C244.071 325.735 244.127 325.278 244.644 324.972L250.172 321.729C250.689 321.426 251.472 321.393 251.92 321.656L257.499 324.928C257.947 325.191 257.891 325.647 257.373 325.953L251.846 329.195C251.328 329.503 250.546 329.539 250.098 329.269Z" fill="#09133D"/>
<path opacity="0.4" d="M258.713 334.325L253.134 331.053C252.686 330.791 252.742 330.335 253.259 330.028L258.787 326.786C259.305 326.482 260.087 326.45 260.535 326.712L266.115 329.984C266.563 330.247 266.506 330.703 265.989 331.01L260.461 334.252C259.945 334.555 259.162 334.589 258.713 334.325Z" fill="#09133D"/>
<path opacity="0.4" d="M267.329 339.38L261.75 336.107C261.302 335.844 261.358 335.388 261.876 335.082L267.404 331.839C267.921 331.537 268.703 331.504 269.152 331.766L274.731 335.039C275.178 335.301 275.122 335.757 274.605 336.064L269.076 339.305C268.56 339.609 267.778 339.642 267.329 339.38Z" fill="#09133D"/>
<path opacity="0.4" d="M275.946 344.433L270.367 341.16C269.919 340.898 269.975 340.441 270.492 340.135L276.021 336.893C276.538 336.59 277.32 336.557 277.768 336.82L283.348 340.092C283.795 340.354 283.739 340.811 283.222 341.117L277.693 344.36C277.176 344.662 276.396 344.695 275.946 344.433Z" fill="#09133D"/>
<path opacity="0.4" d="M284.563 349.486L278.983 346.214C278.536 345.951 278.592 345.495 279.109 345.188L284.637 341.947C285.155 341.643 285.937 341.61 286.385 341.873L291.964 345.145C292.413 345.407 292.356 345.864 291.839 346.17L286.311 349.412C285.793 349.716 285.011 349.747 284.563 349.486Z" fill="#09133D"/>
<path opacity="0.4" d="M293.18 354.54L287.6 351.267C287.152 351.004 287.209 350.549 287.726 350.242L293.254 347C293.771 346.696 294.554 346.663 295.002 346.926L300.581 350.199C301.029 350.462 300.973 350.917 300.455 351.223L294.928 354.466C294.41 354.77 293.628 354.802 293.18 354.54Z" fill="#09133D"/>
<path opacity="0.4" d="M301.796 359.593L296.216 356.321C295.768 356.058 295.825 355.602 296.342 355.296L301.87 352.053C302.387 351.75 303.17 351.717 303.618 351.98L309.197 355.252C309.646 355.515 309.589 355.971 309.072 356.277L303.544 359.519C303.027 359.823 302.244 359.856 301.796 359.593Z" fill="#09133D"/>
<path opacity="0.4" d="M310.412 364.646L304.833 361.374C304.384 361.112 304.441 360.655 304.957 360.349L310.486 357.107C311.003 356.803 311.786 356.771 312.234 357.033L317.813 360.305C318.261 360.568 318.205 361.024 317.688 361.33L312.159 364.572C311.642 364.876 310.859 364.909 310.412 364.646Z" fill="#09133D"/>
<path opacity="0.4" d="M319.027 369.7L313.445 366.428C312.997 366.165 313.053 365.709 313.57 365.403L319.099 362.16C319.616 361.856 320.399 361.824 320.846 362.086L326.425 365.359C326.873 365.622 326.817 366.077 326.3 366.385L320.772 369.626C320.258 369.93 319.476 369.963 319.027 369.7Z" fill="#09133D"/>
<path opacity="0.4" d="M327.644 374.754L322.065 371.481C321.616 371.218 321.673 370.762 322.19 370.456L327.718 367.213C328.235 366.911 329.018 366.877 329.466 367.14L335.046 370.413C335.494 370.675 335.437 371.131 334.92 371.438L329.392 374.68C328.875 374.987 328.092 375.016 327.644 374.754Z" fill="#09133D"/>
<path opacity="0.4" d="M262.792 326.879L257.213 323.607C256.765 323.345 256.82 322.889 257.337 322.582L262.866 319.34C263.384 319.037 264.166 319.004 264.613 319.266L270.193 322.539C270.641 322.801 270.585 323.258 270.068 323.564L264.539 326.807C264.022 327.113 263.239 327.143 262.792 326.879Z" fill="#09133D"/>
<path opacity="0.4" d="M254.048 321.75L248.469 318.478C248.021 318.216 248.077 317.76 248.594 317.453L254.122 314.211C254.64 313.907 255.423 313.875 255.87 314.137L261.454 317.412C261.902 317.675 261.845 318.131 261.328 318.438L255.795 321.677C255.279 321.98 254.496 322.014 254.048 321.75Z" fill="#09133D"/>
<path opacity="0.4" d="M245.289 316.614L233.273 309.567C232.825 309.304 232.881 308.848 233.399 308.541L238.926 305.299C239.444 304.996 240.226 304.963 240.674 305.226L252.691 312.273C253.139 312.536 253.082 312.992 252.565 313.298L247.037 316.54C246.52 316.844 245.737 316.874 245.289 316.614Z" fill="#09133D"/>
<path opacity="0.4" d="M251.412 310.366L241.66 304.647C241.212 304.384 241.268 303.928 241.785 303.622L247.314 300.38C247.831 300.076 248.614 300.043 249.061 300.306L258.813 306.025C259.261 306.288 259.205 306.743 258.688 307.051L253.159 310.292C252.642 310.596 251.859 310.629 251.412 310.366Z" fill="#09133D"/>
<path opacity="0.4" d="M271.409 331.933L265.83 328.661C265.382 328.398 265.438 327.943 265.955 327.636L271.484 324.393C272.001 324.091 272.783 324.057 273.231 324.32L278.81 327.593C279.259 327.855 279.202 328.311 278.685 328.617L273.157 331.86C272.64 332.162 271.857 332.196 271.409 331.933Z" fill="#09133D"/>
<path opacity="0.4" d="M280.022 336.987L274.443 333.715C273.995 333.451 274.051 332.996 274.568 332.689L280.096 329.448C280.614 329.144 281.396 329.111 281.844 329.374L287.423 332.646C287.872 332.908 287.815 333.364 287.298 333.671L281.77 336.913C281.26 337.217 280.474 337.249 280.022 336.987Z" fill="#09133D"/>
<path opacity="0.4" d="M288.642 342.04L283.062 338.768C282.614 338.505 282.671 338.05 283.188 337.743L288.716 334.501C289.233 334.197 290.016 334.164 290.464 334.427L296.043 337.699C296.491 337.962 296.435 338.418 295.918 338.724L290.39 341.967C289.872 342.27 289.09 342.303 288.642 342.04Z" fill="#09133D"/>
<path opacity="0.4" d="M297.258 347.093L291.679 343.821C291.231 343.558 291.286 343.103 291.804 342.796L297.333 339.554C297.85 339.25 298.632 339.218 299.08 339.48L304.66 342.752C305.107 343.016 305.052 343.471 304.534 343.777L299.005 347.02C298.488 347.322 297.706 347.357 297.258 347.093Z" fill="#09133D"/>
<path opacity="0.4" d="M305.876 352.147L300.295 348.875C299.848 348.612 299.904 348.156 300.421 347.85L305.95 344.608C306.467 344.304 307.25 344.272 307.697 344.534L313.277 347.806C313.725 348.069 313.669 348.524 313.151 348.832L307.623 352.073C307.106 352.377 306.323 352.41 305.876 352.147Z" fill="#09133D"/>
<path opacity="0.4" d="M314.489 357.203L308.91 353.931C308.462 353.668 308.518 353.212 309.035 352.906L314.563 349.663C315.081 349.361 315.863 349.327 316.311 349.59L321.891 352.862C322.339 353.125 322.282 353.58 321.765 353.888L316.237 357.129C315.72 357.43 314.937 357.463 314.489 357.203Z" fill="#09133D"/>
<path opacity="0.4" d="M323.108 362.254L317.529 358.981C317.081 358.719 317.137 358.263 317.655 357.956L323.183 354.714C323.7 354.411 324.482 354.378 324.931 354.64L330.51 357.913C330.958 358.176 330.902 358.632 330.385 358.938L324.857 362.181C324.339 362.484 323.557 362.517 323.108 362.254Z" fill="#09133D"/>
<path opacity="0.4" d="M331.722 367.307L326.143 364.035C325.695 363.772 325.751 363.317 326.269 363.01L331.797 359.768C332.314 359.465 333.096 359.431 333.545 359.694L339.124 362.967C339.572 363.229 339.516 363.685 338.999 363.991L333.47 367.234C332.952 367.536 332.17 367.57 331.722 367.307Z" fill="#09133D"/>
<path opacity="0.4" d="M340.339 372.361L334.759 369.089C334.311 368.826 334.367 368.37 334.884 368.063L340.413 364.822C340.93 364.518 341.713 364.485 342.16 364.748L347.74 368.02C348.188 368.282 348.132 368.739 347.615 369.045L342.086 372.287C341.569 372.591 340.786 372.623 340.339 372.361Z" fill="#09133D"/>
<path opacity="0.4" d="M355.657 381.345L343.482 374.205C343.035 373.942 343.091 373.487 343.608 373.18L349.137 369.938C349.654 369.634 350.436 369.601 350.884 369.864L363.058 377.004C363.506 377.266 363.45 377.723 362.933 378.029L357.404 381.271C356.887 381.575 356.104 381.607 355.657 381.345Z" fill="#09133D"/>
<path opacity="0.4" d="M372.431 371.505L362.156 365.48C361.708 365.217 361.764 364.761 362.281 364.455L367.81 361.212C368.327 360.909 369.11 360.876 369.558 361.139L379.833 367.165C380.281 367.428 380.224 367.883 379.707 368.19L374.179 371.433C373.662 371.735 372.879 371.769 372.431 371.505Z" fill="#09133D"/>
<path opacity="0.4" d="M286.498 330.945L280.919 327.673C280.471 327.41 280.526 326.954 281.044 326.647L286.572 323.405C287.09 323.102 287.872 323.068 288.32 323.332L293.899 326.604C294.347 326.866 294.291 327.322 293.774 327.629L288.245 330.871C287.728 331.175 286.946 331.207 286.498 330.945Z" fill="#09133D"/>
<path opacity="0.4" d="M277.668 325.766L272.089 322.494C271.641 322.231 271.697 321.775 272.214 321.468L277.743 318.226C278.26 317.923 279.043 317.89 279.49 318.153L285.07 321.425C285.518 321.687 285.461 322.143 284.944 322.45L279.416 325.692C278.899 325.996 278.116 326.028 277.668 325.766Z" fill="#09133D"/>
<path opacity="0.4" d="M268.836 320.586L263.257 317.314C262.809 317.051 262.865 316.595 263.382 316.289L268.91 313.047C269.428 312.744 270.21 312.711 270.658 312.974L276.237 316.246C276.686 316.508 276.629 316.964 276.112 317.27L270.584 320.513C270.067 320.816 269.284 320.849 268.836 320.586Z" fill="#09133D"/>
<path opacity="0.4" d="M260.007 315.408L254.427 312.135C253.979 311.872 254.036 311.416 254.553 311.11L260.081 307.867C260.598 307.565 261.381 307.531 261.829 307.794L267.408 311.067C267.856 311.329 267.8 311.785 267.282 312.091L261.755 315.334C261.237 315.637 260.455 315.67 260.007 315.408Z" fill="#09133D"/>
<path opacity="0.4" d="M295.115 335.998L289.535 332.726C289.088 332.463 289.144 332.007 289.661 331.701L295.19 328.458C295.706 328.155 296.489 328.121 296.937 328.385L302.516 331.657C302.965 331.92 302.908 332.375 302.391 332.682L296.863 335.924C296.346 336.228 295.563 336.26 295.115 335.998Z" fill="#09133D"/>
<path opacity="0.4" d="M303.732 341.052L298.153 337.779C297.704 337.516 297.761 337.061 298.278 336.754L303.806 333.512C304.323 333.208 305.106 333.175 305.554 333.438L311.134 336.71C311.582 336.974 311.525 337.429 311.008 337.735L305.48 340.978C304.963 341.282 304.18 341.315 303.732 341.052Z" fill="#09133D"/>
<path opacity="0.4" d="M312.346 346.105L306.766 342.833C306.318 342.571 306.375 342.114 306.892 341.808L312.42 338.565C312.937 338.262 313.72 338.229 314.168 338.492L319.748 341.764C320.195 342.027 320.139 342.483 319.622 342.79L314.094 346.031C313.577 346.335 312.794 346.368 312.346 346.105Z" fill="#09133D"/>
<path opacity="0.4" d="M320.961 351.158L315.381 347.886C314.933 347.623 314.989 347.167 315.506 346.861L321.035 343.618C321.552 343.316 322.335 343.282 322.782 343.545L328.362 346.817C328.81 347.08 328.754 347.535 328.237 347.843L322.708 351.085C322.199 351.388 321.412 351.421 320.961 351.158Z" fill="#09133D"/>
<path opacity="0.4" d="M329.581 356.215L324.001 352.942C323.553 352.679 323.609 352.223 324.126 351.917L329.654 348.674C330.172 348.371 330.955 348.338 331.402 348.601L336.981 351.874C337.43 352.136 337.373 352.592 336.856 352.898L331.328 356.141C330.811 356.441 330.028 356.474 329.581 356.215Z" fill="#09133D"/>
<path opacity="0.4" d="M338.195 361.265L332.616 357.993C332.168 357.73 332.224 357.275 332.742 356.967L338.27 353.726C338.787 353.422 339.569 353.389 340.018 353.652L345.597 356.924C346.045 357.187 345.989 357.643 345.471 357.949L339.943 361.192C339.426 361.495 338.644 361.527 338.195 361.265Z" fill="#09133D"/>
<path opacity="0.4" d="M346.812 366.318L341.233 363.046C340.784 362.783 340.841 362.328 341.358 362.021L346.886 358.779C347.404 358.475 348.186 358.442 348.634 358.705L354.214 361.977C354.662 362.24 354.605 362.696 354.088 363.002L348.56 366.245C348.043 366.548 347.26 366.581 346.812 366.318Z" fill="#09133D"/>
<path opacity="0.4" d="M355.429 371.372L349.849 368.1C349.401 367.837 349.458 367.381 349.975 367.075L355.503 363.832C356.02 363.529 356.803 363.495 357.25 363.759L362.83 367.031C363.277 367.294 363.222 367.749 362.704 368.056L357.176 371.298C356.658 371.602 355.876 371.634 355.429 371.372Z" fill="#09133D"/>
<path opacity="0.4" d="M364.044 376.425L358.465 373.152C358.018 372.889 358.073 372.434 358.591 372.128L364.119 368.885C364.637 368.582 365.419 368.549 365.866 368.812L371.446 372.084C371.894 372.347 371.838 372.802 371.321 373.108L365.792 376.351C365.275 376.655 364.492 376.689 364.044 376.425Z" fill="#09133D"/>
<path opacity="0.4" d="M281.962 318.445L276.383 315.173C275.936 314.91 275.992 314.455 276.509 314.148L282.037 310.906C282.554 310.602 283.336 310.569 283.785 310.832L289.364 314.104C289.812 314.367 289.756 314.823 289.238 315.129L283.71 318.372C283.193 318.675 282.411 318.708 281.962 318.445Z" fill="#09133D"/>
<path opacity="0.4" d="M273.391 313.417L267.812 310.145C267.363 309.882 267.42 309.426 267.937 309.119L273.465 305.878C273.982 305.574 274.765 305.541 275.213 305.804L280.792 309.076C281.241 309.338 281.184 309.795 280.667 310.101L275.139 313.343C274.619 313.647 273.833 313.679 273.391 313.417Z" fill="#09133D"/>
<path opacity="0.4" d="M264.815 308.389L259.235 305.117C258.787 304.854 258.844 304.398 259.361 304.091L264.889 300.849C265.406 300.546 266.189 300.513 266.637 300.776L272.216 304.048C272.664 304.31 272.608 304.767 272.091 305.073L266.562 308.315C266.045 308.618 265.263 308.651 264.815 308.389Z" fill="#09133D"/>
<path opacity="0.4" d="M256.242 303.36L250.662 300.088C250.214 299.826 250.27 299.369 250.787 299.063L256.316 295.82C256.833 295.517 257.616 295.485 258.063 295.747L263.642 299.02C264.091 299.282 264.035 299.739 263.517 300.045L257.989 303.287C257.475 303.59 256.689 303.623 256.242 303.36Z" fill="#09133D"/>
<path opacity="0.4" d="M265.058 298.191L259.479 294.919C259.031 294.656 259.087 294.2 259.605 293.894L261.432 292.821C261.95 292.518 262.732 292.486 263.18 292.748L268.759 296.02C269.207 296.283 269.151 296.738 268.634 297.046L266.806 298.117C266.289 298.42 265.507 298.452 265.058 298.191Z" fill="#09133D"/>
<path opacity="0.4" d="M276.246 304.748L270.667 301.476C270.219 301.213 270.276 300.757 270.793 300.451L272.62 299.379C273.138 299.076 273.92 299.042 274.368 299.306L279.947 302.578C280.395 302.84 280.338 303.296 279.821 303.603L277.994 304.675C277.476 304.981 276.694 305.017 276.246 304.748Z" fill="#09133D"/>
<path opacity="0.4" d="M284.784 309.759L279.205 306.486C278.757 306.224 278.812 305.768 279.33 305.461L281.157 304.39C281.674 304.086 282.457 304.053 282.905 304.316L288.484 307.588C288.933 307.851 288.876 308.307 288.359 308.613L286.531 309.688C286.014 309.989 285.232 310.022 284.784 309.759Z" fill="#09133D"/>
<path opacity="0.4" d="M293.32 314.766L287.74 311.494C287.292 311.231 287.348 310.776 287.865 310.47L289.693 309.397C290.21 309.094 290.993 309.061 291.441 309.323L297.02 312.596C297.468 312.859 297.412 313.315 296.894 313.621L295.067 314.693C294.55 314.996 293.767 315.03 293.32 314.766Z" fill="#09133D"/>
<path opacity="0.4" d="M301.862 319.773L296.282 316.502C295.834 316.239 295.89 315.783 296.407 315.477L298.235 314.405C298.752 314.102 299.535 314.069 299.983 314.331L305.562 317.603C306.01 317.866 305.954 318.321 305.436 318.628L303.609 319.7C303.089 320.003 302.304 320.036 301.862 319.773Z" fill="#09133D"/>
<path opacity="0.4" d="M349.519 347.728L343.94 344.456C343.492 344.194 343.549 343.738 344.066 343.431L345.893 342.36C346.411 342.056 347.193 342.023 347.641 342.286L353.22 345.558C353.668 345.82 353.612 346.277 353.094 346.583L351.268 347.655C350.757 347.958 349.971 347.991 349.519 347.728Z" fill="#09133D"/>
<path opacity="0.4" d="M358.06 352.736L352.481 349.464C352.033 349.201 352.089 348.746 352.605 348.439L354.433 347.368C354.95 347.064 355.733 347.031 356.181 347.294L361.76 350.566C362.209 350.828 362.152 351.285 361.635 351.591L359.807 352.663C359.29 352.966 358.507 352.999 358.06 352.736Z" fill="#09133D"/>
<path opacity="0.4" d="M366.598 357.742L361.019 354.47C360.57 354.206 360.626 353.751 361.143 353.445L362.971 352.372C363.488 352.069 364.271 352.036 364.719 352.299L370.298 355.572C370.746 355.834 370.69 356.29 370.173 356.597L368.345 357.668C367.828 357.974 367.045 358.011 366.598 357.742Z" fill="#09133D"/>
<path opacity="0.4" d="M375.135 362.751L369.555 359.479C369.108 359.216 369.164 358.76 369.681 358.453L371.508 357.382C372.025 357.079 372.808 357.047 373.256 357.309L378.835 360.581C379.283 360.844 379.227 361.3 378.709 361.607L376.882 362.682C376.365 362.981 375.582 363.013 375.135 362.751Z" fill="#09133D"/>
<path opacity="0.4" d="M290.577 323.499L284.998 320.227C284.55 319.963 284.606 319.508 285.124 319.202L290.652 315.959C291.169 315.656 291.951 315.622 292.4 315.886L297.979 319.158C298.427 319.421 298.37 319.876 297.853 320.183L292.325 323.425C291.808 323.729 291.026 323.762 290.577 323.499Z" fill="#09133D"/>
<path opacity="0.4" d="M299.194 328.55L293.615 325.278C293.166 325.016 293.223 324.559 293.74 324.253L299.268 321.011C299.785 320.707 300.568 320.675 301.016 320.937L306.595 324.209C307.043 324.472 306.987 324.928 306.47 325.235L300.942 328.477C300.425 328.782 299.642 328.82 299.194 328.55Z" fill="#09133D"/>
<path opacity="0.4" d="M307.81 333.605L302.231 330.333C301.783 330.071 301.838 329.614 302.356 329.308L307.884 326.066C308.402 325.762 309.184 325.73 309.632 325.992L315.212 329.269C315.66 329.532 315.604 329.987 315.087 330.294L309.558 333.537C309.04 333.835 308.258 333.869 307.81 333.605Z" fill="#09133D"/>
<path opacity="0.4" d="M316.427 338.659L310.848 335.386C310.4 335.124 310.456 334.668 310.973 334.362L316.502 331.119C317.019 330.816 317.802 330.783 318.249 331.045L323.828 334.318C324.277 334.581 324.221 335.037 323.703 335.343L318.175 338.586C317.658 338.889 316.875 338.922 316.427 338.659Z" fill="#09133D"/>
<path opacity="0.4" d="M325.041 343.713L319.462 340.44C319.014 340.177 319.07 339.721 319.588 339.415L325.115 336.173C325.633 335.87 326.415 335.836 326.863 336.099L332.442 339.372C332.891 339.634 332.834 340.09 332.317 340.397L326.789 343.639C326.272 343.943 325.489 343.975 325.041 343.713Z" fill="#09133D"/>
<path opacity="0.4" d="M333.658 348.766L328.078 345.494C327.63 345.231 327.687 344.775 328.204 344.468L333.732 341.226C334.249 340.923 335.032 340.89 335.48 341.153L341.059 344.425C341.508 344.687 341.451 345.144 340.934 345.45L335.406 348.693C334.889 348.996 334.106 349.03 333.658 348.766Z" fill="#09133D"/>
<path opacity="0.4" d="M342.274 353.819L336.698 350.547C336.25 350.284 336.306 349.828 336.823 349.522L342.351 346.28C342.868 345.976 343.651 345.943 344.099 346.206L349.678 349.478C350.126 349.741 350.07 350.196 349.553 350.503L344.024 353.745C343.506 354.049 342.722 354.081 342.274 353.819Z" fill="#09133D"/>
<path opacity="0.4" d="M350.891 358.872L345.311 355.6C344.863 355.337 344.919 354.882 345.436 354.576L350.965 351.333C351.482 351.029 352.265 350.996 352.712 351.259L358.291 354.531C358.739 354.795 358.683 355.25 358.166 355.556L352.638 358.799C352.121 359.102 351.338 359.136 350.891 358.872Z" fill="#09133D"/>
<path opacity="0.4" d="M359.511 363.926L353.931 360.654C353.484 360.391 353.54 359.935 354.057 359.629L359.585 356.386C360.102 356.083 360.885 356.05 361.333 356.312L366.912 359.585C367.36 359.848 367.304 360.303 366.787 360.61L361.255 363.849C360.738 364.156 359.953 364.189 359.511 363.926Z" fill="#09133D"/>
<path opacity="0.4" d="M241.318 324.123L224.887 314.485C224.438 314.223 224.495 313.766 225.012 313.46L230.54 310.218C231.057 309.914 231.84 309.882 232.288 310.144L248.723 319.782C249.17 320.044 249.114 320.5 248.597 320.807L243.068 324.049C242.548 324.353 241.766 324.385 241.318 324.123Z" fill="#09133D"/>
<path opacity="0.4" d="M347.171 386.204L330.738 376.567C330.291 376.304 330.347 375.849 330.864 375.543L336.393 372.3C336.91 371.996 337.693 371.963 338.14 372.226L354.572 381.863C355.02 382.126 354.964 382.582 354.447 382.889L348.918 386.131C348.401 386.434 347.618 386.467 347.171 386.204Z" fill="#09133D"/>
<path opacity="0.4" d="M312.712 377.158L307.132 373.886C306.684 373.623 306.741 373.167 307.258 372.861L313.843 368.999C314.361 368.695 315.143 368.662 315.592 368.925L321.171 372.197C321.618 372.46 321.563 372.916 321.045 373.222L314.46 377.084C313.942 377.388 313.16 377.421 312.712 377.158Z" fill="#09133D"/>
<path opacity="0.4" d="M250.142 340.46L241.219 335.226C240.771 334.964 240.827 334.508 241.344 334.201L247.93 330.339C248.448 330.036 249.231 330.003 249.678 330.266L258.601 335.498C259.049 335.762 258.993 336.217 258.476 336.524L251.89 340.386C251.376 340.69 250.59 340.722 250.142 340.46Z" fill="#09133D"/>
<path opacity="0.4" d="M304.409 372.293L295.486 367.06C295.038 366.797 295.094 366.341 295.611 366.034L302.197 362.172C302.714 361.869 303.497 361.836 303.945 362.098L312.868 367.332C313.316 367.594 313.259 368.05 312.742 368.357L306.156 372.219C305.639 372.519 304.857 372.552 304.409 372.293Z" fill="#09133D"/>
<path opacity="0.4" d="M262.572 347.751L253.649 342.518C253.201 342.255 253.257 341.8 253.775 341.493L260.36 337.631C260.877 337.328 261.66 337.295 262.108 337.557L271.031 342.791C271.479 343.053 271.423 343.51 270.906 343.816L264.32 347.678C263.802 347.981 263.02 348.014 262.572 347.751Z" fill="#09133D"/>
<path opacity="0.4" d="M262.17 337.592L300.964 360.346C301.445 360.629 301.445 361.087 300.964 361.369L294.244 365.307C293.762 365.589 292.982 365.589 292.501 365.307L253.711 342.553L262.17 337.592Z" fill="#09133D"/>
<path opacity="0.4" d="M336.795 386.32L343.009 389.965C343.376 390.181 343.33 390.557 342.907 390.805L340.213 392.386C339.788 392.634 339.147 392.661 338.78 392.446L332.566 388.801C332.198 388.585 332.244 388.209 332.668 387.96L335.362 386.38C335.786 386.132 336.428 386.105 336.795 386.32Z" fill="#09133D"/>
<path opacity="0.4" d="M328.106 381.225L334.321 384.868C334.689 385.083 334.642 385.46 334.219 385.709L331.525 387.293C331.101 387.542 330.464 387.569 330.092 387.353L323.879 383.706C323.512 383.491 323.558 383.114 323.982 382.866L326.676 381.286C327.098 381.037 327.739 381.01 328.106 381.225Z" fill="#09133D"/>
<path opacity="0.4" d="M319.492 376.172L325.706 379.817C326.074 380.033 326.028 380.409 325.603 380.658L322.907 382.238C322.484 382.486 321.842 382.514 321.475 382.298L315.26 378.653C314.893 378.438 314.939 378.061 315.363 377.812L318.057 376.232C318.486 375.984 319.124 375.957 319.492 376.172Z" fill="#09133D"/>
<path opacity="0.4" d="M332.864 378.434L339.078 382.079C339.446 382.294 339.4 382.671 338.975 382.92L336.281 384.5C335.858 384.748 335.216 384.775 334.849 384.56L328.634 380.915C328.267 380.699 328.313 380.323 328.737 380.074L331.43 378.494C331.855 378.245 332.496 378.22 332.864 378.434Z" fill="#09133D"/>
</g>
<path d="M220.95 323.341L215.371 320.069C214.923 319.807 214.979 319.35 215.497 319.044L222.082 315.182C222.599 314.879 223.382 314.845 223.83 315.108L229.409 318.38C229.858 318.643 229.801 319.099 229.284 319.405L222.698 323.267C222.181 323.569 221.402 323.602 220.95 323.341Z" fill="#161623"/>
<path d="M229.565 328.392L223.986 325.12C223.538 324.858 223.595 324.402 224.112 324.095L230.697 320.233C231.214 319.93 231.997 319.896 232.445 320.16L238.023 323.431C238.471 323.693 238.415 324.149 237.898 324.456L231.313 328.318C230.796 328.622 230.014 328.655 229.565 328.392Z" fill="#161623"/>
<path d="M238.182 333.445L232.603 330.173C232.154 329.911 232.211 329.454 232.728 329.148L239.314 325.286C239.831 324.982 240.613 324.949 241.061 325.212L246.641 328.484C247.088 328.748 247.033 329.203 246.515 329.509L239.93 333.372C239.412 333.675 238.629 333.708 238.182 333.445Z" fill="#161623"/>
<path d="M250.099 329.269L244.52 325.997C244.073 325.735 244.128 325.278 244.646 324.972L250.173 321.729C250.691 321.426 251.473 321.393 251.921 321.656L257.501 324.928C257.949 325.191 257.892 325.647 257.375 325.953L251.847 329.195C251.33 329.503 250.547 329.539 250.099 329.269Z" fill="#161623"/>
<path d="M258.713 334.326L253.134 331.053C252.686 330.791 252.743 330.335 253.26 330.029L258.788 326.786C259.305 326.482 260.087 326.45 260.536 326.712L266.115 329.985C266.563 330.248 266.507 330.703 265.989 331.01L260.461 334.252C259.945 334.556 259.163 334.589 258.713 334.326Z" fill="#161623"/>
<path d="M267.33 339.38L261.751 336.107C261.303 335.844 261.359 335.388 261.876 335.082L267.404 331.839C267.921 331.537 268.704 331.504 269.152 331.766L274.731 335.039C275.179 335.301 275.123 335.757 274.606 336.064L269.077 339.305C268.561 339.609 267.778 339.642 267.33 339.38Z" fill="#161623"/>
<path d="M275.947 344.433L270.368 341.16C269.919 340.898 269.975 340.441 270.492 340.135L276.021 336.893C276.538 336.59 277.321 336.557 277.768 336.82L283.348 340.092C283.796 340.354 283.74 340.811 283.223 341.117L277.694 344.36C277.177 344.662 276.397 344.695 275.947 344.433Z" fill="#161623"/>
<path d="M284.564 349.486L278.984 346.214C278.537 345.951 278.593 345.495 279.11 345.188L284.638 341.947C285.156 341.643 285.938 341.61 286.386 341.873L291.965 345.145C292.413 345.407 292.357 345.864 291.84 346.17L286.312 349.412C285.794 349.716 285.012 349.747 284.564 349.486Z" fill="#161623"/>
<path d="M293.18 354.54L287.601 351.268C287.153 351.005 287.209 350.549 287.727 350.242L293.254 347C293.772 346.697 294.554 346.663 295.002 346.927L300.582 350.199C301.03 350.462 300.973 350.917 300.456 351.224L294.928 354.466C294.411 354.77 293.628 354.802 293.18 354.54Z" fill="#161623"/>
<path d="M301.796 359.593L296.217 356.321C295.769 356.058 295.826 355.602 296.343 355.296L301.871 352.053C302.388 351.75 303.17 351.717 303.619 351.98L309.197 355.252C309.646 355.515 309.589 355.971 309.072 356.277L303.544 359.519C303.027 359.823 302.245 359.856 301.796 359.593Z" fill="#161623"/>
<path d="M310.413 364.646L304.833 361.374C304.385 361.112 304.442 360.655 304.958 360.349L310.487 357.107C311.004 356.803 311.787 356.771 312.235 357.033L317.814 360.305C318.262 360.568 318.206 361.024 317.689 361.33L312.16 364.572C311.643 364.876 310.86 364.909 310.413 364.646Z" fill="#161623"/>
<path d="M319.027 369.7L313.444 366.428C312.997 366.165 313.052 365.709 313.57 365.403L319.098 362.16C319.616 361.856 320.398 361.824 320.845 362.086L326.424 365.359C326.873 365.622 326.816 366.077 326.299 366.385L320.771 369.626C320.257 369.93 319.475 369.963 319.027 369.7Z" fill="#161623"/>
<path d="M327.644 374.754L322.065 371.481C321.617 371.218 321.673 370.762 322.19 370.456L327.718 367.213C328.236 366.911 329.018 366.877 329.466 367.14L335.045 370.413C335.494 370.675 335.437 371.131 334.92 371.438L329.392 374.68C328.875 374.987 328.092 375.016 327.644 374.754Z" fill="#161623"/>
<path d="M262.793 326.88L257.213 323.607C256.765 323.345 256.821 322.889 257.338 322.583L262.867 319.34C263.384 319.037 264.167 319.004 264.614 319.266L270.193 322.539C270.641 322.802 270.586 323.258 270.068 323.564L264.54 326.807C264.022 327.113 263.24 327.143 262.793 326.88Z" fill="#161623"/>
<path d="M254.048 321.751L248.469 318.479C248.021 318.217 248.077 317.76 248.594 317.454L254.122 314.211C254.64 313.908 255.423 313.875 255.87 314.138L261.454 317.413C261.902 317.676 261.846 318.131 261.328 318.438L255.795 321.677C255.279 321.981 254.496 322.014 254.048 321.751Z" fill="#161623"/>
<path d="M245.289 316.614L233.273 309.567C232.825 309.304 232.882 308.848 233.399 308.541L238.927 305.299C239.444 304.996 240.226 304.963 240.674 305.226L252.691 312.273C253.139 312.536 253.083 312.992 252.565 313.298L247.037 316.541C246.52 316.844 245.738 316.874 245.289 316.614Z" fill="#161623"/>
<path d="M251.413 310.366L241.662 304.647C241.213 304.384 241.269 303.929 241.786 303.622L247.315 300.38C247.832 300.076 248.615 300.043 249.062 300.306L258.814 306.025C259.262 306.288 259.207 306.744 258.689 307.051L253.161 310.293C252.643 310.596 251.861 310.63 251.413 310.366Z" fill="#161623"/>
<path d="M271.41 331.933L265.831 328.661C265.383 328.398 265.439 327.943 265.956 327.636L271.485 324.393C272.002 324.09 272.784 324.057 273.232 324.32L278.812 327.592C279.26 327.855 279.203 328.311 278.686 328.617L273.158 331.86C272.641 332.162 271.858 332.196 271.41 331.933Z" fill="#161623"/>
<path d="M280.023 336.987L274.443 333.715C273.995 333.452 274.052 332.996 274.569 332.689L280.097 329.448C280.614 329.144 281.397 329.111 281.845 329.374L287.424 332.646C287.872 332.908 287.816 333.364 287.298 333.671L281.771 336.913C281.26 337.217 280.474 337.249 280.023 336.987Z" fill="#161623"/>
<path d="M288.642 342.04L283.063 338.768C282.615 338.505 282.671 338.05 283.189 337.743L288.717 334.501C289.234 334.197 290.016 334.164 290.465 334.427L296.044 337.699C296.491 337.963 296.435 338.418 295.918 338.724L290.39 341.967C289.873 342.27 289.091 342.304 288.642 342.04Z" fill="#161623"/>
<path d="M297.259 347.094L291.68 343.822C291.231 343.558 291.287 343.103 291.804 342.797L297.333 339.554C297.85 339.251 298.633 339.218 299.08 339.48L304.66 342.753C305.108 343.016 305.052 343.471 304.535 343.778L299.006 347.02C298.489 347.323 297.706 347.357 297.259 347.094Z" fill="#161623"/>
<path d="M305.875 352.147L300.295 348.875C299.848 348.612 299.903 348.156 300.421 347.85L305.95 344.608C306.467 344.304 307.25 344.272 307.697 344.534L313.276 347.806C313.725 348.069 313.669 348.524 313.151 348.832L307.623 352.073C307.105 352.377 306.323 352.41 305.875 352.147Z" fill="#161623"/>
<path d="M314.491 357.203L308.912 353.931C308.464 353.668 308.52 353.212 309.037 352.906L314.565 349.663C315.082 349.361 315.865 349.327 316.313 349.59L321.892 352.862C322.341 353.125 322.284 353.58 321.767 353.888L316.239 357.129C315.722 357.43 314.939 357.463 314.491 357.203Z" fill="#161623"/>
<path d="M323.108 362.254L317.528 358.981C317.08 358.719 317.137 358.263 317.654 357.957L323.182 354.714C323.699 354.411 324.482 354.378 324.93 354.64L330.509 357.913C330.958 358.176 330.901 358.632 330.384 358.938L324.856 362.181C324.339 362.484 323.556 362.517 323.108 362.254Z" fill="#161623"/>
<path d="M331.723 367.307L326.143 364.035C325.695 363.772 325.752 363.317 326.269 363.01L331.797 359.768C332.314 359.465 333.097 359.431 333.545 359.694L339.125 362.967C339.572 363.229 339.516 363.685 338.999 363.991L333.47 367.234C332.953 367.536 332.17 367.57 331.723 367.307Z" fill="#161623"/>
<path d="M340.34 372.361L334.76 369.089C334.313 368.826 334.368 368.371 334.886 368.064L340.415 364.822C340.932 364.518 341.714 364.485 342.162 364.748L347.742 368.02C348.189 368.283 348.133 368.739 347.616 369.045L342.087 372.288C341.57 372.591 340.788 372.624 340.34 372.361Z" fill="#161623"/>
<path d="M355.657 381.345L343.482 374.205C343.035 373.942 343.09 373.487 343.608 373.18L349.137 369.938C349.654 369.634 350.437 369.601 350.884 369.864L363.059 377.004C363.506 377.266 363.451 377.723 362.933 378.029L357.404 381.271C356.887 381.575 356.104 381.607 355.657 381.345Z" fill="#161623"/>
<path d="M372.431 371.506L362.157 365.48C361.708 365.218 361.764 364.761 362.281 364.455L367.81 361.213C368.328 360.909 369.11 360.877 369.558 361.139L379.833 367.165C380.281 367.428 380.225 367.884 379.707 368.191L374.179 371.433C373.662 371.736 372.879 371.769 372.431 371.506Z" fill="#161623"/>
<path d="M286.499 330.945L280.919 327.673C280.471 327.41 280.527 326.954 281.044 326.647L286.573 323.406C287.09 323.102 287.873 323.069 288.32 323.332L293.899 326.604C294.348 326.866 294.292 327.323 293.775 327.629L288.246 330.871C287.729 331.175 286.946 331.207 286.499 330.945Z" fill="#161623"/>
<path d="M277.668 325.766L272.089 322.494C271.642 322.231 271.697 321.775 272.215 321.468L277.743 318.226C278.261 317.923 279.043 317.89 279.491 318.153L285.07 321.425C285.518 321.687 285.461 322.143 284.944 322.45L279.416 325.692C278.899 325.996 278.117 326.028 277.668 325.766Z" fill="#161623"/>
<path d="M268.838 320.586L263.259 317.314C262.81 317.051 262.867 316.595 263.384 316.289L268.912 313.047C269.429 312.744 270.212 312.711 270.66 312.974L276.239 316.246C276.687 316.508 276.631 316.964 276.114 317.27L270.586 320.513C270.069 320.816 269.286 320.849 268.838 320.586Z" fill="#161623"/>
<path d="M260.008 315.408L254.429 312.135C253.98 311.872 254.037 311.416 254.554 311.11L260.082 307.867C260.6 307.564 261.382 307.531 261.83 307.793L267.41 311.067C267.858 311.329 267.802 311.785 267.284 312.091L261.756 315.334C261.239 315.637 260.456 315.67 260.008 315.408Z" fill="#161623"/>
<path d="M295.115 335.998L289.536 332.726C289.089 332.463 289.144 332.008 289.662 331.701L295.19 328.459C295.707 328.155 296.489 328.122 296.938 328.385L302.517 331.657C302.965 331.92 302.908 332.376 302.391 332.682L296.863 335.925C296.346 336.228 295.564 336.261 295.115 335.998Z" fill="#161623"/>
<path d="M303.73 341.052L298.151 337.78C297.702 337.516 297.759 337.061 298.276 336.755L303.804 333.512C304.322 333.208 305.104 333.175 305.552 333.438L311.132 336.711C311.58 336.974 311.523 337.429 311.006 337.736L305.478 340.978C304.961 341.282 304.178 341.315 303.73 341.052Z" fill="#161623"/>
<path d="M312.348 346.105L306.769 342.832C306.321 342.57 306.377 342.114 306.894 341.808L312.422 338.565C312.939 338.262 313.722 338.229 314.17 338.491L319.749 341.764C320.197 342.027 320.141 342.482 319.624 342.789L314.096 346.031C313.579 346.335 312.796 346.368 312.348 346.105Z" fill="#161623"/>
<path d="M320.962 351.158L315.382 347.886C314.934 347.623 314.99 347.167 315.507 346.861L321.036 343.618C321.553 343.316 322.336 343.283 322.783 343.545L328.363 346.817C328.811 347.08 328.755 347.535 328.238 347.843L322.709 351.085C322.2 351.388 321.413 351.421 320.962 351.158Z" fill="#161623"/>
<path d="M329.579 356.215L323.999 352.942C323.552 352.68 323.608 352.223 324.125 351.917L329.653 348.674C330.171 348.372 330.953 348.338 331.401 348.602L336.98 351.874C337.428 352.136 337.372 352.593 336.854 352.899L331.327 356.142C330.809 356.442 330.027 356.475 329.579 356.215Z" fill="#161623"/>
<path d="M338.196 361.265L332.617 357.993C332.169 357.73 332.225 357.275 332.743 356.967L338.271 353.726C338.788 353.422 339.57 353.389 340.019 353.652L345.598 356.924C346.046 357.187 345.99 357.643 345.472 357.949L339.944 361.192C339.427 361.495 338.645 361.527 338.196 361.265Z" fill="#161623"/>
<path d="M346.812 366.319L341.233 363.047C340.785 362.784 340.842 362.328 341.359 362.022L346.887 358.78C347.404 358.476 348.186 358.443 348.635 358.706L354.214 361.978C354.662 362.24 354.606 362.697 354.088 363.003L348.561 366.245C348.043 366.549 347.261 366.581 346.812 366.319Z" fill="#161623"/>
<path d="M355.429 371.372L349.85 368.1C349.402 367.837 349.458 367.381 349.975 367.075L355.503 363.832C356.021 363.529 356.803 363.495 357.251 363.759L362.831 367.031C363.278 367.294 363.223 367.749 362.705 368.056L357.176 371.298C356.659 371.602 355.877 371.634 355.429 371.372Z" fill="#161623"/>
<path d="M364.044 376.425L358.464 373.152C358.017 372.889 358.073 372.434 358.59 372.128L364.119 368.885C364.636 368.582 365.419 368.549 365.866 368.812L371.445 372.084C371.893 372.347 371.838 372.802 371.32 373.108L365.792 376.351C365.274 376.655 364.492 376.689 364.044 376.425Z" fill="#161623"/>
<path d="M281.962 318.446L276.383 315.173C275.935 314.91 275.991 314.455 276.508 314.148L282.036 310.906C282.553 310.602 283.336 310.569 283.784 310.832L289.363 314.104C289.812 314.368 289.755 314.823 289.238 315.129L283.71 318.372C283.193 318.676 282.41 318.708 281.962 318.446Z" fill="#161623"/>
<path d="M273.392 313.417L267.813 310.145C267.365 309.882 267.421 309.427 267.939 309.119L273.466 305.878C273.984 305.574 274.766 305.541 275.214 305.804L280.794 309.076C281.242 309.339 281.185 309.795 280.668 310.101L275.14 313.344C274.62 313.647 273.834 313.68 273.392 313.417Z" fill="#161623"/>
<path d="M264.815 308.389L259.236 305.117C258.787 304.854 258.844 304.398 259.361 304.091L264.889 300.849C265.406 300.546 266.189 300.513 266.637 300.776L272.216 304.048C272.664 304.31 272.608 304.767 272.091 305.073L266.562 308.316C266.046 308.618 265.263 308.652 264.815 308.389Z" fill="#161623"/>
<path d="M256.242 303.361L250.662 300.088C250.215 299.826 250.27 299.37 250.788 299.064L256.316 295.821C256.834 295.517 257.616 295.485 258.064 295.747L263.643 299.02C264.091 299.283 264.035 299.739 263.517 300.045L257.989 303.288C257.476 303.591 256.689 303.624 256.242 303.361Z" fill="#161623"/>
<path d="M265.059 298.191L259.48 294.919C259.031 294.656 259.088 294.2 259.605 293.894L261.433 292.821C261.95 292.518 262.733 292.486 263.181 292.748L268.76 296.02C269.208 296.283 269.152 296.738 268.635 297.046L266.807 298.117C266.29 298.42 265.507 298.452 265.059 298.191Z" fill="#161623"/>
<path d="M276.247 304.748L270.668 301.476C270.22 301.213 270.276 300.757 270.794 300.451L272.621 299.379C273.138 299.076 273.921 299.042 274.368 299.306L279.947 302.578C280.396 302.84 280.339 303.296 279.822 303.603L277.995 304.675C277.477 304.981 276.695 305.017 276.247 304.748Z" fill="#161623"/>
<path d="M284.785 309.759L279.206 306.487C278.757 306.224 278.813 305.768 279.331 305.462L281.158 304.39C281.675 304.087 282.458 304.053 282.906 304.317L288.485 307.589C288.933 307.851 288.877 308.307 288.36 308.614L286.532 309.688C286.015 309.989 285.232 310.022 284.785 309.759Z" fill="#161623"/>
<path d="M293.322 314.766L287.741 311.494C287.294 311.231 287.35 310.776 287.867 310.47L289.695 309.397C290.212 309.094 290.994 309.061 291.443 309.323L297.022 312.596C297.47 312.859 297.414 313.315 296.897 313.621L295.069 314.693C294.552 314.996 293.769 315.03 293.322 314.766Z" fill="#161623"/>
<path d="M301.864 319.774L296.283 316.502C295.836 316.239 295.891 315.783 296.409 315.477L298.236 314.405C298.754 314.102 299.536 314.069 299.985 314.331L305.564 317.603C306.013 317.866 305.956 318.321 305.439 318.629L303.611 319.7C303.091 320.004 302.306 320.036 301.864 319.774Z" fill="#161623"/>
<path d="M349.52 347.728L343.941 344.456C343.493 344.194 343.549 343.738 344.066 343.432L345.893 342.36C346.411 342.057 347.193 342.023 347.641 342.286L353.22 345.558C353.668 345.821 353.611 346.277 353.094 346.583L351.267 347.655C350.757 347.958 349.971 347.992 349.52 347.728Z" fill="#161623"/>
<path d="M358.062 352.736L352.482 349.464C352.034 349.201 352.091 348.745 352.607 348.439L354.435 347.367C354.952 347.064 355.734 347.031 356.183 347.294L361.762 350.566C362.21 350.829 362.154 351.285 361.636 351.591L359.809 352.663C359.292 352.966 358.509 353 358.062 352.736Z" fill="#161623"/>
<path d="M366.597 357.742L361.018 354.47C360.57 354.207 360.626 353.751 361.143 353.445L362.97 352.372C363.488 352.07 364.27 352.036 364.719 352.299L370.298 355.572C370.746 355.834 370.689 356.29 370.172 356.597L368.345 357.668C367.827 357.974 367.045 358.011 366.597 357.742Z" fill="#161623"/>
<path d="M375.136 362.751L369.557 359.479C369.11 359.216 369.165 358.76 369.682 358.453L371.51 357.382C372.027 357.079 372.81 357.047 373.258 357.309L378.836 360.581C379.285 360.844 379.228 361.3 378.711 361.607L376.883 362.682C376.366 362.981 375.584 363.013 375.136 362.751Z" fill="#161623"/>
<path d="M290.578 323.499L284.999 320.227C284.55 319.964 284.607 319.508 285.124 319.202L290.652 315.96C291.169 315.656 291.952 315.623 292.4 315.886L297.979 319.158C298.427 319.421 298.371 319.877 297.854 320.183L292.326 323.425C291.808 323.729 291.026 323.762 290.578 323.499Z" fill="#161623"/>
<path d="M299.195 328.55L293.616 325.278C293.168 325.016 293.224 324.56 293.742 324.253L299.269 321.011C299.787 320.707 300.569 320.675 301.017 320.937L306.597 324.209C307.044 324.472 306.988 324.928 306.471 325.235L300.943 328.477C300.426 328.782 299.643 328.82 299.195 328.55Z" fill="#161623"/>
<path d="M307.81 333.605L302.231 330.333C301.782 330.071 301.838 329.615 302.355 329.308L307.884 326.066C308.401 325.762 309.184 325.73 309.631 325.992L315.212 329.269C315.66 329.532 315.604 329.987 315.087 330.295L309.558 333.537C309.04 333.835 308.257 333.869 307.81 333.605Z" fill="#161623"/>
<path d="M316.425 338.66L310.846 335.387C310.399 335.124 310.454 334.668 310.972 334.362L316.501 331.119C317.018 330.817 317.8 330.783 318.248 331.046L323.827 334.319C324.275 334.581 324.22 335.037 323.701 335.344L318.173 338.586C317.656 338.889 316.874 338.922 316.425 338.66Z" fill="#161623"/>
<path d="M325.043 343.713L319.464 340.44C319.016 340.178 319.072 339.721 319.59 339.415L325.118 336.173C325.635 335.87 326.417 335.837 326.866 336.1L332.445 339.372C332.893 339.634 332.837 340.091 332.319 340.397L326.791 343.639C326.274 343.943 325.492 343.975 325.043 343.713Z" fill="#161623"/>
<path d="M333.66 348.767L328.08 345.494C327.632 345.231 327.689 344.776 328.206 344.468L333.734 341.227C334.251 340.923 335.034 340.89 335.482 341.153L341.061 344.425C341.509 344.688 341.453 345.144 340.935 345.45L335.408 348.693C334.89 348.997 334.108 349.03 333.66 348.767Z" fill="#161623"/>
<path d="M342.274 353.819L336.698 350.547C336.249 350.284 336.306 349.829 336.822 349.522L342.351 346.28C342.868 345.976 343.651 345.943 344.099 346.206L349.678 349.478C350.125 349.741 350.07 350.197 349.552 350.503L344.024 353.746C343.506 354.049 342.721 354.082 342.274 353.819Z" fill="#161623"/>
<path d="M350.89 358.873L345.31 355.6C344.863 355.337 344.919 354.882 345.436 354.576L350.965 351.333C351.482 351.029 352.264 350.996 352.712 351.259L358.291 354.532C358.739 354.795 358.682 355.25 358.165 355.556L352.637 358.799C352.12 359.103 351.338 359.136 350.89 358.873Z" fill="#161623"/>
<path d="M359.512 363.926L353.933 360.654C353.486 360.391 353.541 359.935 354.059 359.629L359.587 356.386C360.104 356.083 360.886 356.05 361.335 356.312L366.914 359.585C367.362 359.848 367.305 360.303 366.788 360.61L361.257 363.849C360.74 364.156 359.954 364.189 359.512 363.926Z" fill="#161623"/>
<path d="M241.318 324.123L224.886 314.485C224.438 314.223 224.495 313.767 225.012 313.461L230.54 310.218C231.057 309.915 231.84 309.882 232.288 310.145L248.722 319.782C249.17 320.044 249.114 320.5 248.597 320.807L243.068 324.049C242.548 324.353 241.766 324.385 241.318 324.123Z" fill="#161623"/>
<path d="M347.17 386.205L330.737 376.568C330.29 376.305 330.346 375.849 330.863 375.543L336.392 372.3C336.909 371.997 337.692 371.963 338.139 372.227L354.571 381.864C355.019 382.127 354.963 382.582 354.446 382.889L348.917 386.131C348.4 386.435 347.617 386.468 347.17 386.205Z" fill="#161623"/>
<path d="M312.712 377.158L307.133 373.886C306.685 373.623 306.741 373.168 307.258 372.861L313.844 368.999C314.361 368.695 315.144 368.662 315.592 368.925L321.171 372.198C321.619 372.46 321.563 372.916 321.046 373.222L314.46 377.085C313.942 377.388 313.16 377.422 312.712 377.158Z" fill="#161623"/>
<path d="M250.142 340.46L241.219 335.226C240.771 334.964 240.827 334.508 241.344 334.202L247.93 330.339C248.448 330.036 249.23 330.003 249.678 330.266L258.601 335.499C259.049 335.762 258.993 336.217 258.475 336.524L251.89 340.387C251.375 340.69 250.59 340.722 250.142 340.46Z" fill="#161623"/>
<path d="M304.41 372.293L295.486 367.06C295.038 366.797 295.095 366.341 295.612 366.034L302.197 362.172C302.715 361.869 303.497 361.836 303.945 362.098L312.868 367.332C313.316 367.594 313.259 368.051 312.742 368.357L306.157 372.219C305.639 372.519 304.857 372.552 304.41 372.293Z" fill="#161623"/>
<path d="M262.574 347.751L253.651 342.518C253.203 342.255 253.259 341.8 253.776 341.493L260.362 337.631C260.879 337.328 261.662 337.295 262.11 337.557L271.032 342.791C271.481 343.053 271.425 343.51 270.908 343.816L264.321 347.678C263.804 347.981 263.022 348.014 262.574 347.751Z" fill="#161623"/>
<path d="M262.17 337.593L300.965 360.347C301.446 360.629 301.446 361.087 300.965 361.369L294.245 365.308C293.763 365.59 292.983 365.59 292.501 365.308L253.711 342.553L262.17 337.593Z" fill="#161623"/>
<path d="M336.794 386.32L343.009 389.965C343.375 390.181 343.329 390.557 342.906 390.805L340.212 392.386C339.788 392.634 339.147 392.661 338.779 392.446L332.565 388.801C332.197 388.586 332.243 388.209 332.668 387.961L335.362 386.381C335.785 386.132 336.427 386.105 336.794 386.32Z" fill="#161623"/>
<path d="M328.106 381.225L334.321 384.868C334.689 385.083 334.642 385.46 334.218 385.709L331.524 387.293C331.1 387.542 330.463 387.569 330.092 387.353L323.878 383.706C323.512 383.491 323.558 383.114 323.981 382.866L326.675 381.286C327.098 381.037 327.739 381.01 328.106 381.225Z" fill="#161623"/>
<path d="M319.489 376.172L325.703 379.817C326.071 380.033 326.025 380.409 325.6 380.658L322.904 382.238C322.481 382.486 321.839 382.514 321.472 382.298L315.257 378.653C314.89 378.438 314.936 378.061 315.361 377.812L318.054 376.232C318.484 375.984 319.121 375.957 319.489 376.172Z" fill="#161623"/>
<path d="M332.863 378.434L339.077 382.079C339.445 382.294 339.399 382.671 338.975 382.92L336.281 384.5C335.857 384.748 335.215 384.775 334.848 384.56L328.633 380.915C328.266 380.699 328.312 380.323 328.737 380.074L331.43 378.494C331.854 378.245 332.495 378.22 332.863 378.434Z" fill="#161623"/>
<path d="M424.057 368.211L259.445 271.669C256.857 270.15 255.506 266.451 256.428 263.405L293.652 140.626C294.574 137.581 297.42 136.343 300.008 137.862L464.616 234.405C467.205 235.923 468.556 239.623 467.634 242.669L430.41 365.453C429.487 368.492 426.641 369.729 424.057 368.211Z" fill="url(#paint3_radial)"/>
<path d="M422.499 363.911L262.839 270.192C260.364 268.74 259.069 265.2 259.952 262.288L295.541 144.911C296.425 141.998 299.147 140.814 301.624 142.266L461.28 235.983C463.756 237.436 465.05 240.976 464.168 243.888L428.579 361.264C427.7 364.18 424.976 365.365 422.499 363.911Z" fill="url(#paint4_linear)"/>
<path opacity="0.4" d="M422.499 363.911L262.839 270.192C260.364 268.74 259.069 265.2 259.952 262.288L295.541 144.911C296.425 141.998 299.147 140.814 301.624 142.266L461.28 235.983C463.756 237.436 465.05 240.976 464.168 243.888L428.579 361.264C427.7 364.18 424.976 365.365 422.499 363.911Z" fill="#09133D"/>
<path d="M422.499 363.911L262.839 270.192C260.364 268.74 259.069 265.2 259.952 262.288L295.541 144.911C296.425 141.998 299.147 140.814 301.624 142.266L461.28 235.983C463.756 237.436 465.05 240.976 464.168 243.888L428.579 361.264C427.7 364.18 424.976 365.365 422.499 363.911Z" fill="#202235"/>
<path opacity="0.5" d="M413.922 328.043L305.841 264.652C304.141 263.655 303.255 261.226 303.86 259.227L328.299 178.609C328.905 176.61 330.775 175.798 332.473 176.794L440.554 240.185C442.255 241.182 443.142 243.611 442.536 245.61L418.093 326.227C417.49 328.227 415.621 329.039 413.922 328.043Z" fill="#09133D"/>
<path d="M399.318 329.987L291.236 266.597C289.536 265.601 288.65 263.172 289.255 261.173L313.698 180.555C314.302 178.556 316.173 177.743 317.871 178.74L425.952 242.13C427.652 243.127 428.539 245.556 427.934 247.555L403.491 328.172C402.886 330.171 401.018 330.984 399.318 329.987Z" fill="url(#paint5_radial)"/>
<g opacity="0.5">
<path opacity="0.5" d="M399.318 329.987L291.236 266.597C289.536 265.601 288.65 263.172 289.255 261.173L313.698 180.555C314.302 178.556 316.173 177.743 317.871 178.74L425.952 242.13C427.652 243.127 428.539 245.556 427.934 247.555L403.491 328.172C402.886 330.171 401.018 330.984 399.318 329.987Z" fill="#09133D"/>
</g>
<path d="M425.955 242.13L317.873 178.74C316.808 178.112 315.677 178.201 314.832 178.845C315.379 178.829 315.92 178.97 316.392 179.251L424.474 242.642C426.174 243.638 427.061 246.067 426.456 248.066L402.013 328.684C401.787 329.43 401.385 330.01 400.881 330.39C402.04 330.355 403.074 329.558 403.494 328.169L427.936 247.552C428.542 245.556 427.655 243.131 425.955 242.13Z" fill="#F6F6FA"/>
<path d="M263.002 395.82C261.513 395.82 260.085 395.506 258.997 394.866L215.694 369.47C214.545 368.795 213.915 367.834 213.915 366.759C213.915 365.513 214.786 364.287 216.303 363.397L238.592 350.323C241.316 348.726 245.312 348.57 247.699 349.963L291.001 375.361C292.15 376.034 292.78 376.996 292.781 378.071C292.781 379.317 291.911 380.543 290.394 381.434L268.102 394.508C266.622 395.376 264.769 395.82 263.002 395.82ZM243.713 350.3C242.147 350.3 240.485 350.683 239.219 351.425L216.929 364.498C215.808 365.155 215.161 365.98 215.161 366.76C215.161 367.539 215.789 368.061 216.317 368.369L259.62 393.768C261.584 394.917 265.178 394.756 267.472 393.408L289.762 380.335C290.883 379.678 291.525 378.854 291.525 378.073C291.525 377.291 290.898 376.772 290.371 376.463L247.071 351.068C246.192 350.556 244.985 350.3 243.713 350.3V350.3Z" fill="#161623"/>
<path d="M344.196 221.035L337.515 217.116C336.896 216.757 336.562 215.879 336.772 215.165C336.981 214.446 337.656 214.166 338.275 214.53L344.957 218.448C345.576 218.808 345.91 219.685 345.699 220.4C345.489 221.113 344.816 221.395 344.196 221.035Z" fill="#8A85B8"/>
<path d="M360.113 230.37L350.26 224.591C349.641 224.232 349.308 223.354 349.517 222.639C349.728 221.925 350.401 221.64 351.02 222.004L360.874 227.783C361.492 228.147 361.826 229.021 361.616 229.735C361.405 230.449 360.733 230.736 360.113 230.37Z" fill="#8A85B8"/>
<path d="M330.721 251.256L324.04 247.336C323.421 246.977 323.087 246.099 323.297 245.384C323.507 244.67 324.181 244.386 324.8 244.749L331.482 248.668C332.101 249.027 332.435 249.906 332.224 250.62C332.013 251.335 331.341 251.619 330.721 251.256Z" fill="#8A85B8"/>
<path d="M344.91 259.576L335.058 253.798C334.439 253.439 334.105 252.561 334.315 251.847C334.525 251.128 335.199 250.848 335.818 251.211L345.671 256.99C346.29 257.349 346.624 258.227 346.414 258.941C346.203 259.658 345.53 259.94 344.91 259.576Z" fill="#8A85B8"/>
<path d="M324.182 215.646L320.007 213.198C319.388 212.838 319.055 211.961 319.265 211.246C319.475 210.527 320.149 210.247 320.768 210.611L324.942 213.059C325.561 213.419 325.895 214.297 325.685 215.011C325.471 215.728 324.801 216.013 324.182 215.646Z" fill="#8A85B8"/>
<path d="M336.742 229.369L323.987 221.89C323.368 221.53 323.035 220.652 323.245 219.938C323.455 219.219 324.129 218.939 324.748 219.303L337.501 226.784C338.12 227.143 338.454 228.021 338.244 228.736C338.034 229.448 337.362 229.732 336.742 229.369Z" fill="#8A85B8"/>
<path d="M324.977 235.178L320.803 232.73C320.184 232.371 319.85 231.493 320.06 230.778C320.27 230.06 320.944 229.779 321.563 230.143L325.737 232.592C326.356 232.951 326.689 233.829 326.48 234.543C326.269 235.257 325.596 235.542 324.977 235.178Z" fill="#8A85B8"/>
<path d="M346.447 273.187L335.299 266.648C334.68 266.289 334.346 265.41 334.556 264.696C334.765 263.982 335.44 263.697 336.059 264.061L347.208 270.6C347.827 270.959 348.16 271.838 347.95 272.552C347.74 273.266 347.067 273.55 346.447 273.187Z" fill="#8A85B8"/>
<path d="M320.298 245.142L317.619 243.571C317 243.208 316.667 242.334 316.876 241.62C317.086 240.901 317.76 240.621 318.379 240.985L321.059 242.556C321.678 242.919 322.012 243.793 321.801 244.507C321.591 245.222 320.918 245.506 320.298 245.142Z" fill="#8A85B8"/>
<path d="M317.765 256.363L314.437 254.411C313.818 254.052 313.484 253.175 313.695 252.46C313.904 251.746 314.579 251.461 315.198 251.825L318.525 253.776C319.144 254.136 319.478 255.014 319.268 255.728C319.058 256.442 318.385 256.727 317.765 256.363Z" fill="#8A85B8"/>
<path d="M330.709 263.956L321.933 258.811C321.314 258.451 320.981 257.574 321.19 256.859C321.4 256.145 322.075 255.86 322.694 256.224L331.466 261.369C332.085 261.728 332.419 262.606 332.209 263.32C332.001 264.035 331.328 264.319 330.709 263.956Z" fill="#8A85B8"/>
<path d="M319.153 263.533L312.846 259.833C312.227 259.474 311.893 258.595 312.103 257.881C312.313 257.163 312.987 256.882 313.606 257.246L319.913 260.946C320.532 261.305 320.865 262.183 320.656 262.898C320.445 263.611 319.772 263.896 319.153 263.533Z" fill="#8A85B8"/>
<path d="M356.015 278.824L351.964 276.448C351.345 276.089 351.012 275.21 351.222 274.496C351.432 273.777 352.106 273.497 352.725 273.861L356.775 276.237C357.394 276.601 357.727 277.475 357.518 278.189C357.307 278.903 356.635 279.188 356.015 278.824Z" fill="#8A85B8"/>
<path d="M340.505 244.285L329.355 237.746C328.736 237.387 328.403 236.509 328.613 235.795C328.823 235.076 329.498 234.796 330.117 235.16L341.265 241.699C341.884 242.058 342.218 242.935 342.008 243.65C341.798 244.364 341.125 244.649 340.505 244.285Z" fill="#8A85B8"/>
<path d="M341.829 238.707L322.398 227.31C321.779 226.951 321.445 226.072 321.655 225.357C321.864 224.643 322.539 224.359 323.158 224.722L342.59 236.12C343.209 236.479 343.543 237.357 343.333 238.072C343.121 238.786 342.448 239.071 341.829 238.707Z" fill="#7574AD"/>
<path d="M330.36 244.69L319.212 238.151C318.593 237.792 318.259 236.913 318.469 236.199C318.679 235.481 319.353 235.2 319.972 235.564L331.12 242.103C331.739 242.462 332.072 243.341 331.863 244.055C331.653 244.769 330.98 245.053 330.36 244.69Z" fill="#7574AD"/>
<path d="M348.961 249.245L344.91 246.869C344.292 246.509 343.958 245.632 344.168 244.917C344.377 244.198 345.052 243.918 345.671 244.282L349.722 246.658C350.341 247.017 350.674 247.895 350.465 248.609C350.254 249.329 349.582 249.608 348.961 249.245Z" fill="#7574AD"/>
<path d="M390.166 247.995L366.178 233.927C365.559 233.567 365.226 232.689 365.436 231.975C365.645 231.256 366.32 230.976 366.939 231.34L390.927 245.408C391.546 245.772 391.879 246.646 391.669 247.36C391.459 248.072 390.786 248.359 390.166 247.995Z" fill="#7574AD"/>
<path d="M329.43 256.852L316.028 248.992C315.409 248.633 315.076 247.754 315.285 247.04C315.495 246.321 316.17 246.041 316.789 246.404L330.189 254.269C330.808 254.628 331.142 255.507 330.932 256.221C330.722 256.931 330.049 257.215 329.43 256.852Z" fill="var(--main-color)"/>
<path d="M331.451 213.558L321.598 207.781C320.979 207.421 320.646 206.543 320.856 205.829C321.066 205.11 321.741 204.83 322.359 205.193L332.211 210.975C332.83 211.335 333.163 212.213 332.953 212.927C332.744 213.637 332.071 213.922 331.451 213.558Z" fill="var(--main-color)"/>
<path d="M317.092 268.678L305.681 261.985C305.062 261.621 304.728 260.748 304.939 260.033C305.148 259.314 305.823 259.034 306.442 259.398L317.853 266.09C318.471 266.454 318.805 267.328 318.595 268.042C318.384 268.757 317.712 269.041 317.092 268.678Z" fill="#7574AD"/>
<path d="M392.858 235.463L387.974 232.598C387.521 232.329 387.278 231.694 387.431 231.172C387.585 230.649 388.077 230.442 388.529 230.708L393.414 233.572C393.866 233.841 394.11 234.477 393.957 234.999C393.804 235.521 393.311 235.729 392.858 235.463Z" fill="#F6F6FA"/>
<path d="M402.174 240.927L397.29 238.062C396.836 237.792 396.593 237.158 396.747 236.636C396.9 236.114 397.392 235.905 397.845 236.171L402.729 239.035C403.182 239.305 403.425 239.94 403.272 240.463C403.118 240.984 402.627 241.193 402.174 240.927Z" fill="#F6F6FA"/>
<path d="M411.491 246.391L406.606 243.526C406.154 243.257 405.91 242.622 406.064 242.099C406.217 241.577 406.709 241.37 407.162 241.636L412.046 244.5C412.5 244.77 412.743 245.405 412.589 245.926C412.436 246.449 411.943 246.657 411.491 246.391Z" fill="#F6F6FA"/>
<path d="M416.068 249.08L415.921 248.99C415.468 248.721 415.225 248.086 415.378 247.564C415.532 247.042 416.024 246.834 416.476 247.1L416.623 247.189C417.076 247.459 417.319 248.094 417.165 248.616C417.013 249.138 416.521 249.346 416.068 249.08Z" fill="var(--main-color)"/>
<path d="M163.986 307.144C160.848 307.147 157.765 306.31 155.047 304.719L122.328 285.526C121.639 285.123 121.067 284.542 120.669 283.842C120.271 283.143 120.062 282.349 120.062 281.541C120.062 280.733 120.271 279.939 120.669 279.24C121.067 278.54 121.639 277.959 122.328 277.556L155.043 258.367C157.762 256.777 160.845 255.94 163.983 255.94C167.12 255.94 170.203 256.777 172.922 258.367L205.637 277.557C206.326 277.96 206.898 278.541 207.296 279.241C207.694 279.94 207.903 280.734 207.903 281.542C207.903 282.35 207.694 283.144 207.296 283.843C206.898 284.543 206.326 285.124 205.637 285.527L172.922 304.716C170.205 306.308 167.123 307.145 163.986 307.144ZM156.11 302.846C158.506 304.245 161.222 304.982 163.986 304.982C166.75 304.982 169.466 304.245 171.862 302.846L204.577 283.657C204.941 283.443 205.243 283.135 205.453 282.764C205.663 282.394 205.773 281.974 205.773 281.546C205.773 281.119 205.663 280.699 205.453 280.329C205.243 279.958 204.941 279.65 204.577 279.436L171.862 260.246C169.466 258.846 166.75 258.109 163.986 258.109C161.222 258.109 158.506 258.846 156.11 260.246L123.395 279.435C123.031 279.649 122.729 279.957 122.519 280.327C122.309 280.698 122.198 281.118 122.198 281.546C122.198 281.973 122.309 282.393 122.519 282.764C122.729 283.134 123.031 283.442 123.395 283.656L156.11 302.846Z" fill="var(--main-color)"/>
<path opacity="0.6" d="M163.821 295.176C176.233 295.176 186.294 289.275 186.294 281.996C186.294 274.716 176.233 268.815 163.821 268.815C151.41 268.815 141.349 274.716 141.349 281.996C141.349 289.275 151.41 295.176 163.821 295.176Z" fill="#030830"/>
<path d="M197.133 188.056H133.124L139.078 258.458C139.078 262.369 141.621 266.279 146.708 269.262C156.882 275.229 173.376 275.229 183.55 269.262C188.637 266.278 191.18 262.368 191.18 258.457L197.133 188.056Z" fill="url(#paint6_radial)"/>
<path opacity="0.4" d="M197.133 188.056H133.124L134.103 199.638C135.57 201.549 137.544 203.38 140.036 205.06C152.267 213.302 172.449 214.891 186.22 208.955L184.088 260.447C184 262.692 183.233 264.874 181.801 266.586C179.728 269.065 175.733 271.982 168.054 273.63C173.713 273.258 179.207 271.808 183.548 269.262C188.635 266.279 191.178 262.369 191.178 258.458L195.953 201.997L197.133 188.056Z" fill="#09133D"/>
<path opacity="0.4" d="M165.128 206.827C182.804 206.827 197.133 198.423 197.133 188.056C197.133 177.69 182.804 169.286 165.128 169.286C147.453 169.286 133.124 177.69 133.124 188.056C133.124 198.423 147.453 206.827 165.128 206.827Z" fill="#09133D"/>
<path opacity="0.4" d="M165.129 197.608C180.354 197.608 192.695 190.369 192.695 181.44C192.695 172.511 180.354 165.272 165.129 165.272C149.905 165.272 137.563 172.511 137.563 181.44C137.563 190.369 149.905 197.608 165.129 197.608Z" fill="#09133D"/>
<path d="M199.031 187.174L199.026 187.117C199.026 187.085 199.02 187.052 199.016 187.021L198.403 180.717L198.375 180.788C198.101 176.017 194.866 171.293 188.656 167.651C175.659 160.03 154.594 160.03 141.599 167.651C135.233 171.386 131.994 176.256 131.866 181.149L131.859 181.133L131.273 186.746C131.257 186.892 131.238 187.038 131.227 187.184L131.218 187.274H131.224C130.87 192.621 134.172 198.036 141.133 202.119C154.385 209.891 175.872 209.892 189.125 202.119C196.13 198.01 199.429 192.553 199.031 187.174Z" fill="url(#paint7_linear)"/>
<path d="M165.129 197.608C180.354 197.608 192.695 190.369 192.695 181.44C192.695 172.511 180.354 165.272 165.129 165.272C149.905 165.272 137.563 172.511 137.563 181.44C137.563 190.369 149.905 197.608 165.129 197.608Z" fill="url(#paint8_linear)"/>
<path d="M163.822 197.608C179.047 197.608 191.389 190.369 191.389 181.44C191.389 172.511 179.047 165.272 163.822 165.272C148.598 165.272 136.256 172.511 136.256 181.44C136.256 190.369 148.598 197.608 163.822 197.608Z" fill="url(#paint9_linear)"/>
<path opacity="0.4" d="M148.908 172.416C159.673 166.101 177.127 166.101 187.893 172.416C188.03 172.497 188.145 172.585 188.278 172.666C187.152 171.656 185.927 170.765 184.622 170.008C173.857 163.693 156.402 163.693 145.637 170.008C135.01 176.24 134.895 186.291 145.253 192.622C138.337 186.358 139.548 177.905 148.908 172.416Z" fill="#09133D"/>
<path d="M145.637 172.814C156.403 166.499 173.857 166.499 184.621 172.814C189.396 175.613 192.049 179.185 192.588 182.843C193.266 178.251 190.614 173.521 184.621 170.008C173.857 163.693 156.403 163.693 145.637 170.008C139.646 173.522 136.994 178.251 137.671 182.843C138.212 179.184 140.864 175.613 145.637 172.814Z" fill="url(#paint10_linear)"/>
<path d="M188.864 167.801C175.887 160.035 154.742 159.845 141.634 167.379C128.526 174.912 128.419 187.312 141.395 195.078C154.372 202.844 175.516 203.034 188.624 195.501C201.732 187.969 201.839 175.567 188.864 167.801ZM184.62 192.872C181.024 194.981 176.675 196.369 172.084 197.069L171.584 195.399C171.486 195.071 171.287 194.784 171.017 194.579C170.746 194.375 170.418 194.264 170.081 194.264H160.178C159.84 194.264 159.511 194.374 159.239 194.578C158.968 194.783 158.768 195.07 158.67 195.399L158.17 197.069C153.579 196.369 149.232 194.98 145.636 192.871C134.87 186.558 134.87 176.321 145.636 170.008C156.402 163.694 173.855 163.693 184.62 170.008C195.385 176.322 195.387 186.558 184.62 192.872Z" fill="url(#paint11_radial)"/>
<path d="M184.619 168.811C173.854 162.497 156.4 162.496 145.635 168.811C139.993 172.12 137.314 176.506 137.589 180.84C137.835 176.905 140.514 173.012 145.635 170.008C156.4 163.694 173.854 163.694 184.619 170.008C189.747 173.013 192.422 176.905 192.665 180.841C192.944 176.507 190.264 172.12 184.619 168.811Z" fill="#F6F6FA"/>
<path d="M188.624 194.304C175.516 201.836 154.371 201.647 141.395 193.881C135.22 190.186 132.014 185.438 131.757 180.67C131.502 185.836 134.704 191.074 141.395 195.078C154.371 202.844 175.516 203.033 188.624 195.501C195.494 191.549 198.786 186.268 198.502 181.013C198.261 185.866 194.972 190.656 188.624 194.304Z" fill="#F6F6FA"/>
<path d="M168.778 196.314H161.481C161.449 196.314 161.423 196.34 161.423 196.373V197.881C161.423 197.913 161.449 197.939 161.481 197.939H168.778C168.81 197.939 168.835 197.913 168.835 197.881V196.373C168.835 196.34 168.81 196.314 168.778 196.314Z" fill="#1C226D"/>
<path d="M168.086 196.314H162.17C161.971 196.314 161.781 196.394 161.641 196.537C161.501 196.679 161.422 196.872 161.422 197.073V197.18C161.426 197.249 161.44 197.317 161.462 197.382C161.504 197.223 161.595 197.083 161.723 196.982C161.851 196.881 162.008 196.826 162.17 196.824H168.086C168.247 196.826 168.404 196.881 168.532 196.982C168.66 197.083 168.751 197.224 168.793 197.382C168.815 197.317 168.829 197.249 168.833 197.18V197.073C168.833 196.872 168.754 196.679 168.614 196.537C168.474 196.394 168.284 196.314 168.086 196.314Z" fill="url(#paint12_linear)"/>
<path d="M166.035 251.227C165.686 252.558 164.831 253.695 163.658 254.386C162.484 255.078 161.088 255.267 159.777 254.913C158.466 254.559 157.347 253.69 156.666 252.498C155.986 251.306 155.799 249.888 156.148 248.556C156.873 245.784 159.448 244.999 162.177 245.736C164.907 246.474 166.758 248.454 166.035 251.227Z" fill="var(--main-color)"/>
<path d="M170.06 245.754C169.031 246.776 167.714 246.644 166.84 245.735C165.967 244.826 165.868 243.49 166.895 242.464C167.923 241.438 169.882 240.937 170.756 241.847C171.631 242.757 171.091 244.732 170.06 245.754Z" fill="var(--main-color)"/>
<path d="M164.712 241.408C164.46 242.845 163.313 243.518 162.082 243.294C160.85 243.071 160.002 242.037 160.254 240.6C160.506 239.163 161.81 237.593 163.042 237.815C164.274 238.037 164.965 239.968 164.712 241.408Z" fill="var(--main-color)"/>
<path d="M158.12 240.743C158.667 242.09 158.054 243.287 156.897 243.77C155.741 244.253 154.48 243.845 153.933 242.493C153.385 241.14 153.658 239.108 154.817 238.625C155.976 238.142 157.572 239.39 158.12 240.743Z" fill="var(--main-color)"/>
<path opacity="0.5" d="M167.225 197.126C167.225 197.126 185.121 191.035 177.875 170.146C170.629 149.257 156.521 142.892 162.204 126.185C162.204 126.185 153.298 139.713 161.621 158.016C169.944 176.318 171.768 174.215 171.671 182.969C171.554 193.367 163.285 197.131 163.285 197.131L167.225 197.126Z" fill="white"/>
<path opacity="0.5" d="M168.835 129.088C168.835 129.088 166.973 116.592 178.51 104C178.51 104 168.308 127.15 171.645 138.581C171.645 138.581 168.945 131.314 168.835 129.088Z" fill="white"/>
</g>
<defs>
<filter id="filter0_d" x="27" y="89" width="531.719" height="407.514" filterUnits="userSpaceOnUse" color-interpolation-filters="sRGB">
<feFlood flood-opacity="0" result="BackgroundImageFix"/>
<feColorMatrix in="SourceAlpha" type="matrix" values="0 0 0 0 0 0 0 0 0 0 0 0 0 0 0 0 0 0 127 0"/>
<feOffset/>
<feGaussianBlur stdDeviation="7.5"/>
<feColorMatrix type="matrix" values="0 0 0 0 0 0 0 0 0 0 0 0 0 0 0 0 0 0 0.25 0"/>
<feBlend mode="normal" in2="BackgroundImageFix" result="effect1_dropShadow"/>
<feBlend mode="normal" in="SourceGraphic" in2="effect1_dropShadow" result="shape"/>
</filter>
<radialGradient id="paint0_radial" cx="0" cy="0" r="1" gradientUnits="userSpaceOnUse" gradientTransform="translate(299.744 130.804) scale(255.497 259.547)">
<stop stop-color="#8A85B8"/>
<stop offset="0.47" stop-color="#7574AD"/>
<stop offset="0.59" stop-color="#54537F"/>
<stop offset="0.68" stop-color="#3B395B"/>
<stop offset="0.74" stop-color="#383E5C"/>
</radialGradient>
<radialGradient id="paint1_radial" cx="0" cy="0" r="1" gradientUnits="userSpaceOnUse" gradientTransform="translate(326717 434423) scale(899111 523791)">
<stop stop-color="#8A85B8"/>
<stop offset="0.47" stop-color="#7574AD"/>
<stop offset="0.59" stop-color="#54537F"/>
<stop offset="0.68" stop-color="#3B395B"/>
<stop offset="0.74" stop-color="#383E5C"/>
</radialGradient>
<radialGradient id="paint2_radial" cx="0" cy="0" r="1" gradientUnits="userSpaceOnUse" gradientTransform="translate(247.096 334.268) scale(250.536 254.507)">
<stop stop-color="#F6F6FA"/>
<stop offset="0.29" stop-color="#837DB2"/>
<stop offset="0.35" stop-color="#6D6898"/>
<stop offset="0.44" stop-color="#524F77"/>
<stop offset="0.51" stop-color="#413F62"/>
<stop offset="0.56" stop-color="#3B395B"/>
<stop offset="0.88" stop-color="#393C5C"/>
<stop offset="0.95" stop-color="#383E5C"/>
</radialGradient>
<radialGradient id="paint3_radial" cx="0" cy="0" r="1" gradientUnits="userSpaceOnUse" gradientTransform="translate(454368 208891) scale(612106 669509)">
<stop stop-color="#F6F6FA"/>
<stop offset="0.29" stop-color="#837DB2"/>
<stop offset="0.35" stop-color="#6D6898"/>
<stop offset="0.44" stop-color="#524F77"/>
<stop offset="0.51" stop-color="#413F62"/>
<stop offset="0.56" stop-color="#3B395B"/>
<stop offset="0.88" stop-color="#393C5C"/>
<stop offset="0.95" stop-color="#383E5C"/>
</radialGradient>
<linearGradient id="paint4_linear" x1="259.675" y1="253.088" x2="464.448" y2="253.088" gradientUnits="userSpaceOnUse">
<stop stop-color="#3C3689"/>
<stop offset="1" stop-color="#50418E"/>
</linearGradient>
<radialGradient id="paint5_radial" cx="0" cy="0" r="1" gradientUnits="userSpaceOnUse" gradientTransform="translate(151740 43371.4) scale(625965 684662)">
<stop stop-color="#F6F6FA"/>
<stop offset="0.29" stop-color="#837DB2"/>
<stop offset="0.35" stop-color="#6D6898"/>
<stop offset="0.44" stop-color="#524F77"/>
<stop offset="0.51" stop-color="#413F62"/>
<stop offset="0.56" stop-color="#3B395B"/>
<stop offset="0.88" stop-color="#393C5C"/>
<stop offset="0.95" stop-color="#383E5C"/>
</radialGradient>
<radialGradient id="paint6_radial" cx="0" cy="0" r="1" gradientUnits="userSpaceOnUse" gradientTransform="translate(62284 100113) scale(136965 183336)">
<stop stop-color="#F6F6FA"/>
<stop offset="0.29" stop-color="#837DB2"/>
<stop offset="0.35" stop-color="#6D6898"/>
<stop offset="0.44" stop-color="#524F77"/>
<stop offset="0.51" stop-color="#413F62"/>
<stop offset="0.56" stop-color="#3B395B"/>
<stop offset="0.88" stop-color="#393C5C"/>
<stop offset="0.95" stop-color="#383E5C"/>
</radialGradient>
<linearGradient id="paint7_linear" x1="131.199" y1="184.943" x2="199.061" y2="184.943" gradientUnits="userSpaceOnUse">
<stop stop-color="#8A85B8"/>
<stop offset="0.08" stop-color="#8580B4"/>
<stop offset="0.27" stop-color="#837DB2"/>
<stop offset="0.29" stop-color="#7B76A9"/>
<stop offset="0.38" stop-color="#64608D"/>
<stop offset="0.48" stop-color="#524F77"/>
<stop offset="0.59" stop-color="#454267"/>
<stop offset="0.71" stop-color="#3D3B5E"/>
<stop offset="0.88" stop-color="#3B395B"/>
</linearGradient>
<linearGradient id="paint8_linear" x1="137.563" y1="181.44" x2="192.695" y2="181.44" gradientUnits="userSpaceOnUse">
<stop offset="0.16" stop-color="#383E5C"/>
<stop offset="0.55" stop-color="#393F5E"/>
<stop offset="0.7" stop-color="#3F4465"/>
<stop offset="0.8" stop-color="#474C70"/>
<stop offset="0.88" stop-color="#545781"/>
<stop offset="0.95" stop-color="#646597"/>
<stop offset="1" stop-color="#7574AD"/>
</linearGradient>
<linearGradient id="paint9_linear" x1="136.256" y1="181.44" x2="191.389" y2="181.44" gradientUnits="userSpaceOnUse">
<stop stop-color="#383E5C"/>
<stop offset="1" stop-color="#7574AD"/>
</linearGradient>
<linearGradient id="paint10_linear" x1="59717.8" y1="13870.3" x2="103055" y2="13870.3" gradientUnits="userSpaceOnUse">
<stop stop-color="#383E5C"/>
<stop offset="1" stop-color="#7574AD"/>
</linearGradient>
<radialGradient id="paint11_radial" cx="0" cy="0" r="1" gradientUnits="userSpaceOnUse" gradientTransform="translate(61116.3 26960.7) scale(93492.6 54839.7)">
<stop stop-color="#F6F6FA"/>
<stop offset="0.29" stop-color="#837DB2"/>
<stop offset="0.35" stop-color="#6D6898"/>
<stop offset="0.44" stop-color="#524F77"/>
<stop offset="0.51" stop-color="#413F62"/>
<stop offset="0.56" stop-color="#3B395B"/>
<stop offset="0.88" stop-color="#393C5C"/>
<stop offset="0.95" stop-color="#383E5C"/>
</radialGradient>
<linearGradient id="paint12_linear" x1="160.766" y1="196.848" x2="170.384" y2="196.848" gradientUnits="userSpaceOnUse">
<stop stop-color="#1D225B"/>
<stop offset="0.24" stop-color="#1F235D"/>
<stop offset="0.37" stop-color="#272764"/>
<stop offset="0.47" stop-color="#352F70"/>
<stop offset="0.56" stop-color="#473980"/>
<stop offset="0.61" stop-color="#57418E"/>
<stop offset="0.65" stop-color="#715184"/>
<stop offset="0.72" stop-color="#966876"/>
<stop offset="0.79" stop-color="#B37A6A"/>
<stop offset="0.86" stop-color="#C78762"/>
<stop offset="0.93" stop-color="#D48E5E"/>
<stop offset="1" stop-color="#D8915C"/>
</linearGradient>
</defs>
</svg>
