<svg width="246" height="255" viewBox="0 0 246 255" fill="none" xmlns="http://www.w3.org/2000/svg">
<rect width="246" height="255" rx="123" fill="#3E3E3E"/>
<mask id="mask0_2510_975" style="mask-type:alpha" maskUnits="userSpaceOnUse" x="0" y="0" width="246" height="255">
<rect width="246" height="255" rx="123" fill="#3E3E3E"/>
</mask>
<g mask="url(#mask0_2510_975)">
<path d="M151.087 129.665L150.613 127.851L151.005 129.639L151.087 129.665Z" fill="#4E25FE"/>
<path d="M152.518 96.9033C152.387 97.112 152.269 97.3162 152.108 97.5332C152.302 97.3566 152.478 97.1589 152.635 96.9327C152.596 96.9189 152.553 96.9263 152.518 96.9033Z" fill="#4E25FE"/>
<path d="M153.695 93.6309C153.56 94.4676 153.329 95.2188 153.027 95.912C153.077 95.9056 153.12 95.8991 153.18 95.8936C153.435 95.239 153.594 94.4685 153.695 93.6309Z" fill="#4E25FE"/>
<path d="M73.5116 78.0635C73.5116 78.0635 73.5116 78.0635 73.5143 78.0653V78.0635H73.5116ZM87.226 129.639L67.6614 135.931L80.5484 139.25L81.2528 139.553L85.4508 137.877L87.2288 129.638H87.226V129.639Z" fill="#2401BA"/>
<path d="M54.9622 253.788L54.9595 253.896H55.1083C55.0982 253.863 55.0899 253.84 55.0734 253.788H54.9622Z" fill="#2401BA"/>
<path d="M184.736 148.645C186.747 149.627 192.86 152.623 199.556 155.998C194.954 153.484 189.927 150.988 184.736 148.645Z" fill="#4E25FE"/>
<path d="M54.9714 253.469L54.9631 253.788H55.0743C55.0476 253.708 55.0118 253.597 54.9714 253.469Z" fill="#4E25FE"/>
<path d="M47.5678 221.648C45.3673 208.155 41.9307 194.671 37.729 190.061C35.9198 188.076 29.435 183.485 24.2277 183.118C23.3533 183.057 22.5543 182.97 21.8095 182.864C20.7552 191.637 17.4866 223.891 25.0588 233.762C32.1746 243.038 47.4585 246.042 53.035 246.851C51.4582 241.07 49.2843 232.179 47.5678 221.648Z" fill="#4E25FE"/>
<path d="M110.329 151.987L119.741 166.327L119.906 166.407L119.907 166.406L129.231 151.987L158.572 139.251L151.964 136.95C151.27 140.04 148.351 142.627 144.315 143.289C136.167 144.627 123.802 146.247 111.866 146.276C107.443 143.106 101.399 138.488 100.747 136.496C99.7061 133.316 98.9429 123.95 98.9429 123.95C101.052 125.759 119.931 128.578 127.39 125.596C129.324 124.822 131.844 123.11 134.425 121.099C116.131 126.155 100.825 120.936 90.3871 116.744C90.2723 116.697 90.1548 116.641 90.0391 116.591L87.2269 129.639H87.2278L85.4517 137.878H85.4507L81.2537 139.553L110.329 151.987Z" fill="#BFBEC9"/>
<path d="M98.9429 123.95C98.9429 123.95 99.7061 133.318 100.747 136.496C101.399 138.489 107.444 143.106 111.866 146.276C123.802 146.247 136.167 144.628 144.314 143.29C148.351 142.627 151.27 140.04 151.964 136.95L151.621 136.832L151.004 129.64H151.005L150.613 127.851L150.609 127.839H150.61L147.897 115.467C144.799 117.224 141.5 118.786 138.039 119.98C136.822 120.4 135.618 120.77 134.426 121.1C131.844 123.112 129.324 124.823 127.391 125.596C119.931 128.579 101.051 125.759 98.9429 123.95ZM130.563 128.358C130.563 128.358 129.503 134.338 116.56 136.519C103.618 138.7 108.488 128.735 108.488 128.735C108.488 128.735 112.419 131.871 120.374 131.878C127.289 131.883 130.563 128.358 130.563 128.358Z" fill="#F6F6FB"/>
<path d="M108.487 128.735C108.487 128.735 103.617 138.701 116.559 136.519C129.502 134.338 130.563 128.358 130.563 128.358C130.563 128.358 127.29 131.883 120.373 131.878C112.419 131.871 108.487 128.735 108.487 128.735Z" fill="#BFBEC9"/>
<path d="M118.521 88.7413C118.517 88.7422 118.508 88.744 118.504 88.745C118.509 88.7459 118.519 88.7477 118.525 88.7496C118.592 88.7422 118.684 88.7247 118.521 88.7413Z" fill="#F2E0E0"/>
<path d="M122.992 84.7383C123.183 84.7723 123.373 84.8082 123.533 84.8734C123.373 84.8082 123.19 84.7649 122.992 84.7383Z" fill="#F2E0E0"/>
<path d="M118.496 88.7432C118.49 88.745 118.501 88.7441 118.5 88.7459C118.501 88.7459 118.503 88.745 118.504 88.745C118.501 88.745 118.498 88.7441 118.496 88.7432Z" fill="#F2E0E0"/>
<path d="M88.7854 98.1544C88.317 97.6101 87.8486 97.0575 87.3784 96.4746C87.5566 96.8056 87.7788 97.1486 88.0387 97.5035C88.0856 97.5467 88.1186 97.6092 88.1673 97.6497C88.3372 97.7903 88.5659 97.9752 88.7854 98.1544Z" fill="#F2E0E0"/>
<path d="M160.323 64.5337C159.461 64.142 158.616 63.9728 157.812 63.9121C155.008 63.7043 152.775 65.0614 152.775 65.0614C152.775 65.0614 152.773 65.0633 152.769 65.0697C152.684 65.1727 151.71 66.368 151.26 67.1495C151.26 67.1495 148.039 64.6817 147.928 63.3411C147.819 62.0006 148.589 57.498 148.589 57.498C148.589 57.498 144.93 56.1712 143.844 52.9329C143.832 52.9044 143.822 52.8768 143.81 52.8483C143.783 52.7637 143.737 52.6911 143.713 52.6019C143.707 52.5799 143.701 52.5513 143.695 52.5274C142.826 50.1387 142.334 45.9809 141.055 42.6856C140.151 40.6362 138.908 38.869 137.119 37.9826C132.519 35.6261 127.523 36.5142 127.523 36.5142C127.523 36.5142 129.451 29.3563 131.877 26.1474C131.514 26.026 131.145 25.9277 130.778 25.8164C130.292 27.2278 129.395 29.6652 128.271 31.9611C128.271 31.963 128.269 31.9648 128.269 31.9675C128.252 31.9997 128.235 32.0319 128.218 32.0641C128.218 32.0641 127.163 34.451 125.306 37.2066C123.448 39.9604 120.786 43.0847 117.575 44.5539C111.204 47.476 93.2134 52.7233 92.9324 52.8042L108.006 44.5558C107.794 44.61 100.991 46.3827 94.9712 49.3691C93.4421 50.1268 92.1334 51.0149 91.0322 51.9197C91.2214 53.0745 91.3628 53.9976 91.4033 54.4096C91.5667 56.1014 92.3712 81.7817 95.0071 88.5967C99.093 99.163 118.122 110.172 120.968 111.772C123.275 111.722 124.827 111.53 124.827 111.53C124.827 111.53 124.859 111.536 124.881 111.538C124.903 111.534 124.928 111.534 124.95 111.53C131.148 110.233 137.668 107.051 142.896 103.928C142.769 103.705 142.8 103.421 143.007 103.261C143.233 103.087 143.552 103.128 143.727 103.35C143.729 103.354 143.749 103.381 143.761 103.399C147.432 101.15 150.39 98.9847 152.004 97.6487C152.042 97.6165 152.068 97.5678 152.105 97.5338C152.266 97.3177 152.383 97.1117 152.514 96.9039C152.408 96.835 152.321 96.7302 152.288 96.5987C152.22 96.3219 152.388 96.0433 152.663 95.9725C152.685 95.9689 152.825 95.9404 153.022 95.9119C153.324 95.2195 153.555 94.4683 153.69 93.6298C153.698 93.5737 153.708 93.5167 153.714 93.4578C153.611 93.0965 150.328 81.3909 148.266 77.6681C146.17 73.8863 149.554 70.2655 149.554 70.2655L152.792 76.9656C152.95 77.2644 153.716 79.0537 154.24 79.6394C154.662 80.328 155.348 81.4562 156.164 82.8317C158.695 81.9739 161.168 78.0524 162.076 74.0022C162.076 74.0059 162.074 74.0224 162.074 74.0224C162.074 74.0224 164.184 66.2907 160.323 64.5337ZM122.539 52.4465L123.047 60.3924C123.047 60.3924 121.954 59.7084 121.451 57.4465C120.915 55.0311 122.539 52.4465 122.539 52.4465ZM135.569 65.2021C135.625 65.4081 135.696 65.6103 135.696 65.8338C135.696 67.2111 134.581 68.3273 133.205 68.3273C131.829 68.3273 130.716 67.2111 130.716 65.8338C130.716 65.4099 130.849 65.0283 131.035 64.6789C128.639 64.6587 127.524 64.2771 127.524 64.2771C127.524 64.2771 131.997 61.9187 135.127 63.3807C138.255 64.8408 139.341 66.0903 139.341 66.0903C139.341 66.0903 137.576 65.6021 135.569 65.2021ZM144.46 61.7266C143.742 61.939 127.184 62.1486 124.62 60.6729V60.6968C124.62 60.6968 124.537 60.6379 124.41 60.5147C124.387 60.4881 124.328 60.466 124.311 60.4403C124.301 60.4237 124.299 60.4016 124.289 60.386C123.92 59.9778 123.347 59.1337 123.124 57.624C122.759 55.1709 124.83 52.738 124.83 52.738L124.697 57.8023C125.697 55.6986 127.678 53.32 127.678 53.32C127.678 53.32 128.259 55.4725 129.739 55.763C132.535 56.3119 145.977 58.2179 145.977 58.2179C145.977 58.2179 145.212 61.505 144.46 61.7266Z" fill="#F6F6FB"/>
<path d="M83.1558 82.7812C83.1558 82.7812 83.1558 82.7813 83.1582 82.7836V82.7812H83.1558Z" fill="#2401BA"/>
<path d="M123.957 98.4378C123.979 97.9689 121.95 97.8558 119.112 97.4568C117.022 97.1625 113.945 97.1221 112.964 95.2519C112.831 94.9972 112.352 95.0257 112.212 94.7591C109.266 93.2723 107.216 91.3065 106.41 90.5554C106.269 90.423 106.363 90.1867 106.557 90.1867H108.699C107.342 89.4695 104.34 87.4467 103.299 86.5456C102.899 86.1999 102.652 85.9719 102.616 85.9388C102.188 85.1278 100.403 91.8591 109.376 97.9836C111.584 99.4906 114.239 102.252 114.892 102.301C115.236 102.327 123.784 102.042 123.957 98.4378Z" fill="#BFBEC9"/>
<path d="M105.23 78.7978C105.348 78.7417 105.469 78.6791 105.582 78.6387C105.571 78.6433 105.441 78.6994 105.23 78.7978Z" fill="#959BAB"/>
<path d="M122.692 79.6377C122.547 79.9301 122.304 80.3218 121.93 80.7741C120.679 80.3484 119.691 80.102 119.475 80.2933C119.092 80.6326 118.64 81.4141 118.317 82.0237C117.992 81.4141 117.54 80.6326 117.157 80.2933C116.675 79.863 112.332 81.62 109.773 82.7142L111.243 83.8635C111.243 83.8635 106.451 86.7708 106.741 85.4146C106.864 84.8372 107.092 83.9978 107.312 83.2236C107.581 82.2802 107.798 81.3249 107.987 80.3632C108.634 77.0577 112.242 66.9079 112.242 66.6219C112.242 65.8625 111.871 65.1012 111.219 64.4934C111.873 64.3867 112.186 64.2773 112.186 64.2773C112.186 64.2773 107.712 61.9189 104.584 63.3809C104.412 63.4599 104.269 63.5362 104.11 63.6153C101.301 63.6218 98.1928 62.9588 97.2166 61.9612C100.968 62.0762 111.838 61.9327 113.821 60.6749L113.818 60.697C113.818 60.697 113.894 60.6308 114.005 60.5232C114.033 60.4947 114.089 60.4708 114.108 60.4404C114.114 60.4303 114.116 60.4184 114.122 60.4083C114.396 60.1315 114.818 59.6488 115.251 58.9785C116.462 59.5798 117.577 60.7209 117.577 62.9018C117.577 63.0517 117.49 63.3597 117.351 63.7643C117.246 63.813 117.145 63.8792 117.089 63.9905C115.191 67.8595 110.881 77.0347 111.91 78.6796C112.505 79.6248 115.095 79.8768 117.69 79.8768C119.657 79.8777 121.587 79.7342 122.692 79.6377Z" fill="#CCCCCC"/>
<path d="M88.6008 97.6671C88.3813 97.4888 88.1526 97.304 87.9818 97.1624C87.9331 97.1219 87.9001 97.0594 87.8532 97.0162C87.6806 96.8543 87.5208 96.676 87.3784 96.4746C87.7412 97.7536 89.2841 99.6256 91.4148 101.019C90.5331 100.117 89.4944 98.7052 88.6008 97.6671Z" fill="#2401BA"/>
<path d="M111.911 78.6805C112.504 79.6257 115.095 79.8786 117.691 79.8786C119.658 79.8786 121.588 79.7351 122.692 79.6377C122.775 79.6303 122.889 79.622 122.96 79.6147C123.243 79.588 123.453 79.337 123.426 79.052C123.4 78.767 123.148 78.572 122.864 78.5849C118.398 78.9959 113.277 78.9141 112.789 78.1353C112.327 77.2002 115.143 70.3025 118.018 64.4483C118.143 64.1918 118.039 63.882 117.782 63.7569C117.64 63.6861 117.488 63.7036 117.352 63.7652C117.246 63.813 117.146 63.881 117.09 63.9923C115.192 67.8604 110.882 77.0347 111.911 78.6805Z" fill="#2401BA"/>
<path d="M121.451 57.4458C121.955 59.7086 123.047 60.3917 123.047 60.3917L122.54 52.4458C122.541 52.4467 120.915 55.0313 121.451 57.4458Z" fill="#2401BA"/>
<path d="M89.9446 49.8508C89.4303 50.1542 88.3723 50.7932 87.2169 51.5656C87.1765 51.9793 87.1499 52.3774 87.1499 52.7379C87.1499 53.3649 87.1986 54.3497 87.2748 55.5376L90.2725 49.665C90.1577 49.7257 90.0576 49.7892 89.9446 49.8508Z" fill="#959BAB"/>
<path d="M95.0096 88.5968C92.3738 81.7819 91.5702 56.1025 91.4068 54.4088C91.3673 53.9978 91.2249 53.0747 91.0348 51.9189C89.2898 53.3496 88.0684 54.8171 87.2969 55.8901C87.4824 58.6778 87.8076 62.5083 88.0656 65.9553C85.5474 64.7876 80.4163 63.0269 78.078 66.7056C75.2971 71.0803 78.4564 79.7646 82.2292 82.3078C82.4625 82.4577 82.6994 82.5974 83.1954 82.8006C83.3946 82.8824 83.5985 82.9523 83.8006 82.9873C84.0945 83.0378 84.3792 83.0608 84.6574 83.0673L90.0723 71.7837C90.0723 71.7837 91.2561 74.7821 91.2561 78.8893C91.2561 82.9965 86.5429 92.4126 87.3787 96.4747C87.8489 97.0577 88.3182 97.6112 88.7856 98.1546C89.6792 99.1926 90.5664 100.152 91.449 101.053C96.2605 104.662 104.183 108.573 108.995 110.225C113.094 111.632 117.768 111.842 120.973 111.773C118.125 110.172 99.0974 99.1641 95.0096 88.5968Z" fill="#BFBEC9"/>
<path d="M143.845 52.9304C143.835 52.9018 143.821 52.8761 143.812 52.8467C143.823 52.8743 143.834 52.9046 143.845 52.9304Z" fill="#2401BA"/>
<path d="M143.693 52.5269C143.117 50.3165 142.558 46.1091 141.052 42.6851C142.331 45.9804 142.823 50.1363 143.693 52.5269Z" fill="#2401BA"/>
<path d="M84.3782 34.234C78.2709 43.4157 78.7714 51.7367 79.9249 56.5593C80.0002 51.9307 80.768 41.1318 85.9707 32.7142C87.1095 30.8716 88.6102 29.3186 90.3111 27.9707C88.1602 29.5614 86.1278 31.6035 84.3782 34.234Z" fill="#2401BA"/>
<path d="M90.2761 49.6572C90.2761 49.6572 90.1494 49.7308 89.9446 49.8512C90.0566 49.7896 90.1576 49.7262 90.2715 49.6646L90.2761 49.6572Z" fill="#2401BA"/>
<path d="M80.8626 67.3144C78.563 68.1823 79.3317 71.9273 79.3317 71.9273C79.3317 71.9273 80.6716 70.4754 82.2016 71.9273C83.7326 73.3782 83.5673 78.5225 83.5673 78.5225C83.5673 78.5225 85.934 78.3303 86.0295 75.0736C86.126 71.8169 84.0568 66.109 80.8626 67.3144Z" fill="#959BAB"/>
<path d="M154.723 77.2304C154.678 77.0741 154.646 76.9647 154.646 76.9647C154.646 76.9647 154.791 77.1983 155.043 77.6083C155.617 78.0092 156.159 78.0625 156.159 78.0625C156.159 78.0625 155.993 72.9182 157.524 71.4673C159.055 70.0155 160.395 71.4673 160.395 71.4673C160.395 71.4673 161.164 67.7233 158.864 66.8544C155.67 65.649 153.602 71.357 153.697 74.6137C153.705 74.861 153.747 75.0578 153.778 75.2711L154.723 77.2304Z" fill="#CCCCCC"/>
<path d="M134.205 85.1702C134.765 85.789 135.251 86.4482 135.317 86.941C135.482 88.1832 135.822 89.7573 135.822 89.7573C135.822 89.7573 138.03 85.3559 136.466 84.202C135.767 83.6862 134.871 83.4747 134.087 83.3901C134.182 84.1395 134.234 84.7178 134.205 85.1702Z" fill="#CCCCCC"/>
<path d="M154.418 105.219C154.412 105.31 154.423 105.381 154.415 105.475C154.414 105.482 154.413 105.489 154.412 105.495C154.477 105.379 154.534 105.263 154.598 105.145L154.418 105.219Z" fill="#2401BA"/>
<path d="M151.372 99.85C151.12 99.7222 151.013 99.4142 151.138 99.1595C151.265 98.9048 151.567 98.799 151.823 98.9186C151.945 98.9774 154.73 100.403 154.417 105.219L154.597 105.146C155.94 102.657 157.021 100.222 157.422 98.2906C157.302 98.1803 157.19 98.0506 157.06 97.9596C154.974 96.505 152.999 96.9574 152.915 96.9776C152.817 97.0024 152.725 96.9657 152.635 96.9335C152.479 97.1587 152.302 97.3573 152.108 97.5339C152.07 97.5688 152.046 97.6176 152.006 97.6497C150.393 98.9866 147.433 101.149 143.763 103.399C143.93 103.63 144.869 105.053 144.864 107.965C144.863 108.311 144.848 108.719 144.824 109.164C145.173 109.027 145.52 108.887 145.871 108.74L145.978 108.702L146.832 110.948L147.586 107.993L153.349 105.654C153.358 105.563 153.378 105.476 153.385 105.385C153.76 101.097 151.471 99.8987 151.372 99.85Z" fill="#2401BA"/>
<path d="M73.5116 78.0635C73.5116 78.0635 73.5116 78.0635 73.5143 78.0653V78.0635H73.5116ZM87.226 129.639L67.6614 135.931L80.5484 139.25L81.2528 139.553L85.4508 137.877L87.2288 129.638H87.226V129.639Z" fill="#2401BA"/>
<path d="M83.5189 33.6602C75.977 44.998 78.1738 55.1157 79.6598 59.3185C80.1171 60.6131 80.5102 61.3661 80.5267 61.3955C80.6195 61.5675 80.7967 61.664 80.9786 61.664C81.064 61.664 81.1485 61.6447 81.2266 61.6006C81.4773 61.4627 81.5673 61.1491 81.4323 60.8981C81.4075 60.8549 80.5662 59.2403 79.9243 56.5583C78.7708 51.7358 78.2711 43.4147 84.3776 34.2331C86.1271 31.6025 88.1595 29.5604 90.3104 27.9697C99.3759 21.2614 110.578 22.7031 111.938 23.2511C112.171 23.3798 112.466 23.3127 112.616 23.0874C112.775 22.8502 112.713 22.5293 112.477 22.3694C112.048 22.0797 108.364 21.426 103.658 21.8995C102.698 21.9961 101.699 22.1358 100.671 22.3399C95.6151 23.344 88.5342 26.1207 83.5189 33.6602Z" fill="#4E25FE"/>
<path d="M134.018 85.9414C133.982 85.9745 133.735 86.1998 133.337 86.5455C133.654 86.3919 133.882 86.1915 134.018 85.9414Z" fill="#2401BA"/>
<path d="M134.203 85.1516C134.124 85.079 134.066 85.0265 134.034 84.998C134.135 85.0523 134.193 85.1056 134.203 85.1516Z" fill="#2401BA"/>
<path d="M118.499 88.746C118.496 88.7498 118.501 88.7517 118.525 88.7489C118.52 88.7479 118.509 88.746 118.504 88.7441C118.503 88.7451 118.5 88.746 118.499 88.746Z" fill="#2401BA"/>
<path d="M127.738 86.9024C126.529 86.4932 125.19 85.5499 123.535 84.8741C123.374 84.8079 123.184 84.7729 122.994 84.7389C121.225 84.4226 118.406 85.3439 118.406 85.3439C118.406 85.3439 114.757 84.1983 113.102 84.875C111.446 85.5508 110.107 86.4941 108.897 86.9033C107.765 87.2867 103.937 86.7231 102.616 85.9397C102.653 85.9728 102.899 86.2008 103.299 86.5466C104.339 87.4476 106.303 89.0723 107.66 89.7895C107.94 89.9375 108.204 90.0598 108.417 90.115C110.088 90.5425 117.483 88.9574 118.5 88.7468C118.501 88.7459 118.49 88.7468 118.496 88.744C118.498 88.745 118.502 88.745 118.505 88.745C118.509 88.744 118.518 88.7422 118.522 88.7413C118.684 88.7247 118.592 88.7422 118.526 88.7486C119.963 88.9987 126.656 90.514 128.218 90.114C129.469 89.7941 132.081 87.6324 133.337 86.5456C133.735 86.1999 133.982 85.9737 134.018 85.9416C132.699 86.7249 128.872 87.2858 127.738 86.9024Z" fill="#2401BA"/>
<path d="M151.005 129.64L151.622 136.832L151.964 136.95L158.571 139.252L171.268 135.931L151.087 129.665L151.006 129.64H151.005Z" fill="#2401BA"/>
<path d="M177.95 138.37C179.835 139.888 182.893 142.688 184.239 145.046C184.718 145.885 185.016 146.435 185.016 146.435L183.488 134.939L180.933 134.411L151.964 128.421C151.964 128.421 153.998 129.106 156.925 130.123C163.948 132.562 176.145 136.917 177.95 138.37Z" fill="#4E25FE"/>
<path d="M218.313 166.468C214.206 164.023 206.11 160.254 199.137 156.328C192.606 152.651 186.348 149.869 184.316 148.974C183.844 148.766 183.583 148.646 183.583 148.646C183.583 148.646 183.61 148.663 183.658 148.703C185.137 149.947 208.661 169.705 217.325 178.341C226.271 187.259 235.211 220.189 235.211 220.189C235.211 220.189 234.421 218.354 233.799 215.39C231.204 203.028 224.168 170.817 220.732 168.051C220.258 167.667 219.413 167.123 218.313 166.468Z" fill="#4E25FE"/>
<path d="M84.8144 82.4959C85.7304 82.4959 86.473 81.7524 86.473 80.8353C86.473 79.9183 85.7304 79.1748 84.8144 79.1748C83.8984 79.1748 83.1558 79.9183 83.1558 80.8353C83.1558 81.7524 83.8984 82.4959 84.8144 82.4959Z" fill="#2401BA"/>
<path d="M152.77 65.0688L151.261 67.1487C151.711 66.3671 152.685 65.1718 152.77 65.0688Z" fill="#F2E0E0"/>
<path d="M126.153 22.2657C128.915 24.5901 130.147 30.9353 128.417 34.3225C129.541 32.0266 131.535 29.1966 132.021 27.7852C132.275 27.0506 132.422 26.5807 132.422 26.5807C132.711 25.5767 132.807 24.671 132.771 23.8463C132.577 19.4283 128.221 15.9895 121.604 16.0668C118.021 16.1091 109.121 15.4121 99.623 17.7264C101.602 17.4781 103.67 17.3421 105.81 17.3246C114.84 17.3062 123.432 19.3695 126.153 22.2657Z" fill="#2401BA"/>
<path d="M105.818 18.3602C101.149 18.397 96.877 19.0369 93.1061 20.1559C92.1454 20.6597 91.2004 21.2289 90.2801 21.8789C88.0631 23.4448 85.9848 25.4538 84.1498 28.0374C72.6451 44.2345 79.1133 60.3921 79.1133 60.3921C79.1133 60.3921 79.2768 59.9903 79.6598 59.3182C78.1738 55.1153 75.9761 44.9977 83.5189 33.6599C88.5343 26.1204 95.6151 23.3436 100.671 22.3405C101.698 22.1364 102.698 21.9966 103.658 21.9001C109.435 20.4363 114.898 20.0032 117.579 19.7964C117.887 19.7725 118.2 19.789 118.513 19.7927C115.174 18.9321 110.947 18.3574 106.265 18.3574C106.116 18.3583 105.968 18.3593 105.818 18.3602Z" fill="#2401BA"/>
<path d="M155.448 81.948C156.364 81.948 157.106 81.2046 157.106 80.2875C157.106 79.3704 156.364 78.627 155.448 78.627C154.532 78.627 153.789 79.3704 153.789 80.2875C153.789 81.2046 154.532 81.948 155.448 81.948Z" fill="#2401BA"/>
<path d="M157.578 97.0677C157.584 96.9289 157.612 96.7707 157.606 96.6401C157.358 91.4204 154.404 81.0251 153.878 79.2064L152.796 76.9657L149.561 70.2656C149.561 70.2656 146.176 73.8864 148.27 77.6681C150.332 81.3919 153.617 93.0957 153.718 93.4579C153.712 93.5168 153.702 93.5719 153.695 93.6299C153.595 94.4666 153.436 95.2371 153.181 95.8926C154.017 95.809 155.765 95.8347 157.578 97.0677Z" fill="#2401BA"/>
<path d="M150.625 114.212C150.642 114.179 152.122 111.475 152.928 108.069C150.054 112.856 146.923 117.064 146.923 117.064C147.029 117.008 147.154 116.922 147.266 116.858C148.227 116.304 149.364 115.462 150.601 114.413C150.607 114.345 150.588 114.276 150.625 114.212Z" fill="#2401BA"/>
<path d="M159.999 103.765C159.992 103.724 159.264 99.9773 157.423 98.291C157.023 100.223 155.941 102.657 154.598 105.146C154.535 105.263 154.477 105.38 154.413 105.497C154.158 108.364 153.213 111.022 152.47 112.747C155.259 110.153 158.221 106.946 160.437 104.164C160.225 104.129 160.041 103.986 159.999 103.765Z" fill="#2401BA"/>
<path d="M153.789 78.9038C153.789 78.9038 153.826 79.0289 153.877 79.2072C154.403 81.0259 157.357 91.4212 157.605 96.641C157.611 96.7715 157.583 96.9288 157.577 97.0685C157.602 97.0851 157.626 97.0943 157.65 97.1117C159.98 98.7364 160.866 102.83 160.99 103.458C162.66 101.291 162.277 98.4468 162.191 97.5338C161.998 95.476 159.209 87.9494 156.169 82.8326C155.351 81.4571 154.665 80.329 154.243 79.6403C153.955 79.1714 153.789 78.9038 153.789 78.9038Z" fill="#2401BA"/>
<path d="M150.625 114.212C150.59 114.276 150.608 114.345 150.601 114.413C150.58 114.612 150.636 114.811 150.823 114.915C150.901 114.96 150.988 114.982 151.074 114.982C151.254 114.982 151.43 114.888 151.524 114.719C151.565 114.646 151.973 113.899 152.47 112.744C153.213 111.02 154.158 108.361 154.412 105.495C154.413 105.488 154.415 105.481 154.415 105.474C154.423 105.381 154.412 105.309 154.417 105.218C154.732 100.402 151.945 98.9766 151.824 98.9178C151.568 98.7982 151.266 98.904 151.139 99.1586C151.014 99.4133 151.12 99.7214 151.373 99.8492C151.471 99.8979 153.761 101.096 153.386 105.383C153.378 105.474 153.359 105.562 153.349 105.652C153.262 106.482 153.112 107.289 152.928 108.068C152.121 111.476 150.643 114.179 150.625 114.212Z" fill="#2401BA"/>
<path d="M144.865 107.964C144.865 108.31 144.848 108.717 144.824 109.163C144.642 112.555 143.875 118.318 143.838 118.593C143.801 118.852 143.582 119.042 143.325 119.042C143.303 119.042 143.278 119.04 143.256 119.035C142.974 118.999 142.774 118.738 142.813 118.456C142.821 118.392 143.543 112.986 143.765 109.57C143.806 108.958 143.831 108.403 143.831 107.962C143.838 105.234 142.916 103.987 142.916 103.987C142.902 103.968 142.909 103.946 142.899 103.928C142.772 103.705 142.803 103.421 143.01 103.261C143.236 103.088 143.555 103.128 143.73 103.35C143.732 103.354 143.752 103.381 143.764 103.399C143.931 103.629 144.87 105.052 144.865 107.964Z" fill="#2401BA"/>
<path d="M157.652 97.1114C157.627 97.0948 157.604 97.0847 157.579 97.0681C155.766 95.8352 154.018 95.8094 153.181 95.894C153.121 95.8995 153.078 95.906 153.028 95.9124C152.829 95.9391 152.69 95.9676 152.669 95.9722C152.393 96.042 152.225 96.3206 152.294 96.5974C152.327 96.7298 152.413 96.8337 152.52 96.9026C152.556 96.9256 152.597 96.9183 152.637 96.9321C152.728 96.9633 152.819 97.0001 152.918 96.9762C153.002 96.956 154.978 96.5036 157.062 97.9582C157.193 98.0492 157.303 98.1788 157.424 98.2892C159.265 99.9764 159.993 103.722 160 103.763C160.042 103.984 160.226 104.128 160.437 104.161C160.463 104.165 160.482 104.187 160.508 104.187C160.538 104.187 160.571 104.184 160.601 104.177C160.882 104.126 161.067 103.857 161.016 103.577C161.014 103.566 160.999 103.495 160.991 103.457C160.867 102.829 159.982 98.736 157.652 97.1114Z" fill="#2401BA"/>
<path d="M157.578 97.0677C157.584 96.9289 157.612 96.7707 157.606 96.6401C157.358 91.4204 154.404 81.0251 153.878 79.2064L152.796 76.9657L149.561 70.2656C149.561 70.2656 146.176 73.8864 148.27 77.6681C150.332 81.3919 153.617 93.0957 153.718 93.4579C153.712 93.5168 153.702 93.5719 153.695 93.6299C153.595 94.4666 153.436 95.2371 153.181 95.8926C154.017 95.809 155.765 95.8347 157.578 97.0677Z" fill="#2401BA"/>
<path d="M150.626 114.212C150.589 114.277 150.607 114.346 150.602 114.415C149.364 115.465 148.228 116.305 147.268 116.859C147.155 116.924 147.03 117.009 146.923 117.065C146.923 117.065 150.054 112.855 152.929 108.07C152.122 111.476 150.644 114.18 150.626 114.212Z" fill="#2401BA"/>
<path d="M159.999 103.765C159.992 103.724 159.264 99.9773 157.423 98.291C157.023 100.223 155.941 102.657 154.598 105.146C154.535 105.263 154.477 105.38 154.413 105.497C154.158 108.364 153.213 111.022 152.47 112.747C155.259 110.153 158.221 106.946 160.437 104.164C160.225 104.129 160.041 103.986 159.999 103.765Z" fill="#2401BA"/>
<path d="M154.418 105.219C154.412 105.31 154.422 105.383 154.414 105.476C154.414 105.482 154.412 105.489 154.412 105.496C154.158 108.363 153.212 111.02 152.47 112.747C151.972 113.9 151.565 114.646 151.524 114.72C151.43 114.889 151.254 114.985 151.074 114.985C150.988 114.985 150.901 114.963 150.822 114.918C150.636 114.814 150.579 114.613 150.599 114.415C150.606 114.346 150.587 114.278 150.623 114.213C150.642 114.181 152.119 111.477 152.927 108.071C153.11 107.292 153.262 106.484 153.348 105.654C153.356 105.563 153.377 105.477 153.385 105.386C153.76 101.099 151.471 99.8992 151.372 99.8513C151.119 99.7245 151.013 99.4155 151.137 99.1608C151.264 98.9061 151.567 98.8013 151.824 98.9209C151.945 98.9779 154.73 100.403 154.418 105.219Z" fill="#4E25FE"/>
<path d="M144.865 107.964C144.865 108.31 144.848 108.717 144.824 109.163C144.642 112.555 143.875 118.318 143.838 118.593C143.801 118.852 143.582 119.042 143.325 119.042C143.303 119.042 143.278 119.04 143.256 119.035C142.974 118.999 142.774 118.738 142.813 118.456C142.821 118.392 143.543 112.986 143.765 109.57C143.806 108.958 143.831 108.403 143.831 107.962C143.838 105.234 142.916 103.987 142.916 103.987C142.902 103.968 142.909 103.946 142.899 103.928C142.772 103.705 142.803 103.421 143.01 103.261C143.236 103.088 143.555 103.128 143.73 103.35C143.732 103.354 143.752 103.381 143.764 103.399C143.931 103.629 144.87 105.052 144.865 107.964Z" fill="#4E25FE"/>
<path d="M157.652 97.1114C157.627 97.0948 157.604 97.0847 157.579 97.0681C155.766 95.8352 154.018 95.8094 153.181 95.894C153.121 95.8995 153.078 95.906 153.028 95.9124C152.829 95.9391 152.69 95.9676 152.669 95.9722C152.393 96.042 152.225 96.3206 152.294 96.5974C152.327 96.7298 152.413 96.8337 152.52 96.9026C152.556 96.9256 152.597 96.9183 152.637 96.9321C152.728 96.9633 152.819 97.0001 152.918 96.9762C153.002 96.956 154.978 96.5036 157.062 97.9582C157.193 98.0492 157.303 98.1788 157.424 98.2892C159.265 99.9764 159.993 103.722 160 103.763C160.042 103.984 160.226 104.128 160.437 104.161C160.463 104.165 160.482 104.187 160.508 104.187C160.538 104.187 160.571 104.184 160.601 104.177C160.882 104.126 161.067 103.857 161.016 103.577C161.014 103.566 160.999 103.495 160.991 103.457C160.867 102.829 159.982 98.736 157.652 97.1114Z" fill="#4E25FE"/>
<path d="M80.063 26.9683C68.5601 41.2327 73.3918 57.4959 73.4441 57.6559C73.5149 57.8748 73.7169 58.0127 73.9346 58.0127C73.9869 58.0127 74.0411 58.0044 74.0934 57.9879C74.3662 57.8996 74.5132 57.6081 74.425 57.3369C74.3763 57.1815 69.7063 41.4579 80.8666 27.6192C82.7466 25.2875 85.3686 23.3704 88.5261 21.8791C89.9422 21.2106 91.4769 20.6397 93.1061 20.156C96.8771 19.037 101.149 18.3971 105.818 18.3603C105.968 18.3594 106.116 18.3585 106.266 18.3585C110.947 18.3585 115.174 18.9332 118.514 19.7938C122.021 20.6985 124.547 21.9177 125.557 23.1314C125.74 23.3511 126.064 23.3787 126.285 23.1976C126.504 23.0146 126.533 22.6891 126.351 22.4694C126.294 22.4004 126.217 22.3351 126.154 22.2671C123.433 19.3708 114.841 17.3076 105.81 17.3278C103.67 17.3443 101.602 17.4804 99.6231 17.7296C94.4635 18.3778 89.9138 19.7993 86.2356 21.8809C83.7513 23.2849 81.6601 24.9878 80.063 26.9683Z" fill="#4E25FE"/>
<path d="M152.776 65.0606C152.776 65.0606 152.774 65.0625 152.77 65.0689L151.259 67.1487C151.259 67.1487 149.7 48.7744 148.611 40.8671C148.468 39.829 148.333 38.9629 148.212 38.3514C147.159 33.0793 136.101 25.172 136.101 25.172C136.323 25.0975 136.678 25.1536 137.097 25.2833C138.074 25.5784 139.505 26.3618 141.121 27.4357C145.421 30.2952 150.933 35.1425 152.073 38.0002C153.827 42.3934 152.776 65.0606 152.776 65.0606Z" fill="#4E25FE"/>
<path d="M133.013 23.3588C132.927 24.3408 132.559 25.2731 131.952 26.0491C131.926 26.0813 131.901 26.1144 131.876 26.1475C129.448 29.3546 128.221 36.4252 128.221 36.4252C128.221 36.4252 132.517 35.6243 137.117 37.9809C137.109 37.9772 137.102 37.9708 137.094 37.9671C137.094 37.9671 137.615 38.2319 139.902 37.9671L142.19 37.7014L143.734 41.2357V37.26L146.712 36.7084L148.587 43.3348L148.609 40.867C148.465 39.829 148.33 38.9628 148.208 38.3514C147.155 33.0793 136.098 25.172 136.098 25.172C136.321 25.0975 136.673 25.1545 137.095 25.2823C136.929 25.217 136.765 25.1563 136.602 25.1012C136.31 25.0019 136.276 24.6038 136.546 24.4566C138.291 23.5114 140.275 22.592 141.903 21.8785C143.753 21.0675 145.134 20.5232 145.134 20.5232C145.134 20.5232 142.367 19.2958 138.922 20.7981C138.247 21.0924 137.694 21.473 137.203 21.8785C136.424 22.5212 135.827 23.0637 135.339 23.6209C134.903 24.1174 134.637 24.178 134.069 24.4217C134.066 24.4226 134.062 24.4217 134.059 24.4217C134.058 24.4217 134.056 24.4217 134.054 24.4217C133.862 24.4226 133.743 24.4097 133.851 24.2516C134.387 23.471 134.987 22.6628 135.595 21.8785C137.7 19.1634 139.901 16.7388 139.901 16.7388C139.901 16.7388 136.312 16.1264 134.233 19.4999C133.741 20.2989 133.445 21.1126 133.257 21.8785C133.127 22.4072 133.053 22.9083 133.013 23.3588Z" fill="#2401BA"/>
<path d="M103.658 21.9007C103.658 21.9007 111.62 19.0053 118.512 19.7924C118.512 19.7924 123.031 20.5077 125.555 23.13C125.555 23.13 125.806 23.484 126.284 23.1943C126.76 22.9056 126.152 22.2657 126.152 22.2657C126.152 22.2657 130.867 25.8267 129.764 31.3324C128.661 36.8381 125.86 39.9385 118.735 44.0944C111.61 48.2504 96.9657 51.4942 92.9367 52.8035C92.9367 52.8035 107.219 44.7371 108.01 44.5551C108.01 44.5551 92.1726 48.0205 87.2968 55.8883C87.2968 55.8883 87.5705 54.0328 90.2715 49.6636L87.2178 51.5659C87.2178 51.5659 87.3685 58.6898 88.0646 65.9544C88.0646 65.9544 83.5966 63.7735 80.6733 64.7352L79.1121 60.3917L79.6585 59.3178C79.6585 59.3178 80.2885 60.9958 80.5255 61.3958C80.5255 61.3958 80.7321 61.7958 81.2253 61.6017C81.2253 61.6017 81.6276 61.4326 81.431 60.8993C81.2345 60.366 80.1324 57.5791 79.9248 56.5576C79.7421 55.6575 78.0963 38.4913 90.3119 27.97C90.3119 27.97 99.4417 20.4957 111.938 23.2513C111.938 23.2513 112.418 23.4656 112.66 23.0059C112.903 22.5461 112.376 22.3181 112.268 22.2822C112.16 22.2455 109.496 21.2837 103.658 21.9007Z" fill="#2401BA"/>
<path d="M147.584 107.991L153.348 105.653C153.348 105.653 153.198 107.03 152.926 108.07C152.654 109.109 147.685 116.351 146.92 117.065C146.92 117.065 147.136 116.937 147.265 116.859C147.265 116.859 142.017 121.304 139.609 122.371C137.201 123.437 126.71 131.994 106.319 125.559C85.929 119.125 76.9636 104.881 79.2082 98.155C81.4528 91.4292 85.0648 80.9952 90.071 71.7832C90.071 71.7832 91.951 76.8935 91.1308 80.2275C90.3107 83.5614 86.7712 93.2313 87.3792 96.4733C87.9872 99.7162 105.896 113.491 124.831 111.53C124.831 111.53 133.276 112.534 139.3 110.868V113.625L141.795 110.225L143.766 109.57C143.766 109.57 143.136 117.546 142.814 118.456C142.814 118.456 142.74 118.971 143.257 119.036C143.774 119.1 143.838 118.593 143.838 118.593C143.838 118.593 144.93 109.574 144.824 109.164L145.978 108.699L146.833 110.946L147.584 107.991Z" fill="#2401BA"/>
<path d="M56.7272 147.376L60.3484 148.502L104.457 162.222L109.387 153.465L118.396 167.943L105.492 167.144L58.7899 153.463C40.7746 157.724 24.3123 170.777 25.7119 174.73C27.1134 178.689 50.8283 200.128 57.7695 208.152C66.4043 218.133 75.6425 250.986 76.4195 253.788H188.47C188.473 253.722 190.57 216.255 192.143 208.659C193.716 201.058 203.158 190.922 203.158 190.922C203.158 190.922 199.487 200.213 197.913 212.459C196.341 224.692 212.27 253.721 212.307 253.787H245.616L239.206 232.002L235.211 219.858C235.211 219.858 226.692 186.928 217.744 178.01C209.082 169.374 185.582 149.604 184.103 148.361C183.385 148.039 182.667 147.72 181.945 147.404L185.017 146.434C183.671 144.077 180.863 139.395 178.979 137.877C177.174 136.424 164.977 132.069 157.954 129.631L150.611 127.837H150.61L150.614 127.849L151.088 129.663L171.27 135.93L158.573 139.25L129.232 151.985L119.908 166.405L119.907 166.406L119.742 166.326L110.33 151.985L81.2539 139.554L80.5477 139.251L67.6607 135.931L87.2272 129.64L87.5596 128.096L54.996 135.931L53.2474 146.294L56.4186 147.28C56.4333 147.275 56.4489 147.268 56.4645 147.262C56.4755 147.257 56.5747 147.301 56.7272 147.376ZM130.158 153.465L135.015 162.222L181.925 147.412L187.503 151.234L133.996 167.143H120.277L130.158 153.465Z" fill="#4E25FE"/>
<path d="M105.493 167.143L118.396 167.942L109.388 153.464L104.458 162.221L60.349 148.501L56.7278 147.375C57.9052 147.946 62.7112 150.567 62.1546 150.904C60.878 151.679 60.2572 153.115 58.8833 153.437C58.852 153.445 58.8217 153.455 58.7905 153.462L105.493 167.143Z" fill="#2401BA"/>
<path d="M120.275 167.144H133.994L187.502 151.234L181.925 147.412L135.015 162.223L130.157 153.466L120.275 167.144Z" fill="#2401BA"/>
<path d="M197.911 212.46C199.485 200.213 203.156 190.923 203.156 190.923C203.156 190.923 193.715 201.059 192.142 208.66C190.57 216.255 188.472 253.722 188.468 253.789V253.791H212.306L212.304 253.789C212.269 253.722 196.34 224.693 197.911 212.46Z" fill="#2401BA"/>
<path d="M57.7697 208.152C50.8285 200.128 27.1136 178.689 25.7121 174.73C24.3125 170.778 40.7748 157.725 58.7901 153.463C58.8213 153.456 58.8516 153.447 58.8828 153.438C60.2577 153.116 60.8776 151.68 62.1542 150.905C62.7107 150.567 57.9047 147.947 56.7273 147.376C56.5749 147.302 56.4757 147.257 56.4647 147.262C56.4491 147.267 56.4335 147.274 56.4188 147.28C37.1526 154.717 16.0267 164.716 13.4699 174.863C13.4313 174.855 13.4065 174.851 13.4065 174.851L13.3147 175.401C13.2605 175.617 13.2045 175.907 13.1723 176.258L3.58056 233.99L1.89255 244.147L0.272495 253.896L0.242188 254.079H54.9558L54.9603 253.896L54.9631 253.789L54.9714 253.47C55.0118 253.597 55.0476 253.709 55.0742 253.789C55.0908 253.841 55.099 253.865 55.1091 253.896C55.1247 253.943 55.1431 254.001 55.1431 254.001H76.4784C76.4784 254.001 76.4683 253.964 76.4499 253.896C76.4435 253.871 76.4288 253.821 76.4196 253.789C75.6427 250.987 66.4045 218.134 57.7697 208.152ZM25.0591 233.762C17.4869 223.891 20.7555 191.637 21.8098 182.864C22.5537 182.969 23.3537 183.057 24.228 183.118C29.4362 183.485 35.921 188.076 37.7294 190.061C41.931 194.671 45.3668 208.154 47.5682 221.648C49.2846 232.179 51.4585 241.07 53.0363 246.851C47.4598 246.042 32.1749 243.038 25.0591 233.762Z" fill="#2401BA"/>
<path d="M141.064 42.685C142.571 46.109 143.13 50.3165 143.705 52.5268C143.711 52.5507 143.717 52.5792 143.723 52.6013C143.746 52.6896 143.792 52.7613 143.82 52.8477C143.829 52.8771 143.843 52.902 143.853 52.9314C144.94 56.1715 148.599 57.4974 148.599 57.4974C148.599 57.4974 147.829 62 147.939 63.3414C148.049 64.6829 151.27 67.1507 151.27 67.1507C151.27 67.1507 149.71 48.7755 148.621 40.8682L148.599 43.336L146.726 36.7095L143.747 37.2611V41.2369L142.203 37.7025L139.916 37.9682C137.628 38.233 137.107 37.9682 137.107 37.9682C137.115 37.9719 137.123 37.9783 137.13 37.982C138.918 38.8684 140.161 40.6337 141.064 42.685Z" fill="#2401BA"/>
<g clip-path="url(#clip0_2510_975)">
<path d="M95.0571 233.402L121.124 188.958L147.07 233.402L141.246 243.138C141.246 243.138 125.931 230.486 106.531 243.138L114.955 228.423C115.594 227.299 116.598 226.425 117.803 225.944C120.142 225.024 124.345 224.384 129.952 227.671L121.063 212.076L103.105 243.138H100.763L95.0571 233.402Z" fill="#2401BA"/>
</g>
<path d="M152.771 65.0688L151.26 67.1487C151.713 66.3671 152.686 65.1718 152.771 65.0688Z" fill="#2401BA"/>
<path d="M113.822 60.6747L113.818 60.6977C113.818 60.6977 113.895 60.6315 114.006 60.5248C114.034 60.4963 114.091 60.4705 114.108 60.4411C114.114 60.4319 114.116 60.4181 114.123 60.4089C114.396 60.1331 114.819 59.6504 115.252 58.9801C115.578 58.4772 115.905 57.8795 116.173 57.1651C117.037 54.8619 115.603 52.2451 115.603 52.2451L114.416 57.8676C114.239 55.4981 113.4 52.6019 113.4 52.6019C113.4 52.6019 112.16 54.6127 109.68 55.6894C107.199 56.7661 93.7344 58.2197 93.7344 58.2197C93.7344 58.2197 95.2396 61.6566 95.9486 61.8792C96.0533 61.9123 96.5291 61.9408 97.2188 61.9619C100.968 62.075 111.839 61.9325 113.822 60.6747Z" fill="#2401BA"/>
<path d="M112.187 64.2781C112.187 64.2781 107.711 61.9197 104.583 63.3797C104.412 63.4597 104.27 63.5361 104.11 63.6142C101.363 64.9695 100.369 66.0894 100.369 66.0894C100.369 66.0894 102.135 65.603 104.141 65.2021C104.086 65.409 104.013 65.6094 104.013 65.8338C104.013 67.2111 105.128 68.3273 106.504 68.3273C107.88 68.3273 108.994 67.2111 108.994 65.8338C108.994 65.4099 108.862 65.0292 108.676 64.6799C109.796 64.6707 110.648 64.5851 111.222 64.4932C111.874 64.3875 112.187 64.2781 112.187 64.2781Z" fill="#2401BA"/>
<path d="M123.124 57.6237C123.348 59.1353 123.922 59.9794 124.29 60.3858C124.299 60.4023 124.302 60.4244 124.312 60.44C124.329 60.4667 124.386 60.4887 124.412 60.5145C124.538 60.6368 124.621 60.6965 124.621 60.6965L124.622 60.6717C127.185 62.1483 143.743 61.9387 144.461 61.7263C145.215 61.5038 145.979 58.2177 145.979 58.2177C145.979 58.2177 132.536 56.3098 129.741 55.7609C128.26 55.4704 127.679 53.3179 127.679 53.3179C127.679 53.3179 125.699 55.6956 124.698 57.8012L124.832 52.7368C124.831 52.7387 122.76 55.1706 123.124 57.6237Z" fill="#2401BA"/>
<path d="M135.127 63.3802C131.999 61.9201 127.524 64.2785 127.524 64.2785C127.524 64.2785 128.641 64.6601 131.036 64.6803C130.849 65.0297 130.716 65.4104 130.716 65.8343C130.716 67.2116 131.831 68.3278 133.206 68.3278C134.581 68.3278 135.697 67.2116 135.697 65.8343C135.697 65.6099 135.625 65.4095 135.569 65.2026C137.576 65.6035 139.342 66.0899 139.342 66.0899C139.342 66.0899 138.255 64.8403 135.127 63.3802Z" fill="#2401BA"/>
<path d="M132.878 109.219C130.261 110.294 127.58 111.184 124.954 111.732C124.932 111.736 124.907 111.736 124.885 111.741C124.863 111.739 124.831 111.732 124.831 111.732C124.831 111.732 123.28 111.925 120.973 111.975C117.768 112.044 113.095 111.834 108.997 110.427C107.676 109.974 106.121 109.35 104.461 108.61C105.292 105.454 109.776 102.922 115.568 102.254C116.272 102.171 116.803 101.573 116.806 100.863C116.808 100.578 116.796 100.285 116.77 99.9883C116.665 98.8417 116.029 97.7954 115.043 97.2014C114.129 96.6525 113.181 95.859 112.212 94.7603C112.212 94.7603 121.003 95.9013 124.885 94.9745C124.885 94.9745 123.73 96.4787 121.84 97.4561C120.857 97.9627 120.184 98.9217 120 100.014C119.966 100.228 119.936 100.446 119.911 100.671C119.829 101.442 120.404 102.126 121.174 102.201C127.572 102.816 132.489 105.693 132.878 109.219Z" fill="#2401BA"/>
<path d="M143.83 107.963C143.83 108.403 143.803 108.958 143.764 109.57C143.098 109.81 142.438 110.034 141.793 110.225L139.298 113.625V110.868C131.466 112.651 125.388 111.631 124.883 111.538C124.905 111.535 124.93 111.535 124.952 111.53C129.768 110.522 134.778 108.378 139.226 106.003C138.409 103.157 135.719 94.1645 132.82 88.6873C132.215 87.5426 130.985 86.8861 129.694 86.9891C128.859 87.0534 128.133 87.036 127.736 86.9026C126.528 86.4944 125.188 85.5501 123.532 84.8734C123.371 84.809 123.19 84.764 122.991 84.7382C121.223 84.4229 118.403 85.3442 118.403 85.3442C118.403 85.3442 114.754 84.1976 113.098 84.8734C111.443 85.5501 110.104 86.4944 108.893 86.9026C108.522 87.0277 107.863 87.0525 107.096 86.9992C106.182 86.9385 105.331 87.4718 104.98 88.3195C102.796 93.6018 99.5787 102.316 98.4371 105.432C97.302 104.815 96.1843 104.173 95.1235 103.523C97.6647 96.3666 101.257 88.5144 102.3 86.2728C102.487 85.8692 102.851 85.6126 103.238 85.3947C104.865 84.4698 106.6 83.9871 107.951 83.5145C108.114 83.4584 108.711 83.1715 109.536 82.8157C112.053 81.7335 116.657 79.8495 117.156 80.2936C117.539 80.6329 117.991 81.4144 118.316 82.024C118.638 81.4144 119.09 80.6329 119.474 80.2936C119.69 80.1014 120.678 80.3478 121.929 80.7745C124.519 81.6544 128.249 83.3149 128.679 83.5145C129.232 83.771 133.006 84.4882 133.975 84.9681C133.996 84.9782 134.016 84.9883 134.031 84.9984C134.064 85.027 134.122 85.0794 134.2 85.152C135.639 86.4723 139.726 96.3261 142.475 104.136L142.35 104.251C142.534 104.144 142.718 104.035 142.897 103.928C142.907 103.947 142.899 103.969 142.913 103.987C142.914 103.987 143.836 105.235 143.83 107.963Z" fill="#2401BA"/>
<path d="M134.034 84.998C134.017 84.9879 133.997 84.9778 133.978 84.9677L134 84.9658C134 84.9658 134.012 84.9759 134.034 84.998Z" fill="#2401BA"/>
</g>
<defs>
<clipPath id="clip0_2510_975">
<rect width="52.0126" height="54.1798" fill="white" transform="translate(95.0571 188.958)"/>
</clipPath>
</defs>
</svg>
