<svg width="430" height="418" viewBox="0 0 430 418" fill="none" xmlns="http://www.w3.org/2000/svg">
<path d="M264.258 199.124L263.428 195.946L264.115 199.079L264.258 199.124Z" fill="#189DF8"/>
<path d="M266.763 141.73C266.535 142.096 266.327 142.454 266.046 142.834C266.385 142.525 266.694 142.178 266.969 141.782C266.9 141.758 266.826 141.771 266.763 141.73Z" fill="#189DF8"/>
<path d="M268.825 135.998C268.589 137.463 268.185 138.779 267.656 139.994C267.744 139.983 267.818 139.971 267.924 139.962C268.37 138.815 268.65 137.465 268.825 135.998Z" fill="#189DF8"/>
<path d="M128.357 108.726C128.357 108.726 128.357 108.726 128.362 108.729V108.726H128.357ZM152.383 199.079L118.108 210.102L140.684 215.916L141.918 216.446L149.273 213.51L152.388 199.078H152.383V199.079Z" fill="#006ACC"/>
<path d="M95.8613 416.569L95.8564 416.757H96.1171C96.0994 416.701 96.0849 416.659 96.0559 416.569H95.8613Z" fill="#006ACC"/>
<path d="M323.205 232.374C326.729 234.095 337.437 239.343 349.168 245.256C341.106 240.851 332.299 236.479 323.205 232.374Z" fill="#189DF8"/>
<path d="M95.8779 416.009L95.8634 416.568H96.0581C96.0114 416.428 95.9487 416.233 95.8779 416.009Z" fill="#189DF8"/>
<path d="M82.9072 360.265C79.0523 336.627 73.0318 313.005 65.6711 304.929C62.5016 301.452 51.1412 293.409 42.0188 292.766C40.4871 292.659 39.0874 292.506 37.7826 292.32C35.9355 307.69 30.2095 364.193 43.4748 381.486C55.9405 397.737 82.7158 402.999 92.485 404.417C89.7225 394.288 85.9143 378.713 82.9072 360.265Z" fill="#189DF8"/>
<path d="M192.856 238.228L209.344 263.351L209.634 263.491L209.635 263.49L225.969 238.228L277.37 215.918L265.794 211.886C264.577 217.3 259.464 221.831 252.393 222.992C238.121 225.336 216.458 228.174 195.548 228.224C187.799 222.67 177.211 214.581 176.069 211.091C174.246 205.521 172.909 189.112 172.909 189.112C176.603 192.282 209.677 197.22 222.744 191.995C226.131 190.641 230.546 187.641 235.069 184.119C203.019 192.976 176.206 183.832 157.92 176.489C157.719 176.406 157.513 176.308 157.311 176.221L152.384 199.079H152.386L149.274 213.512H149.273L141.92 216.446L192.856 238.228Z" fill="#BFBEC9"/>
<path d="M172.909 189.112C172.909 189.112 174.246 205.523 176.069 211.091C177.211 214.581 187.801 222.671 195.548 228.224C216.459 228.173 238.121 225.336 252.393 222.993C259.464 221.831 264.577 217.299 265.794 211.887L265.194 211.679L264.112 199.08H264.114L263.427 195.947L263.421 195.926H263.422L258.67 174.251C253.243 177.33 247.462 180.065 241.4 182.157C239.268 182.893 237.159 183.541 235.07 184.119C230.548 187.643 226.133 190.641 222.746 191.995C209.677 197.221 176.601 192.281 172.909 189.112ZM228.303 196.834C228.303 196.834 226.445 207.31 203.771 211.131C181.098 214.952 189.63 197.495 189.63 197.495C189.63 197.495 196.518 202.989 210.453 203C222.567 203.01 228.303 196.834 228.303 196.834Z" fill="#F6F6FB"/>
<path d="M189.629 197.494C189.629 197.494 181.097 214.953 203.77 211.131C226.444 207.31 228.302 196.834 228.302 196.834C228.302 196.834 222.568 203.01 210.451 203C196.517 202.989 189.629 197.494 189.629 197.494Z" fill="#BFBEC9"/>
<path d="M207.207 127.432C207.199 127.434 207.185 127.437 207.177 127.438C207.186 127.44 207.204 127.443 207.214 127.447C207.331 127.434 207.492 127.403 207.207 127.432Z" fill="#F2E0E0"/>
<path d="M215.04 120.418C215.373 120.478 215.706 120.541 215.988 120.655C215.706 120.541 215.386 120.465 215.04 120.418Z" fill="#F2E0E0"/>
<path d="M207.163 127.435C207.152 127.438 207.172 127.437 207.17 127.44C207.172 127.44 207.177 127.438 207.178 127.438C207.173 127.438 207.167 127.437 207.163 127.435Z" fill="#F2E0E0"/>
<path d="M155.115 143.923C154.294 142.969 153.474 142.001 152.65 140.98C152.962 141.56 153.351 142.161 153.807 142.782C153.889 142.858 153.947 142.968 154.032 143.039C154.33 143.285 154.73 143.609 155.115 143.923Z" fill="#F2E0E0"/>
<path d="M280.437 85.0241C278.928 84.3379 277.448 84.0416 276.038 83.9353C271.126 83.5712 267.215 85.9487 267.215 85.9487C267.215 85.9487 267.212 85.9519 267.204 85.9632C267.056 86.1436 265.349 88.2375 264.561 89.6067C264.561 89.6067 258.918 85.2834 258.723 82.935C258.532 80.5865 259.882 72.6987 259.882 72.6987C259.882 72.6987 253.472 70.3744 251.569 64.7013C251.548 64.6514 251.53 64.6031 251.509 64.5532C251.463 64.405 251.382 64.2777 251.34 64.1215C251.329 64.0828 251.319 64.0329 251.308 63.991C249.786 59.8063 248.924 52.5225 246.683 46.7496C245.099 43.1593 242.923 40.0634 239.788 38.5106C231.729 34.3823 222.977 35.9383 222.977 35.9383C222.977 35.9383 226.354 23.3986 230.605 17.7771C229.969 17.5645 229.323 17.3922 228.679 17.1973C227.828 19.6698 226.256 23.9398 224.287 27.9619C224.287 27.9651 224.283 27.9683 224.283 27.9731C224.255 28.0295 224.224 28.0859 224.195 28.1423C224.195 28.1423 222.346 32.3238 219.093 37.1512C215.838 41.9754 211.176 47.4487 205.549 50.0226C194.389 55.1416 162.872 64.3341 162.38 64.4758L188.786 50.0259C188.415 50.1209 176.498 53.2264 165.951 58.4581C163.273 59.7854 160.98 61.3413 159.051 62.9263C159.382 64.9494 159.63 66.5666 159.701 67.2882C159.987 70.252 161.397 115.24 166.014 127.179C173.172 145.69 206.508 164.975 211.494 167.779C215.536 167.691 218.253 167.354 218.253 167.354C218.253 167.354 218.31 167.365 218.348 167.369C218.387 167.362 218.43 167.362 218.469 167.354C229.327 165.083 240.749 159.508 249.908 154.036C249.686 153.647 249.739 153.149 250.103 152.869C250.499 152.564 251.057 152.635 251.364 153.025C251.368 153.031 251.403 153.078 251.424 153.11C257.855 149.17 263.037 145.377 265.864 143.037C265.931 142.98 265.976 142.895 266.041 142.835C266.324 142.457 266.528 142.096 266.758 141.732C266.572 141.611 266.419 141.428 266.363 141.197C266.242 140.712 266.536 140.224 267.019 140.1C267.058 140.094 267.302 140.044 267.648 139.994C268.177 138.781 268.581 137.465 268.818 135.996C268.832 135.898 268.85 135.798 268.86 135.695C268.679 135.062 262.928 114.556 259.316 108.034C255.644 101.409 261.573 95.0655 261.573 95.0655L267.244 106.803C267.521 107.326 268.863 110.461 269.781 111.487C270.52 112.693 271.722 114.67 273.152 117.08C277.586 115.577 281.917 108.707 283.509 101.612C283.509 101.618 283.505 101.647 283.505 101.647C283.505 101.647 287.203 88.1022 280.437 85.0241ZM214.246 63.8493L215.135 77.7693C215.135 77.7693 213.221 76.5709 212.341 72.6085C211.401 68.3771 214.246 63.8493 214.246 63.8493ZM237.073 86.1951C237.171 86.5559 237.295 86.9103 237.295 87.3017C237.295 89.7146 235.341 91.67 232.931 91.67C230.521 91.67 228.571 89.7146 228.571 87.3017C228.571 86.5592 228.804 85.8907 229.129 85.2786C224.932 85.2432 222.979 84.5747 222.979 84.5747C222.979 84.5747 230.816 80.4432 236.299 83.0042C241.779 85.5621 243.68 87.7511 243.68 87.7511C243.68 87.7511 240.588 86.8958 237.073 86.1951ZM252.648 80.1065C251.39 80.4786 222.383 80.8458 217.891 78.2606V78.3025C217.891 78.3025 217.747 78.1994 217.524 77.9836C217.483 77.9368 217.38 77.8982 217.351 77.8531C217.333 77.8241 217.33 77.7854 217.312 77.758C216.665 77.0429 215.661 75.5642 215.27 72.9194C214.632 68.6219 218.26 64.3599 218.26 64.3599L218.026 73.2319C219.779 69.5465 223.249 65.3795 223.249 65.3795C223.249 65.3795 224.266 69.1502 226.859 69.6592C231.757 70.6208 255.306 73.9599 255.306 73.9599C255.306 73.9599 253.966 79.7183 252.648 80.1065Z" fill="#F6F6FB"/>
<path d="M145.252 116.991C145.252 116.991 145.252 116.991 145.255 116.994V116.991H145.252Z" fill="#006ACC"/>
<path d="M216.73 144.419C216.769 143.597 213.215 143.399 208.242 142.7C204.581 142.184 199.19 142.114 197.472 138.837C197.238 138.391 196.4 138.441 196.154 137.974C190.994 135.369 187.402 131.926 185.991 130.61C185.743 130.378 185.909 129.964 186.248 129.964H190C187.622 128.707 182.364 125.164 180.54 123.585C179.84 122.98 179.407 122.58 179.344 122.522C178.595 121.101 175.467 132.894 191.186 143.623C195.054 146.263 199.705 151.1 200.849 151.187C201.452 151.232 216.426 150.733 216.73 144.419Z" fill="#BFBEC9"/>
<path d="M183.923 110.012C184.13 109.913 184.343 109.804 184.54 109.733C184.521 109.741 184.293 109.839 183.923 110.012Z" fill="#959BAB"/>
<path d="M214.514 111.484C214.259 111.996 213.835 112.682 213.178 113.475C210.987 112.729 209.256 112.297 208.878 112.632C208.207 113.227 207.415 114.596 206.849 115.664C206.279 114.596 205.488 113.227 204.817 112.632C203.972 111.878 196.365 114.957 191.881 116.873L194.457 118.887C194.457 118.887 186.062 123.98 186.57 121.604C186.786 120.593 187.185 119.122 187.571 117.766C188.041 116.113 188.422 114.44 188.752 112.755C189.886 106.964 196.206 89.1831 196.206 88.6821C196.206 87.3516 195.556 86.0179 194.415 84.9532C195.561 84.7664 196.108 84.5747 196.108 84.5747C196.108 84.5747 188.271 80.4432 182.791 83.0042C182.49 83.1428 182.239 83.2765 181.961 83.415C177.039 83.4262 171.595 82.2649 169.885 80.5172C176.457 80.7186 195.5 80.4673 198.973 78.2638L198.967 78.3025C198.967 78.3025 199.1 78.1865 199.295 77.998C199.345 77.9481 199.443 77.9062 199.475 77.8531C199.487 77.8354 199.49 77.8144 199.499 77.7967C199.981 77.3119 200.719 76.4662 201.478 75.292C203.599 76.3454 205.552 78.3444 205.552 82.165C205.552 82.4276 205.401 82.9672 205.156 83.6759C204.973 83.7613 204.796 83.8773 204.698 84.0722C201.374 90.8502 193.823 106.924 195.625 109.805C196.668 111.461 201.205 111.903 205.752 111.903C209.196 111.904 212.578 111.653 214.514 111.484Z" fill="#CCCCCC"/>
<path d="M154.791 143.069C154.407 142.757 154.006 142.433 153.707 142.185C153.622 142.114 153.564 142.004 153.482 141.929C153.179 141.645 152.899 141.333 152.65 140.98C153.285 143.221 155.988 146.5 159.721 148.94C158.176 147.36 156.357 144.888 154.791 143.069Z" fill="#006ACC"/>
<path d="M195.627 109.807C196.666 111.463 201.205 111.906 205.753 111.906C209.198 111.906 212.58 111.655 214.514 111.484C214.658 111.471 214.858 111.456 214.983 111.444C215.479 111.397 215.846 110.957 215.799 110.458C215.754 109.958 215.312 109.617 214.814 109.639C206.99 110.359 198.019 110.216 197.165 108.852C196.356 107.214 201.288 95.1299 206.326 84.8743C206.545 84.4249 206.361 83.8821 205.912 83.6631C205.663 83.539 205.398 83.5696 205.158 83.6776C204.973 83.7613 204.797 83.8805 204.699 84.0754C201.375 90.8518 193.825 106.924 195.627 109.807Z" fill="#006ACC"/>
<path d="M212.34 72.6069C213.222 76.5709 215.135 77.7677 215.135 77.7677L214.247 63.8477C214.248 63.8493 211.401 68.3771 212.34 72.6069Z" fill="#006ACC"/>
<path d="M157.145 59.3019C156.244 59.8335 154.391 60.9529 152.367 62.306C152.296 63.0308 152.249 63.7283 152.249 64.3597C152.249 65.4582 152.335 67.1833 152.468 69.2644L157.72 58.9766C157.518 59.0829 157.343 59.194 157.145 59.3019Z" fill="#959BAB"/>
<path d="M166.018 127.179C161.401 115.24 159.993 70.2537 159.707 67.2867C159.638 66.5667 159.388 64.9495 159.055 62.9248C155.998 65.4311 153.858 68.0019 152.507 69.8816C152.832 74.7654 153.401 81.4757 153.854 87.5144C149.442 85.4688 140.453 82.3842 136.357 88.8288C131.485 96.4927 137.02 111.706 143.629 116.162C144.038 116.424 144.453 116.669 145.322 117.025C145.671 117.168 146.028 117.291 146.382 117.352C146.897 117.44 147.395 117.481 147.883 117.492L157.369 97.7249C157.369 97.7249 159.443 102.978 159.443 110.173C159.443 117.368 151.186 133.864 152.65 140.98C153.474 142.001 154.296 142.971 155.115 143.923C156.68 145.741 158.235 147.421 159.781 149C168.21 155.322 182.088 162.174 190.519 165.069C197.699 167.533 205.888 167.9 211.502 167.779C206.513 164.975 173.18 145.691 166.018 127.179Z" fill="#BFBEC9"/>
<path d="M251.57 64.6964C251.552 64.6465 251.528 64.6014 251.512 64.5498C251.532 64.5981 251.551 64.6513 251.57 64.6964Z" fill="#006ACC"/>
<path d="M251.304 63.9895C250.295 60.1172 249.315 52.7465 246.677 46.748C248.918 52.521 249.78 59.8015 251.304 63.9895Z" fill="#006ACC"/>
<path d="M147.394 31.9436C136.695 48.0285 137.572 62.6057 139.592 71.0541C139.724 62.9456 141.069 44.0274 150.184 29.281C152.179 26.0531 154.808 23.3325 157.787 20.9712C154.019 23.7578 150.459 27.3352 147.394 31.9436Z" fill="#006ACC"/>
<path d="M157.726 58.9624C157.726 58.9624 157.504 59.0913 157.145 59.3023C157.341 59.1944 157.518 59.0832 157.718 58.9753L157.726 58.9624Z" fill="#006ACC"/>
<path d="M141.235 89.895C137.206 91.4156 138.553 97.9762 138.553 97.9762C138.553 97.9762 140.9 95.4328 143.581 97.9762C146.263 100.518 145.973 109.53 145.973 109.53C145.973 109.53 150.119 109.193 150.287 103.488C150.455 97.7829 146.831 87.7834 141.235 89.895Z" fill="#959BAB"/>
<path d="M270.628 107.267C270.549 106.993 270.492 106.801 270.492 106.801C270.492 106.801 270.747 107.21 271.188 107.929C272.193 108.631 273.142 108.724 273.142 108.724C273.142 108.724 272.853 99.7122 275.535 97.1705C278.217 94.6271 280.564 97.1705 280.564 97.1705C280.564 97.1705 281.911 90.6115 277.882 89.0894C272.286 86.9777 268.663 96.9772 268.831 102.682C268.843 103.116 268.917 103.46 268.972 103.834L270.628 107.267Z" fill="#CCCCCC"/>
<path d="M234.682 121.175C235.664 122.26 236.515 123.414 236.631 124.278C236.92 126.454 237.515 129.211 237.515 129.211C237.515 129.211 241.383 121.501 238.643 119.479C237.419 118.576 235.849 118.205 234.476 118.057C234.642 119.37 234.734 120.383 234.682 121.175Z" fill="#CCCCCC"/>
<path d="M270.093 156.298C270.083 156.457 270.102 156.583 270.088 156.747C270.086 156.758 270.085 156.771 270.083 156.783C270.196 156.578 270.297 156.375 270.408 156.169L270.093 156.298Z" fill="#006ACC"/>
<path d="M264.758 146.893C264.315 146.669 264.129 146.129 264.347 145.683C264.569 145.237 265.099 145.052 265.548 145.261C265.76 145.364 270.64 147.861 270.091 156.298L270.406 156.17C272.76 151.81 274.654 147.545 275.355 144.161C275.145 143.967 274.95 143.74 274.722 143.581C271.068 141.033 267.607 141.825 267.461 141.861C267.288 141.904 267.128 141.84 266.97 141.783C266.696 142.178 266.386 142.526 266.046 142.835C265.98 142.896 265.937 142.982 265.868 143.038C263.043 145.38 257.857 149.169 251.428 153.11C251.719 153.514 253.365 156.008 253.355 161.109C253.354 161.715 253.328 162.43 253.286 163.209C253.898 162.969 254.506 162.725 255.12 162.467L255.307 162.399L256.803 166.334L258.124 161.157L268.22 157.06C268.236 156.902 268.272 156.749 268.284 156.589C268.941 149.077 264.93 146.978 264.758 146.893Z" fill="#006ACC"/>
<path d="M128.357 108.726C128.357 108.726 128.357 108.726 128.362 108.729V108.726H128.357ZM152.383 199.079L118.108 210.102L140.684 215.916L141.918 216.446L149.273 213.51L152.388 199.078H152.383V199.079Z" fill="#006ACC"/>
<path d="M145.888 30.9387C132.676 50.8008 136.524 68.5254 139.128 75.8882C139.929 78.1561 140.617 79.4753 140.646 79.5268C140.809 79.828 141.119 79.9972 141.438 79.9972C141.588 79.9972 141.736 79.9633 141.872 79.886C142.312 79.6444 142.469 79.0952 142.233 78.6554C142.189 78.5797 140.716 75.7512 139.591 71.0527C137.57 62.6043 136.695 48.0271 147.393 31.9422C150.457 27.3339 154.018 23.7564 157.786 20.9698C173.667 9.21783 193.291 11.7435 195.674 12.7035C196.082 12.929 196.599 12.8114 196.861 12.4168C197.141 12.0012 197.032 11.439 196.618 11.1588C195.867 10.6514 189.414 9.50615 181.17 10.3357C179.487 10.5048 177.736 10.7496 175.936 11.1072C167.079 12.8662 154.674 17.7306 145.888 30.9387Z" fill="#189DF8"/>
<path d="M234.356 122.527C234.291 122.585 233.86 122.98 233.162 123.586C233.717 123.317 234.118 122.965 234.356 122.527Z" fill="#006ACC"/>
<path d="M234.679 121.144C234.541 121.016 234.44 120.924 234.383 120.875C234.56 120.97 234.662 121.063 234.679 121.144Z" fill="#006ACC"/>
<path d="M207.168 127.44C207.163 127.446 207.171 127.45 207.214 127.445C207.204 127.443 207.186 127.44 207.176 127.437C207.174 127.438 207.169 127.44 207.168 127.44Z" fill="#006ACC"/>
<path d="M223.354 124.211C221.235 123.494 218.89 121.841 215.99 120.657C215.709 120.541 215.376 120.48 215.043 120.42C211.944 119.866 207.005 121.48 207.005 121.48C207.005 121.48 200.612 119.473 197.713 120.659C194.812 121.843 192.467 123.495 190.348 124.212C188.364 124.884 181.658 123.896 179.344 122.524C179.409 122.582 179.84 122.982 180.54 123.587C182.363 125.166 185.803 128.012 188.181 129.268C188.671 129.528 189.133 129.742 189.506 129.838C192.433 130.587 205.388 127.811 207.17 127.442C207.172 127.44 207.153 127.442 207.164 127.437C207.167 127.438 207.174 127.438 207.178 127.438C207.186 127.437 207.201 127.434 207.209 127.432C207.492 127.403 207.331 127.434 207.215 127.445C209.733 127.883 221.457 130.538 224.194 129.837C226.387 129.276 230.963 125.489 233.162 123.586C233.86 122.98 234.292 122.584 234.356 122.527C232.044 123.9 225.34 124.882 223.354 124.211Z" fill="#006ACC"/>
<path d="M264.113 199.079L265.194 211.678L265.795 211.886L277.369 215.918L299.612 210.1L264.258 199.124L264.115 199.079H264.113Z" fill="#006ACC"/>
<path d="M311.317 214.374C314.62 217.033 319.976 221.939 322.335 226.069C323.175 227.538 323.696 228.503 323.696 228.503L321.019 208.364L316.543 207.438L265.793 196.945C265.793 196.945 269.357 198.145 274.485 199.927C286.788 204.198 308.156 211.829 311.317 214.374Z" fill="#189DF8"/>
<path d="M382.027 263.598C374.832 259.315 360.65 252.711 348.433 245.833C336.992 239.392 326.029 234.519 322.47 232.95C321.643 232.586 321.187 232.377 321.187 232.377C321.187 232.377 321.233 232.406 321.317 232.477C323.909 234.655 365.119 269.268 380.296 284.398C395.968 300.02 411.631 357.709 411.631 357.709C411.631 357.709 410.247 354.494 409.156 349.301C404.611 327.646 392.284 271.217 386.265 266.37C385.435 265.698 383.954 264.745 382.027 263.598Z" fill="#189DF8"/>
<path d="M148.158 116.491C149.762 116.491 151.063 115.189 151.063 113.582C151.063 111.976 149.762 110.673 148.158 110.673C146.553 110.673 145.252 111.976 145.252 113.582C145.252 115.189 146.553 116.491 148.158 116.491Z" fill="#006ACC"/>
<path d="M267.206 85.9614L264.562 89.605C265.351 88.2358 267.058 86.1418 267.206 85.9614Z" fill="#F2E0E0"/>
<path d="M220.577 10.9766C225.417 15.0486 227.574 26.1643 224.543 32.0983C226.512 28.0763 230.005 23.1184 230.858 20.6459C231.302 19.3589 231.56 18.5358 231.56 18.5358C232.066 16.7769 232.234 15.1903 232.171 13.7455C231.831 6.00586 224.2 -0.0183213 212.608 0.116981C206.332 0.191075 190.74 -1.02987 174.101 3.02438C177.568 2.58947 181.19 2.35108 184.94 2.32048C200.759 2.28826 215.81 5.90278 220.577 10.9766Z" fill="#006ACC"/>
<path d="M184.953 4.13423C176.775 4.19866 169.29 5.31974 162.684 7.28001C161.001 8.1627 159.345 9.15975 157.733 10.2985C153.85 13.0416 150.209 16.5611 146.994 21.0873C126.839 49.4622 138.171 77.7678 138.171 77.7678C138.171 77.7678 138.457 77.0639 139.128 75.8865C136.525 68.5238 132.675 50.7991 145.889 30.937C154.675 17.7289 167.079 12.8645 175.936 11.1071C177.735 10.7496 179.487 10.5047 181.17 10.3356C191.29 7.77129 200.86 7.01263 205.556 6.65021C206.097 6.60833 206.645 6.63733 207.192 6.64377C201.344 5.13611 193.938 4.12939 185.736 4.12939C185.476 4.13101 185.217 4.13262 184.953 4.13423Z" fill="#006ACC"/>
<path d="M271.897 115.531C273.502 115.531 274.803 114.229 274.803 112.622C274.803 111.016 273.502 109.713 271.897 109.713C270.292 109.713 268.991 111.016 268.991 112.622C268.991 114.229 270.292 115.531 271.897 115.531Z" fill="#006ACC"/>
<path d="M275.63 142.019C275.64 141.775 275.689 141.498 275.678 141.27C275.244 132.125 270.07 113.914 269.148 110.728L267.252 106.803L261.584 95.0654C261.584 95.0654 255.654 101.409 259.324 108.034C262.936 114.557 268.691 135.06 268.868 135.695C268.856 135.798 268.839 135.895 268.828 135.996C268.652 137.462 268.372 138.812 267.927 139.96C269.391 139.814 272.454 139.859 275.63 142.019Z" fill="#006ACC"/>
<path d="M263.448 172.052C263.478 171.994 266.07 167.259 267.483 161.291C262.449 169.677 256.962 177.049 256.962 177.049C257.149 176.951 257.368 176.801 257.564 176.688C259.247 175.717 261.239 174.243 263.406 172.405C263.417 172.286 263.383 172.165 263.448 172.052Z" fill="#006ACC"/>
<path d="M279.871 153.75C279.858 153.679 278.582 147.115 275.358 144.161C274.657 147.545 272.761 151.811 270.409 156.171C270.298 156.375 270.197 156.58 270.084 156.785C269.639 161.807 267.983 166.463 266.681 169.485C271.568 164.941 276.756 159.323 280.639 154.449C280.267 154.388 279.944 154.138 279.871 153.75Z" fill="#006ACC"/>
<path d="M268.992 110.198C268.992 110.198 269.056 110.417 269.146 110.73C270.068 113.916 275.242 132.127 275.677 141.271C275.688 141.5 275.638 141.775 275.628 142.02C275.672 142.049 275.714 142.065 275.755 142.096C279.837 144.942 281.39 152.113 281.607 153.213C284.532 149.417 283.861 144.435 283.711 142.835C283.372 139.23 278.487 126.045 273.16 117.081C271.728 114.671 270.527 112.695 269.786 111.488C269.283 110.667 268.992 110.198 268.992 110.198Z" fill="#006ACC"/>
<path d="M263.449 172.052C263.386 172.165 263.419 172.286 263.406 172.405C263.37 172.753 263.468 173.103 263.795 173.285C263.932 173.364 264.085 173.402 264.236 173.402C264.55 173.402 264.859 173.236 265.024 172.94C265.095 172.813 265.809 171.505 266.68 169.482C267.981 166.46 269.637 161.803 270.083 156.781C270.084 156.77 270.088 156.757 270.088 156.746C270.102 156.581 270.083 156.456 270.092 156.296C270.643 147.859 265.761 145.362 265.549 145.259C265.1 145.05 264.571 145.235 264.349 145.681C264.13 146.128 264.316 146.667 264.759 146.891C264.931 146.976 268.942 149.075 268.286 156.586C268.271 156.746 268.237 156.899 268.221 157.056C268.068 158.511 267.806 159.925 267.483 161.289C266.07 167.259 263.48 171.995 263.449 172.052Z" fill="#006ACC"/>
<path d="M253.357 161.108C253.357 161.713 253.328 162.427 253.286 163.208C252.968 169.15 251.623 179.246 251.558 179.728C251.494 180.181 251.109 180.514 250.66 180.514C250.622 180.514 250.578 180.511 250.54 180.503C250.046 180.438 249.695 179.983 249.763 179.488C249.777 179.375 251.042 169.906 251.431 163.92C251.502 162.849 251.547 161.876 251.547 161.105C251.558 156.325 249.943 154.14 249.943 154.14C249.919 154.108 249.932 154.069 249.914 154.037C249.692 153.647 249.745 153.149 250.109 152.869C250.504 152.564 251.063 152.635 251.37 153.025C251.373 153.032 251.409 153.078 251.43 153.11C251.721 153.513 253.367 156.007 253.357 161.108Z" fill="#006ACC"/>
<path d="M275.758 142.095C275.715 142.066 275.675 142.048 275.631 142.019C272.454 139.859 269.392 139.814 267.926 139.962C267.82 139.972 267.746 139.983 267.658 139.994C267.31 140.041 267.066 140.091 267.029 140.099C266.546 140.221 266.252 140.709 266.372 141.194C266.43 141.426 266.581 141.608 266.768 141.729C266.831 141.769 266.903 141.756 266.974 141.781C267.133 141.835 267.293 141.9 267.465 141.858C267.613 141.822 271.073 141.03 274.726 143.578C274.954 143.738 275.147 143.965 275.359 144.158C278.584 147.114 279.86 153.676 279.872 153.747C279.945 154.135 280.268 154.386 280.638 154.444C280.683 154.451 280.717 154.489 280.762 154.489C280.815 154.489 280.873 154.485 280.925 154.473C281.417 154.383 281.742 153.913 281.652 153.421C281.649 153.402 281.623 153.278 281.608 153.21C281.391 152.112 279.84 144.941 275.758 142.095Z" fill="#006ACC"/>
<path d="M275.63 142.019C275.64 141.775 275.689 141.498 275.678 141.27C275.244 132.125 270.07 113.914 269.148 110.728L267.252 106.803L261.584 95.0654C261.584 95.0654 255.654 101.409 259.324 108.034C262.936 114.557 268.691 135.06 268.868 135.695C268.856 135.798 268.839 135.895 268.828 135.996C268.652 137.462 268.372 138.812 267.927 139.96C269.391 139.814 272.454 139.859 275.63 142.019Z" fill="#006ACC"/>
<path d="M263.449 172.053C263.385 172.166 263.417 172.286 263.408 172.407C261.239 174.247 259.249 175.719 257.567 176.69C257.369 176.803 257.151 176.953 256.962 177.051C256.962 177.051 262.449 169.675 267.485 161.293C266.07 167.259 263.482 171.996 263.449 172.053Z" fill="#006ACC"/>
<path d="M279.871 153.75C279.858 153.679 278.582 147.115 275.358 144.161C274.657 147.545 272.761 151.811 270.409 156.171C270.298 156.375 270.197 156.58 270.084 156.785C269.639 161.807 267.983 166.463 266.681 169.485C271.568 164.941 276.756 159.323 280.639 154.449C280.267 154.388 279.944 154.138 279.871 153.75Z" fill="#006ACC"/>
<path d="M270.093 156.298C270.082 156.458 270.1 156.585 270.087 156.748C270.087 156.759 270.084 156.772 270.084 156.783C269.638 161.805 267.981 166.46 266.681 169.485C265.809 171.505 265.095 172.813 265.024 172.942C264.858 173.238 264.551 173.406 264.236 173.406C264.084 173.406 263.931 173.367 263.793 173.29C263.468 173.106 263.368 172.755 263.404 172.409C263.415 172.288 263.383 172.169 263.446 172.054C263.478 171.998 266.066 167.261 267.481 161.295C267.802 159.929 268.068 158.515 268.219 157.06C268.234 156.901 268.269 156.749 268.283 156.59C268.94 149.08 264.931 146.978 264.757 146.895C264.314 146.672 264.128 146.131 264.347 145.685C264.569 145.239 265.099 145.055 265.548 145.265C265.761 145.364 270.641 147.861 270.093 156.298Z" fill="#189DF8"/>
<path d="M253.357 161.108C253.357 161.713 253.328 162.427 253.286 163.208C252.968 169.15 251.623 179.246 251.558 179.728C251.494 180.181 251.109 180.514 250.66 180.514C250.622 180.514 250.578 180.511 250.54 180.503C250.046 180.438 249.695 179.983 249.763 179.488C249.777 179.375 251.042 169.906 251.431 163.92C251.502 162.849 251.547 161.876 251.547 161.105C251.558 156.325 249.943 154.14 249.943 154.14C249.919 154.108 249.932 154.069 249.914 154.037C249.692 153.647 249.745 153.149 250.109 152.869C250.504 152.564 251.063 152.635 251.37 153.025C251.373 153.032 251.409 153.078 251.43 153.11C251.721 153.513 253.367 156.007 253.357 161.108Z" fill="#189DF8"/>
<path d="M275.758 142.095C275.715 142.066 275.675 142.048 275.631 142.019C272.454 139.859 269.392 139.814 267.926 139.962C267.82 139.972 267.746 139.983 267.658 139.994C267.31 140.041 267.066 140.091 267.029 140.099C266.546 140.221 266.252 140.709 266.372 141.194C266.43 141.426 266.581 141.608 266.768 141.729C266.831 141.769 266.903 141.756 266.974 141.781C267.133 141.835 267.293 141.9 267.465 141.858C267.613 141.822 271.073 141.03 274.726 143.578C274.954 143.738 275.147 143.965 275.359 144.158C278.584 147.114 279.86 153.676 279.872 153.747C279.945 154.135 280.268 154.386 280.638 154.444C280.683 154.451 280.717 154.489 280.762 154.489C280.815 154.489 280.873 154.485 280.925 154.473C281.417 154.383 281.742 153.913 281.652 153.421C281.649 153.402 281.623 153.278 281.608 153.21C281.391 152.112 279.84 144.941 275.758 142.095Z" fill="#189DF8"/>
<path d="M139.834 19.2141C119.683 44.2032 128.147 72.6941 128.239 72.9743C128.363 73.3577 128.717 73.5993 129.098 73.5993C129.19 73.5993 129.285 73.5848 129.377 73.5558C129.854 73.4012 130.112 72.8906 129.957 72.4154C129.872 72.1432 121.691 44.5978 141.242 20.3545C144.536 16.2697 149.129 12.9113 154.66 10.2986C157.141 9.12763 159.83 8.12736 162.684 7.28011C169.29 5.31983 176.775 4.19875 184.953 4.13432C185.217 4.13271 185.476 4.1311 185.738 4.1311C193.938 4.1311 201.344 5.13781 207.194 6.64547C213.338 8.23044 217.763 10.3663 219.533 12.4925C219.854 12.8774 220.421 12.9258 220.809 12.6084C221.191 12.2879 221.243 11.7177 220.924 11.3327C220.825 11.2119 220.689 11.0976 220.578 10.9784C215.811 5.90453 200.76 2.29002 184.94 2.32545C181.189 2.35445 177.568 2.59284 174.101 3.02935C165.062 4.16492 157.091 6.65514 150.648 10.3019C146.296 12.7615 142.632 15.7446 139.834 19.2141Z" fill="#189DF8"/>
<path d="M267.217 85.9471C267.217 85.9471 267.214 85.9503 267.206 85.9616L264.559 89.6051C264.559 89.6051 261.827 57.416 259.921 43.5636C259.67 41.745 259.433 40.2277 259.221 39.1566C257.377 29.9206 238.004 16.0681 238.004 16.0681C238.394 15.9377 239.015 16.0359 239.75 16.263C241.46 16.7801 243.969 18.1525 246.799 20.0338C254.331 25.0432 263.988 33.5351 265.985 38.5413C269.058 46.2374 267.217 85.9471 267.217 85.9471Z" fill="#189DF8"/>
<path d="M232.596 12.8917C232.445 14.612 231.799 16.2453 230.736 17.6048C230.691 17.6611 230.648 17.7191 230.602 17.7771C226.35 23.3954 224.201 35.782 224.201 35.782C224.201 35.782 231.727 34.379 239.784 38.5074C239.77 38.5009 239.759 38.4897 239.744 38.4832C239.744 38.4832 240.656 38.9471 244.664 38.4832L248.672 38.0177L251.377 44.2094V37.2446L256.594 36.2781L259.878 47.8867L259.917 43.5635C259.666 41.745 259.429 40.2277 259.215 39.1565C257.37 29.9205 238 16.0681 238 16.0681C238.39 15.9376 239.007 16.0375 239.746 16.2614C239.456 16.147 239.168 16.0407 238.882 15.9441C238.372 15.7701 238.311 15.0727 238.784 14.8149C241.841 13.1591 245.317 11.5484 248.168 10.2984C251.41 8.87775 253.83 7.92419 253.83 7.92419C253.83 7.92419 248.983 5.77384 242.948 8.4058C241.765 8.92124 240.795 9.58808 239.936 10.2984C238.571 11.4243 237.526 12.3747 236.67 13.3508C235.907 14.2206 235.44 14.3269 234.445 14.7537C234.44 14.7554 234.433 14.7537 234.428 14.7537C234.425 14.7537 234.422 14.7537 234.419 14.7537C234.083 14.7554 233.873 14.7328 234.063 14.4558C235.003 13.0882 236.053 11.6724 237.119 10.2984C240.806 5.5419 244.663 1.29436 244.663 1.29436C244.663 1.29436 238.375 0.221609 234.733 6.13143C233.87 7.53116 233.352 8.95667 233.022 10.2984C232.795 11.2246 232.665 12.1025 232.596 12.8917Z" fill="#006ACC"/>
<path d="M181.169 10.3373C181.169 10.3373 195.116 5.26505 207.191 6.64385C207.191 6.64385 215.107 7.89701 219.53 12.4908C219.53 12.4908 219.969 13.111 220.806 12.6036C221.641 12.0978 220.576 10.9767 220.576 10.9767C220.576 10.9767 228.834 17.2152 226.902 26.8603C224.969 36.5054 220.064 41.9369 207.582 49.2174C195.1 56.498 169.445 62.1807 162.387 64.4744C162.387 64.4744 187.407 50.3434 188.793 50.0244C188.793 50.0244 161.048 56.0953 152.506 69.8785C152.506 69.8785 152.986 66.628 157.718 58.9737L152.368 62.3064C152.368 62.3064 152.632 74.7864 153.851 87.5129C153.851 87.5129 146.024 83.6922 140.903 85.377L138.168 77.7679L139.125 75.8865C139.125 75.8865 140.229 78.8261 140.644 79.5268C140.644 79.5268 141.006 80.2275 141.87 79.8876C141.87 79.8876 142.575 79.5913 142.23 78.657C141.886 77.7228 139.955 72.8406 139.592 71.0511C139.272 69.4742 136.389 39.4016 157.788 20.9698C157.788 20.9698 173.782 7.87607 195.675 12.7035C195.675 12.7035 196.515 13.0788 196.939 12.2734C197.364 11.468 196.442 11.0686 196.252 11.0057C196.062 10.9413 191.397 9.25647 181.169 10.3373Z" fill="#006ACC"/>
<path d="M258.121 161.155L268.218 157.059C268.218 157.059 267.956 159.472 267.48 161.293C267.003 163.113 258.298 175.8 256.957 177.051C256.957 177.051 257.336 176.826 257.562 176.69C257.562 176.69 248.369 184.477 244.151 186.345C239.932 188.214 221.552 203.203 185.831 191.931C150.111 180.659 134.405 155.706 138.337 143.923C142.269 132.14 148.597 113.862 157.367 97.7236C157.367 97.7236 160.66 106.676 159.223 112.517C157.787 118.357 151.586 135.297 152.651 140.977C153.716 146.658 185.09 170.789 218.26 167.355C218.26 167.355 233.056 169.113 243.608 166.195V171.024L247.98 165.067L251.432 163.92C251.432 163.92 250.329 177.894 249.764 179.488C249.764 179.488 249.635 180.39 250.541 180.503C251.447 180.616 251.558 179.728 251.558 179.728C251.558 179.728 253.471 163.927 253.286 163.208L255.307 162.395L256.805 166.332L258.121 161.155Z" fill="#006ACC"/>
<path d="M98.9531 230.151L105.297 232.124L182.569 256.159L191.206 240.819L206.987 266.181L184.382 264.782L102.567 240.814C71.0065 248.28 42.1671 271.146 44.619 278.07C47.0742 285.006 88.6191 322.564 100.779 336.621C115.906 354.107 132.09 411.661 133.451 416.569H329.746C329.753 416.453 333.426 350.816 336.182 337.51C338.938 324.194 355.477 306.437 355.477 306.437C355.477 306.437 349.046 322.714 346.289 344.167C343.536 365.597 371.441 416.451 371.505 416.567H429.858L418.628 378.404L411.631 357.129C411.631 357.129 396.705 299.44 381.031 283.817C365.856 268.688 324.688 234.054 322.096 231.876C320.839 231.312 319.581 230.753 318.316 230.201L323.698 228.501C321.34 224.371 316.421 216.169 313.12 213.51C309.958 210.965 288.591 203.335 276.287 199.065L263.424 195.922H263.423L263.429 195.943L264.259 199.121L299.615 210.099L277.372 215.915L225.971 238.225L209.637 263.487L209.636 263.488L209.346 263.348L192.858 238.225L141.92 216.448L140.683 215.918L118.107 210.102L152.385 199.079L152.967 196.375L95.9203 210.102L92.857 228.255L98.4125 229.983C98.4382 229.974 98.4656 229.962 98.4929 229.951C98.5122 229.943 98.686 230.02 98.9531 230.151ZM227.592 240.819L236.102 256.159L318.281 230.214L328.054 236.909L234.316 264.78H210.282L227.592 240.819Z" fill="#189DF8"/>
<path d="M184.384 264.78L206.989 266.18L191.207 240.817L182.57 256.158L105.298 232.122L98.9543 230.149C101.017 231.151 109.436 235.741 108.461 236.333C106.225 237.69 105.137 240.205 102.73 240.77C102.676 240.783 102.623 240.801 102.568 240.814L184.384 264.78Z" fill="#006ACC"/>
<path d="M210.28 264.78H234.314L328.051 236.91L318.281 230.214L236.101 256.16L227.592 240.819L210.28 264.78Z" fill="#006ACC"/>
<path d="M346.286 344.169C349.044 322.714 355.475 306.439 355.475 306.439C355.475 306.439 338.935 324.196 336.179 337.512C333.425 350.817 329.75 416.454 329.744 416.57V416.575H371.504L371.501 416.57C371.438 416.454 343.534 365.6 346.286 344.169Z" fill="#006ACC"/>
<path d="M100.78 336.622C88.6196 322.565 47.0747 285.008 44.6195 278.072C42.1676 271.147 71.007 248.281 102.567 240.815C102.622 240.802 102.675 240.786 102.73 240.772C105.138 240.206 106.224 237.692 108.461 236.334C109.436 235.741 101.016 231.152 98.9535 230.15C98.6865 230.022 98.5127 229.943 98.4934 229.951C98.466 229.96 98.4387 229.972 98.413 229.983C64.6615 243.012 27.6521 260.529 23.1729 278.304C23.1054 278.291 23.0619 278.283 23.0619 278.283L22.901 279.246C22.8061 279.625 22.708 280.134 22.6516 280.749L5.84834 381.886L2.89119 399.68L0.0530936 416.759L0 417.079H95.85L95.858 416.759L95.8629 416.57L95.8773 416.011C95.9481 416.235 96.0109 416.43 96.0575 416.57C96.0865 416.662 96.101 416.704 96.1187 416.759C96.146 416.841 96.1782 416.942 96.1782 416.942H133.554C133.554 416.942 133.537 416.878 133.505 416.759C133.493 416.715 133.468 416.626 133.452 416.57C132.09 411.662 115.906 354.109 100.78 336.622ZM43.4756 381.486C30.2102 364.193 35.9363 307.69 37.7833 292.32C39.0865 292.506 40.4879 292.659 42.0195 292.767C51.1436 293.409 62.504 301.452 65.6719 304.929C73.0326 313.006 79.0515 336.626 82.908 360.265C85.9151 378.713 89.7233 394.289 92.4874 404.417C82.7182 403 55.9413 397.737 43.4756 381.486Z" fill="#006ACC"/>
<path d="M246.698 46.748C249.338 52.7464 250.318 60.1172 251.325 63.9894C251.336 64.0313 251.346 64.0812 251.357 64.1199C251.398 64.2745 251.478 64.4002 251.526 64.5516C251.542 64.6031 251.566 64.6466 251.584 64.6982C253.489 70.3744 259.899 72.6971 259.899 72.6971C259.899 72.6971 258.549 80.5849 258.742 82.935C258.935 85.2851 264.578 89.6083 264.578 89.6083C264.578 89.6083 261.846 57.4176 259.938 43.5652L259.899 47.8884L256.617 36.2798L251.399 37.2462V44.2111L248.695 38.0194L244.687 38.4849C240.679 38.9488 239.767 38.4849 239.767 38.4849C239.781 38.4913 239.794 38.5026 239.807 38.5091C242.94 40.0618 245.116 43.1544 246.698 46.748Z" fill="#006ACC"/>
<g clip-path="url(#clip0_2432_416)">
<path d="M166.102 380.855L211.767 302.998L257.22 380.855L247.018 397.912C247.018 397.912 220.188 375.748 186.203 397.912L200.96 372.134C202.079 370.165 203.838 368.633 205.948 367.79C210.047 366.178 217.41 365.058 227.233 370.815L211.661 343.496L180.201 397.912H176.097L166.102 380.855Z" fill="#006ACC"/>
</g>
<path d="M267.207 85.9614L264.56 89.605C265.353 88.2358 267.059 86.1418 267.207 85.9614Z" fill="#006ACC"/>
<path d="M198.976 78.2639L198.967 78.3042C198.967 78.3042 199.103 78.1882 199.297 78.0013C199.346 77.9514 199.445 77.9063 199.476 77.8548C199.486 77.8387 199.49 77.8145 199.502 77.7984C199.981 77.3152 200.721 76.4695 201.481 75.2953C202.05 74.4142 202.625 73.3672 203.093 72.1157C204.607 68.0808 202.095 63.4966 202.095 63.4966L200.015 73.3463C199.706 69.1954 198.235 64.1215 198.235 64.1215C198.235 64.1215 196.063 67.6442 191.718 69.5304C187.372 71.4166 163.784 73.9632 163.784 73.9632C163.784 73.9632 166.421 79.9842 167.663 80.374C167.847 80.432 168.68 80.4819 169.888 80.5189C176.456 80.7171 195.5 80.4674 198.976 78.2639Z" fill="#006ACC"/>
<path d="M196.11 84.5762C196.11 84.5762 188.27 80.4446 182.79 83.0025C182.489 83.1426 182.242 83.2763 181.962 83.4132C177.148 85.7874 175.407 87.7493 175.407 87.7493C175.407 87.7493 178.501 86.8973 182.015 86.195C181.918 86.5574 181.791 86.9085 181.791 87.3015C181.791 89.7144 183.744 91.6699 186.154 91.6699C188.565 91.6699 190.518 89.7144 190.518 87.3015C190.518 86.559 190.286 85.8921 189.959 85.2801C191.922 85.264 193.414 85.1142 194.419 84.9531C195.562 84.7678 196.11 84.5762 196.11 84.5762Z" fill="#006ACC"/>
<path d="M215.271 72.918C215.664 75.5661 216.668 77.0448 217.313 77.7567C217.329 77.7857 217.334 77.8244 217.352 77.8518C217.382 77.8985 217.482 77.9371 217.527 77.9822C217.747 78.1965 217.894 78.3012 217.894 78.3012L217.895 78.2577C222.386 80.8445 251.392 80.4773 252.649 80.1052C253.97 79.7154 255.309 73.9586 255.309 73.9586C255.309 73.9586 231.759 70.6163 226.863 69.6547C224.268 69.1457 223.25 65.3749 223.25 65.3749C223.25 65.3749 219.781 69.5403 218.029 73.2289L218.262 64.3569C218.261 64.3602 214.632 68.6206 215.271 72.918Z" fill="#006ACC"/>
<path d="M236.299 83.003C230.819 80.4451 222.979 84.5767 222.979 84.5767C222.979 84.5767 224.935 85.2451 229.131 85.2806C228.804 85.8926 228.571 86.5595 228.571 87.302C228.571 89.7149 230.524 91.6704 232.933 91.6704C235.341 91.6704 237.296 89.7149 237.296 87.302C237.296 86.909 237.171 86.5579 237.072 86.1955C240.588 86.8977 243.682 87.7498 243.682 87.7498C243.682 87.7498 241.779 85.5608 236.299 83.003Z" fill="#006ACC"/>
<path d="M232.359 163.305C227.773 165.19 223.077 166.747 218.477 167.709C218.438 167.715 218.395 167.715 218.356 167.723C218.318 167.72 218.261 167.709 218.261 167.709C218.261 167.709 215.544 168.046 211.502 168.134C205.887 168.255 197.701 167.886 190.523 165.422C188.209 164.629 185.483 163.535 182.576 162.239C184.032 156.711 191.887 152.275 202.034 151.104C203.267 150.959 204.197 149.912 204.203 148.667C204.206 148.167 204.185 147.655 204.139 147.135C203.955 145.126 202.842 143.293 201.114 142.253C199.513 141.291 197.853 139.901 196.154 137.976C196.154 137.976 211.556 139.975 218.356 138.351C218.356 138.351 216.332 140.987 213.021 142.699C211.3 143.586 210.12 145.266 209.799 147.18C209.739 147.555 209.686 147.937 209.643 148.33C209.498 149.681 210.505 150.88 211.855 151.012C223.062 152.088 231.676 157.129 232.359 163.305Z" fill="#006ACC"/>
<path d="M251.544 161.104C251.544 161.876 251.497 162.849 251.428 163.92C250.262 164.34 249.106 164.733 247.975 165.067L243.604 171.023V166.194C229.885 169.318 219.236 167.531 218.352 167.369C218.391 167.362 218.434 167.362 218.473 167.354C226.91 165.589 235.687 161.832 243.479 157.672C242.048 152.685 237.334 136.932 232.257 127.337C231.196 125.331 229.042 124.181 226.78 124.362C225.317 124.474 224.045 124.444 223.35 124.21C221.234 123.495 218.887 121.841 215.986 120.655C215.703 120.543 215.386 120.464 215.038 120.419C211.939 119.866 207 121.48 207 121.48C207 121.48 200.608 119.471 197.707 120.655C194.806 121.841 192.46 123.495 190.34 124.21C189.69 124.429 188.535 124.473 187.191 124.379C185.59 124.273 184.099 125.207 183.484 126.692C179.658 135.946 174.023 151.213 172.023 156.672C170.034 155.589 168.076 154.465 166.218 153.326C170.67 140.79 176.962 127.034 178.79 123.107C179.118 122.4 179.755 121.95 180.432 121.569C183.283 119.948 186.323 119.103 188.689 118.275C188.976 118.176 190.021 117.674 191.466 117.05C195.876 115.155 203.942 111.854 204.815 112.632C205.486 113.227 206.278 114.596 206.847 115.664C207.412 114.596 208.204 113.227 208.876 112.632C209.254 112.296 210.985 112.727 213.177 113.475C217.714 115.016 224.249 117.925 225.002 118.275C225.971 118.724 232.582 119.98 234.281 120.821C234.316 120.839 234.351 120.857 234.379 120.874C234.435 120.924 234.538 121.016 234.675 121.143C237.194 123.456 244.355 140.719 249.171 154.4L248.952 154.602C249.274 154.415 249.596 154.223 249.909 154.036C249.927 154.069 249.913 154.107 249.938 154.14C249.94 154.14 251.555 156.325 251.544 161.104Z" fill="#006ACC"/>
<path d="M234.383 120.874C234.354 120.857 234.318 120.839 234.284 120.821L234.323 120.818C234.323 120.818 234.344 120.836 234.383 120.874Z" fill="#006ACC"/>
<defs>
<clipPath id="clip0_2432_416">
<rect width="91.1183" height="94.9149" fill="white" transform="translate(166.102 302.998)"/>
</clipPath>
</defs>
</svg>
