<svg width="120" height="116" viewBox="0 0 120 116" fill="none" xmlns="http://www.w3.org/2000/svg">
<g clip-path="url(#clip0)">
<path d="M73.6389 78.3906C72.3527 78.3906 71.3086 79.4057 71.3086 80.6563C71.3086 81.9068 72.3527 82.9219 73.6389 82.9219C74.9252 82.9219 75.9693 81.9068 75.9693 80.6563C75.9693 79.4057 74.9252 78.3906 73.6389 78.3906Z" fill="#64F4AC"/>
<path d="M64.3178 78.3906H50.3357C49.0486 78.3906 48.0054 79.4048 48.0054 80.6563C48.0054 81.9077 49.0486 82.9219 50.3357 82.9219H64.3178C65.605 82.9219 66.6482 81.9077 66.6482 80.6563C66.6482 79.4048 65.605 78.3906 64.3178 78.3906Z" fill="#64F4AC"/>
<g clip-path="url(#clip1)">
<path d="M107.382 18.5493H53.6904V22.3588H107.382V18.5493Z" fill="#64F4AC"/>
<path d="M87.4961 26.168H53.6904V29.9775H87.4961V26.168Z" fill="#64F4AC"/>
<path d="M87.4961 33.7871H53.6904V37.5966H87.4961V33.7871Z" fill="#64F4AC"/>
<path d="M107.382 10.9302H69.5991V14.7397H107.382V10.9302Z" fill="#64F4AC"/>
<path d="M65.6217 10.9302H61.6445V14.7397H65.6217V10.9302Z" fill="#64F4AC"/>
<path d="M61.6446 77.5967H57.6675V81.4062H61.6446V77.5967Z" fill="#64F4AC"/>
<path d="M33.2218 14.1811L30.4099 11.4878L26.4328 15.2973C25.6565 16.0411 25.6565 17.2468 26.4328 17.9906L30.4099 21.8002L33.2218 19.1068L30.6505 16.644L33.2218 14.1811Z" fill="#64F4AC"/>
<path d="M49.1308 15.2973L45.1536 11.4878L42.3418 14.1811L44.913 16.644L42.3418 19.1068L45.1536 21.8002L49.1308 17.9906C49.9071 17.2468 49.9071 16.0411 49.1308 15.2973Z" fill="#64F4AC"/>
<path d="M37.8851 10.3255L33.9043 21.7539L37.6751 22.959L41.656 11.5307L37.8851 10.3255Z" fill="#64F4AC"/>
<path d="M103.405 60.4539V45.2158H99.4275V60.4539H95.4504V41.4062H91.4732V60.4539H87.4961V50.9301H83.519V60.4539H79.5418V49.0253H75.5647V60.4539H71.5876V52.8348H67.6104V60.4539H63.6333V64.2634H107.382V60.4539H103.405Z" fill="#64F4AC"/>
<path d="M105.393 1.40625H13.9192C7.33231 1.41244 1.99426 6.52554 1.98779 12.8348V50.2177V50.2348V71.8824V77.5967C1.99426 83.906 7.33231 89.0191 13.9192 89.0253H38.5416L30.5874 104.263H19.8849C16.5901 104.263 13.9192 106.822 13.9192 109.978C13.9192 113.134 16.5901 115.692 19.8849 115.692H99.4275C102.722 115.692 105.393 113.134 105.393 109.978C105.393 106.822 102.722 104.263 99.4275 104.263H88.7251L80.7708 89.0253H105.393C111.98 89.0191 117.318 83.906 117.325 77.5967V12.8348C117.318 6.52554 111.98 1.41244 105.393 1.40625ZM5.96493 28.2062L10.4849 33.3605C10.8628 33.7917 11.4206 34.0405 12.0082 34.0405H18.0952C18.6828 34.0405 19.2406 33.7917 19.6184 33.3605L24.1404 28.2062L28.6028 29.5948L29.0959 36.3053C29.1367 36.8665 29.4345 37.3817 29.9093 37.7129L34.8349 41.1415C35.3114 41.471 35.915 41.5832 36.4854 41.4482L43.3122 39.8234L46.0723 43.4596L42.3517 49.1739C42.0435 49.6529 41.9721 50.2379 42.1568 50.772L44.04 56.3167C44.2212 56.8515 44.6396 57.2824 45.1834 57.4939L51.7019 60.0253V64.5205L45.1794 67.052C44.6343 67.2624 44.2152 67.6946 44.036 68.231L43.4395 69.9777H31.9833C36.4397 61.0405 32.4884 50.3351 23.1581 46.0665C17.6778 43.5593 11.2682 43.7541 5.96493 46.5891V28.2062ZM5.96493 51.1205C12.3969 46.3141 21.6791 47.4122 26.6967 53.5734C30.5709 58.3301 30.87 64.9167 27.4414 69.9777H5.96493V51.1205ZM99.4275 108.073C100.526 108.073 101.416 108.926 101.416 109.978C101.416 111.03 100.526 111.882 99.4275 111.882H19.8849C18.7867 111.882 17.8963 111.03 17.8963 109.978C17.8963 108.926 18.7867 108.073 19.8849 108.073H99.4275ZM84.2786 104.263H35.0338L42.988 89.0253H76.3244L84.2786 104.263ZM113.347 77.5967C113.347 81.8046 109.786 85.2158 105.393 85.2158H13.9192C9.5262 85.2158 5.96493 81.8046 5.96493 77.5967V73.7872H28.4795H28.4974H113.347V77.5967ZM113.347 69.9777H48.2319L54.4382 67.5682C55.1879 67.2767 55.6786 66.5793 55.6791 65.8043V58.7396C55.6793 57.9639 55.1886 57.2655 54.4382 56.9739L47.526 54.2958L46.2175 50.4386L50.1588 44.3815C50.5864 43.7234 50.5548 42.8829 50.0793 42.2558L45.7442 36.5415C45.2682 35.9136 44.4424 35.6251 43.6562 35.812L36.4258 37.5262L33.0094 35.1491L32.4864 28.0443C32.4295 27.2698 31.8874 26.6058 31.1163 26.3663L24.1066 24.1834C23.3353 23.9482 22.4921 24.1803 21.9689 24.772L17.1824 30.2291H12.9408L8.15235 24.772C7.62886 24.1796 6.78446 23.9472 6.01265 24.1834L5.96493 24.2005V12.8348C5.96493 8.62696 9.5262 5.21577 13.9192 5.21577H105.393C109.786 5.21577 113.347 8.62696 113.347 12.8348V69.9777Z" fill="#64F4AC"/>
</g>
</g>
<defs>
<clipPath id="clip0">
<rect width="119.314" height="116" fill="white"/>
</clipPath>
<clipPath id="clip1">
<rect width="119.314" height="114.286" fill="white" transform="translate(-0.000976562 1.40625)"/>
</clipPath>
</defs>
</svg>
